<svg width="295" height="295" viewBox="0 0 295 295" fill="none" xmlns="http://www.w3.org/2000/svg">
<path d="M295 225.616H0V225.763H295V225.616Z" fill="#EBEBEB"/>
<path d="M265.441 235.109H245.9V235.257H265.441V235.109Z" fill="#EBEBEB"/>
<path d="M195.42 236.714H190.293V236.861H195.42V236.714Z" fill="#EBEBEB"/>
<path d="M245.31 229.634H233.988V229.781H245.31V229.634Z" fill="#EBEBEB"/>
<path d="M56.4335 230.625H30.9514V230.773H56.4335V230.625Z" fill="#EBEBEB"/>
<path d="M65.4251 230.625H61.6904V230.773H65.4251V230.625Z" fill="#EBEBEB"/>
<path d="M132.839 233.115H77.5673V233.262H132.839V233.115Z" fill="#EBEBEB"/>
<path d="M139.83 199.302H25.9069C25.0144 199.3 24.159 198.945 23.5285 198.313C22.898 197.682 22.5439 196.826 22.5439 195.933V35.7894C22.5517 34.902 22.9092 34.0536 23.5389 33.4283C24.1686 32.803 25.0195 32.4515 25.9069 32.45H139.83C140.723 32.45 141.58 32.8049 142.212 33.4367C142.844 34.0685 143.199 34.9254 143.199 35.8189V195.933C143.199 196.827 142.844 197.683 142.212 198.315C141.58 198.947 140.723 199.302 139.83 199.302ZM25.9069 32.568C25.0535 32.5695 24.2357 32.9096 23.6328 33.5136C23.03 34.1175 22.6914 34.936 22.6914 35.7894V195.933C22.6914 196.786 23.03 197.605 23.6328 198.209C24.2357 198.813 25.0535 199.153 25.9069 199.154H139.83C140.684 199.153 141.502 198.813 142.106 198.209C142.71 197.605 143.05 196.787 143.051 195.933V35.7894C143.05 34.9355 142.71 34.117 142.106 33.5132C141.502 32.9094 140.684 32.5695 139.83 32.568H25.9069Z" fill="#EBEBEB"/>
<path d="M267.453 199.302H153.524C152.631 199.3 151.775 198.945 151.143 198.314C150.512 197.682 150.157 196.826 150.155 195.933V35.7894C150.164 34.9015 150.523 34.053 151.154 33.4279C151.784 32.8028 152.636 32.4515 153.524 32.45H267.453C268.339 32.453 269.189 32.8053 269.817 33.4304C270.445 34.0555 270.802 34.903 270.81 35.7894V195.933C270.81 196.825 270.457 197.68 269.827 198.311C269.198 198.943 268.344 199.299 267.453 199.302ZM153.524 32.568C152.67 32.5695 151.852 32.9094 151.248 33.5132C150.644 34.117 150.304 34.9355 150.302 35.7894V195.933C150.304 196.787 150.644 197.605 151.248 198.209C151.852 198.813 152.67 199.153 153.524 199.154H267.453C268.307 199.153 269.125 198.813 269.729 198.209C270.333 197.605 270.673 196.787 270.674 195.933V35.7894C270.673 34.9355 270.333 34.117 269.729 33.5132C269.125 32.9094 268.307 32.5695 267.453 32.568H153.524Z" fill="#EBEBEB"/>
<path d="M249.535 47.0702H134.608V148.019H249.535V47.0702Z" fill="#E6E6E6"/>
<path d="M252.538 47.0702H136.013V148.019H252.538V47.0702Z" fill="#F0F0F0"/>
<path d="M249.535 148.013H134.608V150.798H249.535V148.013Z" fill="#E6E6E6"/>
<path d="M257.529 148.013H141.004V150.798H257.529V148.013Z" fill="#F0F0F0"/>
<path d="M248.337 143.824V51.265L140.208 51.265V143.824H248.337Z" fill="#FAFAFA"/>
<path d="M154.68 143.818L166.604 51.265H187.248L175.318 143.818H154.68Z" fill="white"/>
<path d="M179.749 143.818L191.679 51.265H199.727L187.797 143.818H179.749Z" fill="white"/>
<path d="M248.343 143.818V51.2592H247.812V143.818H248.343Z" fill="#E6E6E6"/>
<path opacity="0.5" d="M253.523 60.0855H138.597L138.213 52.8934H253.139L253.523 60.0855Z" fill="#E0E0E0"/>
<path opacity="0.5" d="M253.523 71.9032H138.597L138.213 64.717H253.139L253.523 71.9032Z" fill="#E0E0E0"/>
<path opacity="0.5" d="M253.523 83.721H138.597L138.213 76.5348H253.139L253.523 83.721Z" fill="#E0E0E0"/>
<path opacity="0.5" d="M253.523 95.5445H138.597L138.213 88.3524H253.139L253.523 95.5445Z" fill="#E0E0E0"/>
<path opacity="0.5" d="M253.523 107.362H138.597L138.213 100.17H253.139L253.523 107.362Z" fill="#E0E0E0"/>
<path opacity="0.5" d="M253.523 119.18H138.597L138.213 111.988H253.139L253.523 119.18Z" fill="#E0E0E0"/>
<path d="M70.505 68.2748H34.6035V139.258H70.505V68.2748Z" fill="#E0E0E0"/>
<path d="M72.6349 68.2748H36.0254V139.258H72.6349V68.2748Z" fill="#F5F5F5"/>
<path d="M39.0875 72.3811L39.0875 135.151H69.561V72.3811H39.0875Z" fill="white"/>
<path d="M118.437 57.4424H82.5351V128.425H118.437V57.4424Z" fill="#E0E0E0"/>
<path d="M120.567 57.4424H83.957V128.425H120.567V57.4424Z" fill="#F5F5F5"/>
<path d="M87.025 61.5487V124.319H117.504V61.5487H87.025Z" fill="white"/>
<path d="M112.059 160.197H96.9488V225.616H112.059V160.197Z" fill="#E6E6E6"/>
<path d="M109.191 225.616H112.059V218.955H106.182L109.191 225.616Z" fill="#F0F0F0"/>
<path d="M55.578 160.197H40.4681V225.616H55.578V160.197Z" fill="#E6E6E6"/>
<path d="M112.059 160.197H53.0705V221.527H112.059V160.197Z" fill="#F0F0F0"/>
<path d="M83.5263 164.274V213.196H109.828V164.274H83.5263Z" fill="#E6E6E6"/>
<path d="M55.2948 164.274V213.196H81.597V164.274H55.2948Z" fill="#E6E6E6"/>
<path d="M71.0537 166.144H65.8499C63.6691 166.166 61.5514 165.413 59.8732 164.02H77.0304C75.3523 165.413 73.2345 166.166 71.0537 166.144Z" fill="#F0F0F0"/>
<path d="M99.5507 166.144H94.3469C92.1659 166.167 90.0478 165.414 88.3702 164.02H105.527C103.849 165.413 101.731 166.166 99.5507 166.144Z" fill="#F0F0F0"/>
<path d="M55.9438 225.616H53.0705V218.955H58.9528L55.9438 225.616Z" fill="#F0F0F0"/>
<path d="M66.9178 153.955C66.9178 153.955 67.3662 160.197 84.5647 160.197C101.763 160.197 102.212 153.955 102.212 153.955H66.9178Z" fill="#E6E6E6"/>
<path d="M134.709 181.938L263.813 181.938V171.129L134.709 171.129V181.938Z" fill="#EBEBEB"/>
<path d="M134.715 181.938H171.36V171.129H134.715V181.938Z" fill="#E0E0E0"/>
<path d="M256.09 225.616H263.819V181.938H256.09V225.616Z" fill="#EBEBEB"/>
<path d="M256.09 184.965L263.819 183.455V181.938H256.09V184.965Z" fill="#E0E0E0"/>
<path d="M134.709 225.616H142.438V181.938H134.709V225.616Z" fill="#E0E0E0"/>
<path d="M163.631 225.616H171.36V181.938H163.631V225.616Z" fill="#EBEBEB"/>
<path d="M163.631 184.965L171.36 183.455V181.938H163.631V184.965Z" fill="#E0E0E0"/>
<path d="M231.894 225.616H239.623V181.938H231.894V225.616Z" fill="#E0E0E0"/>
<path d="M147.5 252.26C210.679 252.26 261.895 249.27 261.895 245.582C261.895 241.893 210.679 238.903 147.5 238.903C84.3214 238.903 33.1049 241.893 33.1049 245.582C33.1049 249.27 84.3214 252.26 147.5 252.26Z" fill="#F5F5F5"/>
<path d="M137.181 76.3047H66.7998C65.6853 76.2932 64.5807 76.5137 63.556 76.9521C62.5314 77.3904 61.6091 78.0372 60.8478 78.8512C60.0865 79.6651 59.5029 80.6286 59.134 81.6803C58.7651 82.7319 58.619 83.8489 58.705 84.96L68.794 235.056C68.9843 237.394 70.0384 239.578 71.7508 241.181C73.4633 242.784 75.7114 243.693 78.057 243.729H148.438C149.554 243.742 150.661 243.521 151.687 243.082C152.713 242.643 153.636 241.995 154.397 241.178C155.159 240.362 155.741 239.396 156.108 238.342C156.475 237.288 156.617 236.169 156.527 235.056L146.438 84.96C146.244 82.6261 145.189 80.4476 143.478 78.8481C141.767 77.2485 139.523 76.342 137.181 76.3047Z" fill="#33357D"/>
<path opacity="0.3" d="M137.181 76.3047H66.7998C65.6853 76.2932 64.5807 76.5137 63.556 76.9521C62.5314 77.3904 61.6091 78.0372 60.8478 78.8512C60.0865 79.6651 59.5029 80.6286 59.134 81.6803C58.7651 82.7319 58.619 83.8489 58.705 84.96L68.794 235.056C68.9843 237.394 70.0384 239.578 71.7508 241.181C73.4633 242.784 75.7114 243.693 78.057 243.729H148.438C149.554 243.742 150.661 243.521 151.687 243.082C152.713 242.643 153.636 241.995 154.397 241.178C155.159 240.362 155.741 239.396 156.108 238.342C156.475 237.288 156.617 236.169 156.527 235.056L146.438 84.96C146.244 82.6261 145.189 80.4476 143.478 78.8481C141.767 77.2485 139.523 76.342 137.181 76.3047Z" fill="white"/>
<path d="M58.7913 108.465L58.2026 108.504L59.1529 122.662L59.7416 122.623L58.7913 108.465Z" fill="#33357D"/>
<path d="M60.2642 130.066L59.6755 130.106L60.1026 136.452L60.6913 136.412L60.2642 130.066Z" fill="#33357D"/>
<path d="M73.9034 236.59C73.9514 237.162 73.7892 237.732 73.4472 238.193C73.1052 238.654 72.6068 238.975 72.0453 239.095C71.4839 239.215 70.8979 239.127 70.3972 238.846C69.8964 238.565 69.5152 238.111 69.325 237.569C69.0316 236.771 68.8528 235.934 68.794 235.086L58.705 84.96C58.6453 84.115 58.7129 83.2657 58.9056 82.4407C59.0242 81.8785 59.3438 81.3789 59.8045 81.0356C60.2653 80.6922 60.8354 80.5287 61.4081 80.5758C61.9807 80.6229 62.5165 80.8772 62.915 81.2912C63.3135 81.7051 63.5473 82.2502 63.5725 82.8242L73.9034 236.59Z" fill="#33357D"/>
<path d="M148.438 240.915H83.0484C81.4249 240.871 79.8739 240.233 78.6896 239.121C77.5053 238.01 76.7701 236.502 76.6233 234.885L66.5343 84.7948C66.4696 84.0701 66.5582 83.3399 66.7942 82.6516C67.0302 81.9633 67.4084 81.3324 67.9042 80.7999C68.4 80.2674 69.0023 79.8451 69.672 79.5606C70.3417 79.2761 71.0637 79.1357 71.7912 79.1485H137.181C138.803 79.1923 140.354 79.8296 141.538 80.9398C142.722 82.0501 143.458 83.556 143.606 85.1724L153.695 235.268C153.758 235.993 153.668 236.722 153.431 237.41C153.195 238.097 152.816 238.727 152.321 239.259C151.825 239.791 151.224 240.214 150.555 240.499C149.886 240.784 149.165 240.926 148.438 240.915ZM71.7912 79.7798C71.1504 79.7681 70.5144 79.8915 69.9246 80.142C69.3347 80.3925 68.8043 80.7646 68.3678 81.2338C67.9314 81.7031 67.5988 82.2591 67.3916 82.8655C67.1845 83.472 67.1075 84.1153 67.1656 84.7535L77.2546 234.82C77.3857 236.279 78.0482 237.64 79.1164 238.642C80.1845 239.645 81.5838 240.221 83.0484 240.26H148.438C149.079 240.272 149.715 240.148 150.305 239.898C150.895 239.647 151.425 239.275 151.861 238.806C152.298 238.337 152.631 237.781 152.838 237.174C153.045 236.568 153.122 235.924 153.064 235.286L142.975 85.196C142.844 83.7367 142.181 82.3765 141.113 81.3736C140.045 80.3708 138.646 79.7952 137.181 79.7562L71.7912 79.7798Z" fill="white"/>
<g opacity="0.5">
<path opacity="0.5" d="M132.152 147.267C142.124 136.722 140.652 119.137 128.864 107.989C117.076 96.8421 99.4362 96.3538 89.4643 106.899C79.4924 117.444 80.9646 135.029 92.7526 146.176C104.54 157.323 122.18 157.812 132.152 147.267Z" fill="#33357D"/>
<path opacity="0.5" d="M127.883 143.235C135.86 134.799 134.682 120.732 125.252 111.815C115.822 102.897 101.711 102.507 93.7339 110.942C85.7569 119.378 86.9346 133.445 96.3645 142.362C105.794 151.28 119.905 151.67 127.883 143.235Z" fill="white"/>
<path opacity="0.5" d="M123.61 139.223C129.593 132.898 128.711 122.348 121.641 115.66C114.57 108.971 103.988 108.676 98.0045 115.001C92.0212 121.326 92.9026 131.876 99.9732 138.565C107.044 145.253 117.626 145.548 123.61 139.223Z" fill="#33357D"/>
<path opacity="0.5" d="M119.348 135.164C123.337 130.945 122.748 123.909 118.032 119.45C113.316 114.99 106.259 114.794 102.269 119.013C98.2793 123.232 98.8682 130.268 103.584 134.728C108.3 139.187 115.358 139.383 119.348 135.164Z" fill="white"/>
<path opacity="0.5" d="M115.076 131.145C117.071 129.036 116.777 125.518 114.42 123.287C112.062 121.057 108.533 120.959 106.538 123.068C104.543 125.177 104.837 128.695 107.194 130.925C109.552 133.155 113.081 133.254 115.076 131.145Z" fill="#33357D"/>
</g>
<path d="M174.428 86.14L175.979 87.2551C176.518 87.6484 177.061 88.0201 177.608 88.3702C178.699 89.0959 179.797 89.8216 180.906 90.4824C182.015 91.1432 183.136 91.7686 184.245 92.3232C185.285 92.8474 186.362 93.295 187.467 93.6625C187.222 93.6018 186.967 93.5897 186.717 93.6271C186.568 93.6454 186.423 93.6872 186.287 93.751C186.115 93.8395 186.169 93.8454 186.257 93.7923C186.598 93.5557 186.906 93.2739 187.172 92.9545C187.948 92.0278 188.65 91.0414 189.272 90.0045C189.962 88.9189 190.623 87.7684 191.254 86.5884C191.886 85.4084 192.517 84.1989 193.101 83.0484L193.142 82.9717C193.441 82.3834 193.949 81.9275 194.565 81.6929C195.182 81.4583 195.864 81.4617 196.478 81.7026C197.093 81.9435 197.595 82.4045 197.888 82.9958C198.181 83.5871 198.244 84.2663 198.063 84.901C197.261 87.712 196.245 90.4576 195.024 93.1138C194.363 94.543 193.583 95.9145 192.694 97.2143C192.138 98.0197 191.486 98.7547 190.753 99.4032C190.217 99.8703 189.609 100.249 188.953 100.524C188.492 100.713 188.008 100.842 187.514 100.908C186.922 100.975 186.324 100.941 185.744 100.807C184.168 100.442 182.624 99.9463 181.13 99.3265C179.731 98.7573 178.365 98.1133 177.035 97.3972C175.726 96.701 174.449 95.9674 173.206 95.1965C172.587 94.8071 171.973 94.4118 171.365 94.0165C170.758 93.6212 170.185 93.2082 169.519 92.7244C168.774 92.0376 168.307 91.101 168.208 90.0926C168.109 89.0843 168.384 88.0747 168.98 87.2558C169.577 86.4369 170.454 85.866 171.444 85.6515C172.434 85.4371 173.469 85.5941 174.351 86.0928L174.428 86.14Z" fill="#33357D"/>
<path opacity="0.2" d="M174.428 86.14L175.979 87.2551C176.518 87.6484 177.061 88.0201 177.608 88.3702C178.699 89.0959 179.797 89.8216 180.906 90.4824C182.015 91.1432 183.136 91.7686 184.245 92.3232C185.285 92.8474 186.362 93.295 187.467 93.6625C187.222 93.6018 186.967 93.5897 186.717 93.6271C186.568 93.6454 186.423 93.6872 186.287 93.751C186.115 93.8395 186.169 93.8454 186.257 93.7923C186.598 93.5557 186.906 93.2739 187.172 92.9545C187.948 92.0278 188.65 91.0414 189.272 90.0045C189.962 88.9189 190.623 87.7684 191.254 86.5884C191.886 85.4084 192.517 84.1989 193.101 83.0484L193.142 82.9717C193.441 82.3834 193.949 81.9275 194.565 81.6929C195.182 81.4583 195.864 81.4617 196.478 81.7026C197.093 81.9435 197.595 82.4045 197.888 82.9958C198.181 83.5871 198.244 84.2663 198.063 84.901C197.261 87.712 196.245 90.4576 195.024 93.1138C194.363 94.543 193.583 95.9145 192.694 97.2143C192.138 98.0197 191.486 98.7547 190.753 99.4032C190.217 99.8703 189.609 100.249 188.953 100.524C188.492 100.713 188.008 100.842 187.514 100.908C186.922 100.975 186.324 100.941 185.744 100.807C184.168 100.442 182.624 99.9463 181.13 99.3265C179.731 98.7573 178.365 98.1133 177.035 97.3972C175.726 96.701 174.449 95.9674 173.206 95.1965C172.587 94.8071 171.973 94.4118 171.365 94.0165C170.758 93.6212 170.185 93.2082 169.519 92.7244C168.774 92.0376 168.307 91.101 168.208 90.0926C168.109 89.0843 168.384 88.0747 168.98 87.2558C169.577 86.4369 170.454 85.866 171.444 85.6515C172.434 85.4371 173.469 85.5941 174.351 86.0928L174.428 86.14Z" fill="black"/>
<path d="M194.588 81.9451L196.187 79.2429L199.255 82.5528C198.811 83.514 198.012 84.2652 197.025 84.6473C196.803 84.7229 196.567 84.7462 196.334 84.7155C196.102 84.6848 195.88 84.6009 195.685 84.4703L195.095 84.0927C194.751 83.8685 194.506 83.5204 194.412 83.1205C194.317 82.7206 194.38 82.2997 194.588 81.9451Z" fill="#FFB573"/>
<path d="M200.535 77.6321L201.214 78.051C201.426 78.1828 201.605 78.3625 201.736 78.5758C201.867 78.7891 201.947 79.03 201.968 79.2794C201.989 79.5288 201.952 79.7797 201.859 80.012C201.765 80.2444 201.619 80.4517 201.432 80.6175L199.255 82.5527L196.187 79.2428L198.859 77.6262C199.112 77.4721 199.402 77.3911 199.698 77.3921C199.994 77.3931 200.284 77.4762 200.535 77.6321Z" fill="#FFB573"/>
<path d="M136.892 240.791L141.565 240.927L143.323 230.106L138.656 229.97L136.892 240.791Z" fill="#FFB573"/>
<path d="M142.302 239.611L137.081 238.95C136.993 238.936 136.904 238.958 136.832 239.01C136.76 239.062 136.712 239.14 136.697 239.227L135.924 243.322C135.896 243.539 135.954 243.758 136.087 243.931C136.22 244.105 136.416 244.219 136.632 244.248C138.455 244.449 139.334 244.449 141.629 244.738C143.04 244.921 146.715 245.806 148.668 245.564C150.621 245.322 150.326 243.405 149.476 243.334C145.671 243.003 144.243 241.192 143.063 239.994C142.859 239.786 142.591 239.652 142.302 239.611Z" fill="#263238"/>
<path opacity="0.2" d="M138.65 229.976L143.323 230.112L142.414 235.687L137.741 235.552L138.65 229.976Z" fill="black"/>
<path d="M164.191 126.26C164.191 126.26 160.114 164.958 157.4 178.103C154.45 192.499 144.91 234.614 144.91 234.614L136.361 233.982C136.361 233.982 141.045 190.417 144.88 176.316C144.88 161.672 148.42 120.631 148.42 120.631L164.191 126.26Z" fill="#263238"/>
<path opacity="0.3" d="M150.568 139.34C150.491 136.314 148.851 135.34 147.234 135.375C146.644 142.656 146.013 151.583 145.535 159.636C148.403 154.987 150.78 147.748 150.568 139.34Z" fill="black"/>
<path d="M136.107 234.041L145.264 234.72L146.314 231.268L135.771 231.162L136.107 234.041Z" fill="white"/>
<path d="M89.5089 204.523L92.453 208.164L101.262 201.809L98.3117 198.175L89.5089 204.523Z" fill="#FFB573"/>
<path d="M93.0902 208.17L90.4706 203.609C90.4292 203.531 90.359 203.473 90.2752 203.447C90.1914 203.42 90.1006 203.428 90.0222 203.467L86.2875 205.32C86.098 205.428 85.9588 205.606 85.9002 205.816C85.8416 206.026 85.8684 206.251 85.9748 206.441C86.9129 208.016 87.4439 208.718 88.5944 210.724C89.3024 211.957 91.1668 215.503 92.1344 217.214C93.102 218.925 94.7717 217.905 94.4944 217.096C93.3144 213.462 92.9781 210.683 93.22 209.025C93.2739 208.734 93.2282 208.432 93.0902 208.17Z" fill="#263238"/>
<path opacity="0.2" d="M98.3117 198.175L101.262 201.815L96.7186 205.084L93.7686 201.45L98.3117 198.175Z" fill="black"/>
<path d="M155.666 122.932C155.666 122.932 144.166 155.843 138.939 168.209C133.222 181.75 99.0315 205.798 99.0315 205.798L93.633 199.137C93.633 199.137 116.867 175.85 125.493 164.805C130.272 149.766 140.473 117.499 140.473 117.499L155.666 122.932Z" fill="#263238"/>
<path d="M93.4147 198.865L99.2498 206.063L102.099 204.417L95.2673 196.794L93.4147 198.865Z" fill="white"/>
<path d="M164.144 126.484L140.449 117.498C141.039 115.333 144.137 108.973 146.892 100.117C148.976 93.573 150.492 86.8615 151.423 80.0571C151.448 79.8587 151.512 79.6674 151.613 79.4948C151.713 79.3222 151.848 79.1719 152.009 79.0531C152.17 78.9344 152.353 78.8497 152.547 78.8042C152.742 78.7587 152.944 78.7534 153.14 78.7886C153.583 78.8653 154.108 78.9656 154.686 79.0777C156.179 79.3786 158.043 79.8034 159.819 80.3462C163.228 81.3455 166.577 82.5392 169.849 83.9216C170.945 84.4149 172.011 84.9724 173.041 85.5913C173.654 85.9403 174.223 86.3622 174.734 86.848C174.919 86.9963 175.073 87.1804 175.185 87.3892C175.298 87.598 175.367 87.8272 175.389 88.0634C175.389 91.45 171.997 104.572 164.144 126.484Z" fill="#F0F0F0"/>
<path d="M169.377 83.7033C166.71 81.9687 166.84 79.9863 167.743 78.0747C167.97 77.6019 168.224 77.1429 168.504 76.7L165.937 72.3635L164.049 69.1833C163.636 72.6762 162.374 78.8594 159.424 80.2282C161.036 82.5045 163.339 84.201 165.991 85.0662C170.345 86.4232 169.377 83.7033 169.377 83.7033Z" fill="#FFB573"/>
<path d="M165.825 84.9954L165.784 83.8862L162.834 84.4644L165.825 84.9954Z" fill="#E0E0E0"/>
<path d="M165.825 84.9954L166.374 84.0927L168.28 86.4114L165.825 84.9954Z" fill="#E0E0E0"/>
<path d="M159.825 79.6972C161.62 81.3483 163.623 82.7567 165.784 83.8862C164.604 84.6119 163.483 86.5235 163.058 88.1047C162.102 87.438 158.279 81.1486 157.748 79.4199L159.825 79.6972Z" fill="white"/>
<path d="M168.823 83.0308C168.124 83.614 167.272 83.9828 166.368 84.0928C166.999 85.0191 167.548 87.4204 167.548 88.8128C168.651 88.093 170.357 85.5796 170.628 84.4409L168.823 83.0308Z" fill="white"/>
<path opacity="0.3" d="M168.917 82.9481C168.917 82.9481 171.495 84.1871 173.773 85.5913C174.706 86.1665 175.427 87.0294 175.827 88.0499C176.227 89.0704 176.285 90.1933 175.991 91.2494C173.177 101.197 169.377 110.855 167.802 116.23C166.132 121.959 163.808 129.145 163.808 129.145L159.79 130.095C159.79 130.095 169.861 91.5739 168.917 82.9481Z" fill="black"/>
<path opacity="0.3" d="M159.766 79.2489C159.766 79.2489 156.303 78.7946 153.276 78.6589C152.215 78.6111 151.169 78.9306 150.316 79.5636C149.463 80.1966 148.854 81.1043 148.591 82.1339C147.057 88.1991 145.925 99.7985 144.373 104.312C142.444 109.952 139.83 120.95 139.83 120.95L153.553 128.88C153.553 128.88 167.418 86.2875 159.766 79.2489Z" fill="black"/>
<path d="M159.766 79.2489C159.766 79.2489 156.303 78.7946 153.276 78.6589C152.215 78.6111 151.169 78.9306 150.316 79.5636C149.463 80.1966 148.854 81.1044 148.591 82.134C147.057 88.1992 144.969 99.5271 143.411 104.047C141.47 109.687 137.352 119.274 137.352 119.274L154.663 127.393C154.663 127.393 167.418 86.2876 159.766 79.2489Z" fill="#33357D"/>
<path opacity="0.2" d="M159.766 79.2489C159.766 79.2489 156.303 78.7946 153.276 78.6589C152.215 78.6111 151.169 78.9306 150.316 79.5636C149.463 80.1966 148.854 81.1044 148.591 82.134C147.057 88.1992 144.969 99.5271 143.411 104.047C141.47 109.687 137.352 119.274 137.352 119.274L154.663 127.393C154.663 127.393 167.418 86.2876 159.766 79.2489Z" fill="black"/>
<path d="M168.917 82.9481C168.917 82.9481 171.495 84.1871 173.773 85.5913C174.706 86.1665 175.427 87.0294 175.827 88.0499C176.227 89.0704 176.285 90.1933 175.991 91.2494C173.177 101.197 170.952 111.622 169.831 117.109C168.651 122.95 167.418 128.266 167.418 128.266L160.928 129.145C160.928 129.145 169.861 91.5739 168.917 82.9481Z" fill="#33357D"/>
<path opacity="0.2" d="M168.917 82.9481C168.917 82.9481 171.495 84.1871 173.773 85.5913C174.706 86.1665 175.427 87.0294 175.827 88.0499C176.227 89.0704 176.285 90.1933 175.991 91.2494C173.177 101.197 170.952 111.622 169.831 117.109C168.651 122.95 167.418 128.266 167.418 128.266L160.928 129.145C160.928 129.145 169.861 91.5739 168.917 82.9481Z" fill="black"/>
<path opacity="0.2" d="M168.504 76.7C168.223 77.1487 167.969 77.6137 167.743 78.0924C166.48 77.3313 165.182 75.2309 165.489 73.7736C165.585 73.2883 165.736 72.8154 165.937 72.3635L168.504 76.7Z" fill="black"/>
<path d="M172.144 58.8112C175.283 59.2183 176.434 63.4545 174.699 66.2511C171.855 62.127 172.144 58.8112 172.144 58.8112Z" fill="#263238"/>
<path d="M162.374 66.6228C163.436 71.1599 163.819 73.8621 166.539 75.8976C167.416 76.5695 168.459 76.9889 169.557 77.1102C170.655 77.2315 171.765 77.0503 172.767 76.586C173.769 76.1217 174.625 75.3921 175.242 74.4762C175.859 73.5603 176.214 72.4931 176.268 71.39C176.563 67.1479 174.782 60.4396 169.973 59.2242C168.939 58.9324 167.846 58.9179 166.804 59.1823C165.762 59.4467 164.808 59.9806 164.038 60.7304C163.268 61.4801 162.709 62.4193 162.417 63.4536C162.125 64.4879 162.11 65.5809 162.374 66.6228Z" fill="#FFB573"/>
<path d="M163.772 70.6643C166.504 70.741 166.079 66.2157 164.887 64.5047C168.675 65.0947 174.953 61.7494 175.584 58.2448C176.499 53.1649 168.752 53.1649 166.244 54.7815C167.324 54.8582 167.873 55.7727 167.613 56.2447C167.613 56.2447 163.872 55.1119 161.453 56.4276C162.51 56.817 163.631 58.3392 159.613 58.823C155.789 59.2832 156.946 63.13 158.875 63.0592C157.849 64.6345 156.615 68.2158 158.928 69.738C161.241 71.2602 162.822 73.2426 162.321 74.0568C163.129 74.0273 164.846 73.0538 163.772 70.6643Z" fill="#263238"/>
<path d="M159.424 62.7052C157.595 62.8822 156.545 64.31 156.474 66.2452C157.257 64.912 158.254 63.7162 159.424 62.7052Z" fill="#263238"/>
<path d="M161.282 70.7232C161.749 71.6545 162.549 72.3752 163.524 72.741C164.805 73.2071 165.477 72.0743 165.147 70.8117C164.846 69.6671 163.819 68.0564 162.521 68.139C161.223 68.2216 160.716 69.5668 161.282 70.7232Z" fill="#FFB573"/>
<path d="M169.566 66.9709C169.625 67.3426 169.879 67.614 170.121 67.5609C170.362 67.5078 170.51 67.201 170.451 66.8293C170.392 66.4576 170.138 66.1803 169.89 66.2393C169.643 66.2983 169.501 66.5992 169.566 66.9709Z" fill="#263238"/>
<path d="M173.796 66.4045C173.855 66.7762 174.103 67.0476 174.351 66.9945C174.599 66.9414 174.74 66.6346 174.681 66.257C174.622 65.8794 174.369 65.6139 174.121 65.667C173.873 65.7201 173.731 66.0269 173.796 66.4045Z" fill="#263238"/>
<path d="M172.481 66.7703C173.122 67.8516 173.904 68.8435 174.805 69.7203C174.251 70.4224 173.076 70.3103 173.076 70.3103L172.481 66.7703Z" fill="#ED893E"/>
<path d="M171.719 71.4962C171.283 71.5079 170.849 71.4308 170.443 71.2695C170.037 71.1082 169.669 70.8662 169.359 70.5581C169.34 70.5373 169.329 70.5099 169.329 70.4814C169.329 70.4529 169.34 70.4255 169.359 70.4047C169.37 70.3942 169.382 70.3858 169.396 70.3801C169.41 70.3744 169.424 70.3715 169.439 70.3715C169.454 70.3715 169.469 70.3744 169.482 70.3801C169.496 70.3858 169.508 70.3942 169.519 70.4047C169.861 70.7359 170.274 70.9833 170.728 71.1277C171.181 71.272 171.662 71.3093 172.132 71.2366C172.148 71.2314 172.165 71.2297 172.181 71.2316C172.197 71.2336 172.213 71.2391 172.227 71.2478C172.241 71.2565 172.253 71.2682 172.262 71.2821C172.271 71.2959 172.277 71.3116 172.279 71.3279C172.281 71.3443 172.28 71.3609 172.275 71.3766C172.27 71.3923 172.261 71.4068 172.25 71.4189C172.239 71.431 172.225 71.4405 172.21 71.4468C172.195 71.453 172.178 71.4557 172.162 71.4549C172.016 71.4802 171.868 71.494 171.719 71.4962Z" fill="#263238"/>
<path d="M170.539 72.7234C170.187 72.4634 169.891 72.1341 169.669 71.7557C169.448 71.3773 169.307 70.9577 169.253 70.5227C169.252 70.4939 169.261 70.4656 169.28 70.4436C169.298 70.4216 169.325 70.4077 169.354 70.4047C169.368 70.4031 169.383 70.4044 169.397 70.4087C169.41 70.4129 169.423 70.4199 169.434 70.4293C169.445 70.4387 169.454 70.4503 169.461 70.4633C169.467 70.4763 169.471 70.4905 169.472 70.505C169.541 70.9759 169.716 71.4251 169.983 71.8185C170.251 72.212 170.605 72.5396 171.017 72.7765C171.03 72.7833 171.041 72.7925 171.05 72.8037C171.059 72.8148 171.066 72.8277 171.069 72.8415C171.073 72.8553 171.074 72.8697 171.073 72.8838C171.071 72.898 171.066 72.9117 171.059 72.924C171.051 72.9368 171.042 72.9481 171.03 72.9571C171.018 72.9661 171.005 72.9727 170.991 72.9765C170.976 72.9804 170.961 72.9814 170.947 72.9794C170.932 72.9775 170.918 72.9727 170.905 72.9653C170.779 72.8909 170.657 72.8101 170.539 72.7234Z" fill="#263238"/>
<path d="M168.026 65.785C167.991 65.7937 167.955 65.7937 167.92 65.785C167.893 65.7719 167.87 65.7536 167.851 65.7312C167.832 65.7088 167.817 65.6828 167.808 65.6547C167.8 65.6266 167.797 65.597 167.8 65.5676C167.802 65.5383 167.811 65.5099 167.825 65.4841C167.981 65.1679 168.212 64.8949 168.498 64.6891C168.784 64.4834 169.116 64.3511 169.466 64.3041C169.495 64.3017 169.524 64.3052 169.552 64.3143C169.58 64.3235 169.605 64.3381 169.627 64.3574C169.649 64.3766 169.667 64.4001 169.68 64.4264C169.693 64.4528 169.7 64.4814 169.702 64.5106C169.704 64.5397 169.701 64.5691 169.691 64.5969C169.682 64.6246 169.668 64.6503 169.648 64.6723C169.629 64.6943 169.606 64.7123 169.579 64.725C169.553 64.7378 169.524 64.7451 169.495 64.7466C169.224 64.7855 168.966 64.8888 168.744 65.0479C168.521 65.2071 168.34 65.4173 168.215 65.6611C168.199 65.6978 168.172 65.7291 168.139 65.7511C168.105 65.7731 168.066 65.7849 168.026 65.785Z" fill="#263238"/>
<path d="M175.366 64.7112C175.33 64.7122 175.294 64.7041 175.262 64.6876C175.23 64.6711 175.203 64.6467 175.183 64.6168C175.026 64.3797 174.817 64.1819 174.571 64.0386C174.326 63.8954 174.05 63.8106 173.767 63.7908C173.714 63.7822 173.667 63.7552 173.632 63.7147C173.598 63.6741 173.579 63.6227 173.579 63.5695C173.579 63.5163 173.598 63.4649 173.632 63.4244C173.667 63.3838 173.714 63.3569 173.767 63.3483C174.12 63.3681 174.464 63.4702 174.772 63.6464C175.079 63.8225 175.341 64.0679 175.537 64.3631C175.554 64.3866 175.566 64.4133 175.572 64.4415C175.579 64.4698 175.579 64.499 175.575 64.5276C175.57 64.5562 175.559 64.5834 175.543 64.6079C175.528 64.6323 175.507 64.6534 175.484 64.6699C175.45 64.6962 175.408 64.7107 175.366 64.7112Z" fill="#263238"/>
<path d="M154.545 86.2934C153.365 87.2551 152.12 88.323 150.934 89.3673C149.748 90.4116 148.538 91.4854 147.394 92.5828C145.116 94.6907 142.984 96.9496 141.01 99.3442L140.337 100.217L140.255 100.33C140.273 100.303 140.288 100.276 140.302 100.247C140.337 100.181 140.367 100.112 140.39 100.04C140.435 99.9215 140.459 99.7958 140.461 99.6687C140.461 99.4681 140.426 99.4681 140.461 99.5625C140.487 99.744 140.539 99.9208 140.615 100.088C140.852 100.645 141.149 101.175 141.5 101.669C141.906 102.265 142.343 102.84 142.809 103.392C143.759 104.572 144.821 105.699 145.936 106.814C147.052 107.929 148.232 109.056 149.358 110.088L149.435 110.153C149.932 110.6 150.242 111.218 150.303 111.883C150.363 112.549 150.17 113.213 149.762 113.742C149.354 114.271 148.761 114.626 148.102 114.736C147.442 114.847 146.766 114.704 146.208 114.336C143.248 112.46 140.482 110.296 137.948 107.876C137.305 107.233 136.673 106.56 136.054 105.817C135.384 105.011 134.791 104.143 134.284 103.226C133.977 102.663 133.726 102.07 133.535 101.456C133.278 100.631 133.186 99.7628 133.263 98.9017C133.312 98.3622 133.435 97.832 133.629 97.3264C133.731 97.0646 133.851 96.8102 133.989 96.5653L134.201 96.2172L134.296 96.0756L135.063 94.9369C137.107 92.0827 139.382 89.401 141.865 86.9188C143.045 85.6916 144.284 84.4939 145.541 83.3375C146.798 82.1811 148.043 81.066 149.429 79.9332C150.281 79.4286 151.286 79.2469 152.261 79.4212C153.236 79.5956 154.116 80.1144 154.74 80.8831C155.364 81.6519 155.691 82.6193 155.662 83.6091C155.633 84.599 155.249 85.5453 154.58 86.2757L154.545 86.2934Z" fill="#33357D"/>
<path opacity="0.2" d="M154.545 86.2934C153.365 87.2551 152.12 88.323 150.934 89.3673C149.748 90.4116 148.538 91.4854 147.394 92.5828C145.116 94.6907 142.984 96.9496 141.01 99.3442L140.337 100.217L140.255 100.33C140.273 100.303 140.288 100.276 140.302 100.247C140.337 100.181 140.367 100.112 140.39 100.04C140.435 99.9215 140.459 99.7958 140.461 99.6687C140.461 99.4681 140.426 99.4681 140.461 99.5625C140.487 99.744 140.539 99.9208 140.615 100.088C140.852 100.645 141.149 101.175 141.5 101.669C141.906 102.265 142.343 102.84 142.809 103.392C143.759 104.572 144.821 105.699 145.936 106.814C147.052 107.929 148.232 109.056 149.358 110.088L149.435 110.153C149.932 110.6 150.242 111.218 150.303 111.883C150.363 112.549 150.17 113.213 149.762 113.742C149.354 114.271 148.761 114.626 148.102 114.736C147.442 114.847 146.766 114.704 146.208 114.336C143.248 112.46 140.482 110.296 137.948 107.876C137.305 107.233 136.673 106.56 136.054 105.817C135.384 105.011 134.791 104.143 134.284 103.226C133.977 102.663 133.726 102.07 133.535 101.456C133.278 100.631 133.186 99.7628 133.263 98.9017C133.312 98.3622 133.435 97.832 133.629 97.3264C133.731 97.0646 133.851 96.8102 133.989 96.5653L134.201 96.2172L134.296 96.0756L135.063 94.9369C137.107 92.0827 139.382 89.401 141.865 86.9188C143.045 85.6916 144.284 84.4939 145.541 83.3375C146.798 82.1811 148.043 81.066 149.429 79.9332C150.281 79.4286 151.286 79.2469 152.261 79.4212C153.236 79.5956 154.116 80.1144 154.74 80.8831C155.364 81.6519 155.691 82.6193 155.662 83.6091C155.633 84.599 155.249 85.5453 154.58 86.2757L154.545 86.2934Z" fill="black"/>
<path d="M150.255 111.062L154.267 113.516L149.14 116.437C149.14 116.437 145.73 113.888 147.187 112.242L148.898 111.062C149.1 110.93 149.336 110.86 149.577 110.86C149.818 110.86 150.053 110.93 150.255 111.062Z" fill="#FFB573"/>
<path d="M154.486 118L152.279 119.298C152.126 119.389 151.957 119.449 151.781 119.473C151.605 119.497 151.425 119.486 151.254 119.44C151.082 119.394 150.921 119.313 150.781 119.204C150.641 119.094 150.525 118.958 150.438 118.802L149.14 116.442L154.267 113.522L155.093 116.472C155.175 116.758 155.16 117.063 155.05 117.34C154.94 117.616 154.742 117.848 154.486 118Z" fill="#FFB573"/>
<path d="M192.865 76.3343L198.299 75.2664C196.806 77.8978 199.001 80.4171 200.972 81.9982C201.91 82.7534 201.249 84.1045 199.792 84.3582L196.252 85.0545C191.98 85.9159 192.865 76.3343 192.865 76.3343Z" fill="#33357D"/>
<path d="M190.706 76.7531L203.167 74.34C205.112 73.9522 206.825 72.8096 207.931 71.1622C209.037 69.5148 209.445 67.4966 209.067 65.549C208.676 63.6048 207.533 61.8938 205.886 60.7887C204.239 59.6836 202.223 59.2739 200.276 59.649L187.821 62.0916C185.876 62.4837 184.165 63.6281 183.06 65.2756C181.955 66.9232 181.545 68.9405 181.921 70.8885C182.318 72.8257 183.463 74.5281 185.108 75.626C186.753 76.724 188.764 77.129 190.706 76.7531Z" fill="#33357D"/>
<path opacity="0.3" d="M190.706 76.7531L203.167 74.34C205.112 73.9522 206.825 72.8096 207.931 71.1622C209.037 69.5148 209.445 67.4966 209.067 65.549C208.676 63.6048 207.533 61.8938 205.886 60.7887C204.239 59.6836 202.223 59.2739 200.276 59.649L187.821 62.0916C185.876 62.4837 184.165 63.6281 183.06 65.2756C181.955 66.9232 181.545 68.9405 181.921 70.8885C182.318 72.8257 183.463 74.5281 185.108 75.626C186.753 76.724 188.764 77.129 190.706 76.7531Z" fill="white"/>
<path d="M224.619 79.296L203.379 79.0128C201.538 79.3727 196.889 55.5366 198.706 55.1767L218.259 46.9167L224.619 79.296Z" fill="#33357D"/>
<path d="M219.745 63.4309C221.515 72.3753 223.681 79.4789 224.619 79.296C225.557 79.1131 224.896 71.7086 223.138 62.776C221.38 53.8434 219.203 46.728 218.265 46.9109C217.326 47.0938 217.993 54.4806 219.745 63.4309Z" fill="#33357D"/>
<path opacity="0.3" d="M219.745 63.4309C221.515 72.3753 223.681 79.4789 224.619 79.296C225.557 79.1131 224.896 71.7086 223.138 62.776C221.38 53.8434 219.203 46.728 218.265 46.9109C217.326 47.0938 217.993 54.4806 219.745 63.4309Z" fill="black"/>
<path d="M227.74 62.3276C227.309 60.1387 222.43 59.2478 221.397 59.4543C220.365 59.6608 219.863 61.596 220.288 63.7849C220.713 65.9738 221.911 67.5786 222.949 67.378C223.988 67.1774 228.153 64.5106 227.74 62.3276Z" fill="#33357D"/>
<path d="M260.595 56.6487L232.959 61.1199L233.059 61.7431L260.696 57.2719L260.595 56.6487Z" fill="#33357D"/>
<path d="M241.685 44.7165L230.353 54.3779L230.763 54.8583L242.095 45.1969L241.685 44.7165Z" fill="#33357D"/>
<path d="M247.296 74.595L247.085 75.1903L251.242 76.6571L251.452 76.0618L247.296 74.595Z" fill="#33357D"/>
<path d="M232.237 69.4651L232.036 70.0636L242.552 73.5905L242.753 72.9919L232.237 69.4651Z" fill="#33357D"/>
</svg>
