<svg width="295" height="295" viewBox="0 0 295 295" fill="none" xmlns="http://www.w3.org/2000/svg">
<path d="M147.223 284.681C224.142 284.681 286.498 247.686 286.498 202.051C286.498 156.416 224.142 119.422 147.223 119.422C70.303 119.422 7.94733 156.416 7.94733 202.051C7.94733 247.686 70.303 284.681 147.223 284.681Z" fill="#F5F5F5"/>
<path d="M186.44 249.216C217.181 249.216 242.101 234.83 242.101 217.085C242.101 199.339 217.181 184.953 186.44 184.953C155.7 184.953 130.779 199.339 130.779 217.085C130.779 234.83 155.7 249.216 186.44 249.216Z" fill="#E0E0E0"/>
<path d="M103.297 233.799L89.2316 225.681L77.762 232.301L79.6736 226.784L68.2099 228.991L81.5852 221.25L38.8574 196.6C38.7095 196.55 38.5809 196.456 38.4898 196.329C38.3987 196.203 38.3497 196.051 38.3497 195.895C38.3497 195.739 38.3987 195.587 38.4898 195.46C38.5809 195.334 38.7095 195.239 38.8574 195.19L139.747 137.157C140.127 136.965 140.546 136.865 140.972 136.865C141.397 136.865 141.816 136.965 142.196 137.157L206.5 174.227C206.648 174.276 206.776 174.371 206.868 174.498C206.959 174.624 207.008 174.776 207.008 174.932C207.008 175.088 206.959 175.24 206.868 175.366C206.776 175.493 206.648 175.588 206.5 175.637L105.74 233.799C105.361 233.991 104.943 234.091 104.518 234.091C104.094 234.091 103.676 233.991 103.297 233.799Z" fill="#E0E0E0"/>
<path d="M117.345 68.5403V64.723C117.314 64.5049 117.227 64.2985 117.094 64.123C116.961 63.9475 116.786 63.8088 116.584 63.72L93.6507 50.4627C93.1022 50.1844 92.4958 50.0393 91.8807 50.0393C91.2656 50.0393 90.6592 50.1844 90.1107 50.4627L24.19 88.5295C23.9869 88.6194 23.8103 88.7599 23.677 88.9376C23.5438 89.1152 23.4583 89.3241 23.4289 89.5443V93.3616C23.4556 93.5855 23.5397 93.7988 23.6731 93.9807C23.8064 94.1627 23.9845 94.3071 24.19 94.4L47.1233 107.64C47.6715 107.919 48.278 108.064 48.8933 108.064C49.5085 108.064 50.1151 107.919 50.6633 107.64L116.584 69.5551C116.786 69.4648 116.962 69.3241 117.094 69.1464C117.227 68.9687 117.311 68.76 117.339 68.5403H117.345Z" fill="#F0F0F0"/>
<path d="M24.1894 90.565L47.1227 103.805C47.6709 104.084 48.2774 104.229 48.8927 104.229C49.5079 104.229 50.1145 104.084 50.6627 103.805L116.583 65.7378C117.557 65.1478 117.557 64.2628 116.583 63.7023L93.6501 50.4627C93.1016 50.1844 92.4952 50.0393 91.8801 50.0393C91.265 50.0393 90.6586 50.1844 90.1101 50.4627L24.1894 88.5295C23.2218 89.09 23.2218 89.9986 24.1894 90.565Z" fill="#FAFAFA"/>
<path d="M48.8874 104.229V108.047C48.271 108.057 47.6619 107.911 47.1174 107.622L24.19 94.4C23.9874 94.3102 23.8114 94.1696 23.679 93.9918C23.5467 93.814 23.4626 93.605 23.4348 93.3852V89.562C23.4473 89.3928 23.5043 89.23 23.6 89.09C23.3286 89.5856 23.5292 90.152 24.19 90.5414L47.1292 103.781C47.6664 104.081 48.2723 104.235 48.8874 104.229Z" fill="#E0E0E0"/>
<path d="M85.1429 20.3019L104.507 31.5591V68.6229L85.1429 57.3716V20.3019Z" fill="#E0E0E0"/>
<path d="M103.881 32.1728L85.1429 21.3522C83.9998 22.5742 82.4976 23.4007 80.8536 23.7122L99.4386 34.4915C99.4386 34.4915 100.636 34.2201 103.881 32.1728Z" fill="white"/>
<path d="M97.6391 34.4206C98.197 34.7027 98.8134 34.8496 99.4386 34.8496C100.064 34.8496 100.68 34.7027 101.238 34.4206L104.395 32.5975C105.392 32.0075 105.392 31.093 104.395 30.5207L85.9217 19.8535L85.1429 20.3019L103.309 30.857C103.44 30.9015 103.553 30.9858 103.633 31.0979C103.713 31.2101 103.756 31.3445 103.756 31.4824C103.756 31.6203 103.713 31.7548 103.633 31.8669C103.553 31.9791 103.44 32.0633 103.309 32.1078L100.359 33.7775C100.023 33.9475 99.6525 34.0361 99.2764 34.0361C98.9002 34.0361 98.5293 33.9475 98.1937 33.7775L80.0512 23.2401L79.1662 23.7534L97.6391 34.4206Z" fill="#FAFAFA"/>
<path d="M79.1662 23.7534V60.8172L97.6391 71.4844C98.197 71.7665 98.8134 71.9134 99.4386 71.9134C100.064 71.9134 100.68 71.7665 101.238 71.4844L104.395 69.6613C104.6 69.5699 104.777 69.4256 104.907 69.243C105.038 69.0605 105.118 68.8465 105.138 68.6229V31.5532C105.119 31.7778 105.039 31.9931 104.909 32.1767C104.778 32.3604 104.6 32.5057 104.395 32.5975L101.238 34.4206C100.68 34.7027 100.064 34.8496 99.4386 34.8496C98.8134 34.8496 98.197 34.7027 97.6391 34.4206L79.1662 23.7534Z" fill="#E0E0E0"/>
<path d="M99.4386 34.8513C100.065 34.8643 100.685 34.716 101.238 34.4206L104.395 32.5975C104.6 32.5057 104.778 32.3604 104.909 32.1767C105.039 31.9931 105.119 31.7778 105.138 31.5532V68.6229C105.118 68.8465 105.038 69.0605 104.907 69.243C104.777 69.4256 104.6 69.5699 104.395 69.6613L101.238 71.4844C100.684 71.7771 100.065 71.9253 99.4386 71.9151V34.8513Z" fill="#EBEBEB"/>
<path d="M77.2192 24.8744L96.5889 36.1316V73.1954L77.2192 61.9441V24.8744Z" fill="#EBEBEB"/>
<path d="M95.9635 36.7453L77.2192 25.9247C76.0777 27.1456 74.5777 27.972 72.9358 28.2847L91.5208 39.0581C91.5208 39.0581 92.7185 38.7749 95.9635 36.7453Z" fill="white"/>
<path d="M89.7154 38.9931C90.2744 39.2752 90.8918 39.4222 91.5179 39.4222C92.144 39.4222 92.7614 39.2752 93.3203 38.9931L96.4768 37.17C97.468 36.58 97.468 35.6655 96.4768 35.0932L78.0039 24.426L77.2192 24.8744L95.3853 35.4295C95.5158 35.4741 95.6291 35.5583 95.7094 35.6704C95.7896 35.7826 95.8327 35.917 95.8327 36.0549C95.8327 36.1928 95.7896 36.3273 95.7094 36.4394C95.6291 36.5516 95.5158 36.6358 95.3853 36.6803L92.4353 38.35C92.1006 38.5228 91.7294 38.613 91.3527 38.613C90.976 38.613 90.6047 38.5228 90.27 38.35L72.1334 27.8185L71.2484 28.3259L89.7154 38.9931Z" fill="#FAFAFA"/>
<path d="M71.2484 28.3201V65.3898L89.7154 76.0511C90.2744 76.3332 90.8918 76.4802 91.5179 76.4802C92.144 76.4802 92.7614 76.3332 93.3203 76.0511L96.4768 74.228C96.6822 74.1371 96.8595 73.9929 96.9902 73.8102C97.121 73.6276 97.2004 73.4133 97.2202 73.1896V36.1317C97.1998 36.3552 97.1202 36.5693 96.9895 36.7518C96.8588 36.9343 96.6819 37.0787 96.4768 37.1701L93.3203 38.9932C92.7622 39.278 92.1445 39.4266 91.5179 39.4266C90.8912 39.4266 90.2735 39.278 89.7154 38.9932L71.2484 28.3201Z" fill="#EBEBEB"/>
<path d="M91.5208 39.4238C92.1377 39.4318 92.7466 39.2836 93.2908 38.9931L96.4768 37.17C96.6819 37.0786 96.8588 36.9342 96.9895 36.7517C97.1202 36.5692 97.1998 36.3551 97.2202 36.1316V73.1954C97.2004 73.4191 97.121 73.6334 96.9903 73.8161C96.8595 73.9987 96.6822 74.1429 96.4768 74.2338L93.3203 76.0569C92.7761 76.3474 92.1672 76.4956 91.5503 76.4876L91.5208 39.4238Z" fill="#F0F0F0"/>
<path d="M70.7823 48.8167V50.6987L73.6438 52.156V50.1324L70.7823 48.8167Z" fill="#E0E0E0"/>
<path d="M73.2485 50.8049L69.4902 48.9346L65.2894 51.3595L70.151 54.0558L73.2485 50.8049Z" fill="white"/>
<path d="M67.5255 54.6989V70.4106C67.5414 70.7262 67.6327 71.0335 67.7918 71.3066C67.9509 71.5796 68.1732 71.8106 68.44 71.98L83.4437 80.6412C83.6704 80.7607 83.9196 80.831 84.1753 80.8477L70.151 54.9703C69.8971 54.9544 69.6496 54.884 69.4253 54.7638L68.4164 54.1738C67.9208 53.8965 67.5255 54.1266 67.5255 54.6989Z" fill="#EBEBEB"/>
<path d="M71.2189 54.7638L73.514 52.2327L75.5495 51.0527C75.7324 50.7577 75.9566 50.5335 75.8386 50.2916L89.7154 75.8917V75.9212C89.8393 76.169 89.8688 76.7236 89.5325 76.9124L85.2019 80.6235C84.8747 80.7919 84.5063 80.8636 84.1399 80.83L70.151 54.9703C70.5194 55.0047 70.8899 54.933 71.2189 54.7638Z" fill="#F0F0F0"/>
<path d="M75.5495 50.0202C76.0451 50.3093 75.9212 50.6102 75.5495 51.0527L71.2189 54.7638C70.9445 54.9023 70.6413 54.9744 70.3339 54.9744C70.0265 54.9744 69.7234 54.9023 69.4489 54.7638L65.6434 52.5631C65.1478 52.2799 65.0534 51.8669 65.4487 51.6427C65.7045 51.5353 65.9819 51.4894 66.2586 51.5089C66.5353 51.5284 66.8036 51.6126 67.0417 51.7548L70.0448 53.5248C70.1367 53.5697 70.2376 53.593 70.3398 53.593C70.4421 53.593 70.543 53.5697 70.6348 53.5248L73.3488 50.74C73.3836 50.7269 73.4135 50.7035 73.4346 50.6729C73.4558 50.6424 73.4671 50.6061 73.4671 50.5689C73.4671 50.5318 73.4558 50.4955 73.4346 50.4649C73.4135 50.4344 73.3836 50.411 73.3488 50.3978L70.3044 48.8343C69.8088 48.5452 69.7144 48.1322 70.1097 47.9139C70.3655 47.8065 70.6429 47.7607 70.9196 47.7801C71.1963 47.7996 71.4646 47.8838 71.7027 48.026L75.5495 50.0202Z" fill="#FAFAFA"/>
<path d="M48.439 33.9368L70.1982 46.5805V88.2168L48.439 75.579V33.9368Z" fill="#E0E0E0"/>
<path d="M69.4961 47.2708L48.439 35.1168C47.1569 36.4885 45.4701 37.4146 43.6246 37.76L64.5047 49.8609C64.5047 49.8609 65.8499 49.56 69.4961 47.2708Z" fill="white"/>
<path d="M62.481 49.796C63.1084 50.1133 63.8016 50.2786 64.5047 50.2786C65.2078 50.2786 65.901 50.1133 66.5284 49.796L70.0684 47.7487C71.1894 47.1056 71.1894 46.0613 70.0684 45.3887L49.3181 33.4353L48.439 33.9368L68.8471 45.7958C68.9936 45.845 69.1209 45.9389 69.2111 46.0644C69.3014 46.1898 69.3499 46.3404 69.3499 46.495C69.3499 46.6495 69.3014 46.8001 69.2111 46.9255C69.1209 47.051 68.9936 47.1449 68.8471 47.1941L65.5549 49.0762C65.1786 49.2684 64.7621 49.3685 64.3395 49.3685C63.917 49.3685 63.5004 49.2684 63.1241 49.0762L42.7219 37.2408L41.7307 37.8308L62.481 49.796Z" fill="#FAFAFA"/>
<path d="M41.7307 37.8131V79.4494L62.481 91.45C63.1084 91.7673 63.8016 91.9326 64.5047 91.9326C65.2078 91.9326 65.901 91.7673 66.5284 91.45L70.0684 89.4027C70.2998 89.2982 70.499 89.1337 70.6453 88.9262C70.7916 88.7187 70.8796 88.4758 70.9003 88.2227V46.61C70.8796 46.8631 70.7916 47.1059 70.6453 47.3135C70.499 47.521 70.2998 47.6855 70.0684 47.79L66.5284 49.8432C65.901 50.1605 65.2078 50.3259 64.5047 50.3259C63.8016 50.3259 63.1084 50.1605 62.481 49.8432L41.7307 37.8131Z" fill="#E0E0E0"/>
<path d="M64.5047 50.2798C65.2087 50.2934 65.9048 50.129 66.5284 49.8019L70.0684 47.7487C70.2998 47.6442 70.499 47.4797 70.6453 47.2722C70.7916 47.0647 70.8796 46.8218 70.9003 46.5687V88.205C70.8796 88.4581 70.7916 88.701 70.6453 88.9085C70.499 89.116 70.2998 89.2805 70.0684 89.385L66.5284 91.4323C65.9053 91.7612 65.2092 91.9276 64.5047 91.9161V50.2798Z" fill="#EBEBEB"/>
<path d="M39.5477 39.0757L61.301 51.7194V93.3557L39.5477 80.7179V39.0757Z" fill="#EBEBEB"/>
<path d="M60.5989 52.4097L39.53 40.2557C38.25 41.6281 36.5655 42.5562 34.7215 42.9048L55.6075 55.0057C55.6075 55.0057 56.9527 54.693 60.5989 52.4097Z" fill="white"/>
<path d="M53.5838 54.9349C54.2112 55.2522 54.9044 55.4176 55.6075 55.4176C56.3106 55.4176 57.0038 55.2522 57.6312 54.9349L61.1712 52.8876C62.2922 52.2445 62.2922 51.2002 61.1712 50.5276L40.4268 38.5742L39.5418 39.0757L59.9499 50.9347C60.0964 50.9839 60.2237 51.0778 60.3139 51.2033C60.4041 51.3287 60.4527 51.4794 60.4527 51.6339C60.4527 51.7884 60.4041 51.939 60.3139 52.0645C60.2237 52.1899 60.0964 52.2838 59.9499 52.333L56.64 54.2151C56.2633 54.4059 55.8469 54.5053 55.4246 54.5053C55.0023 54.5053 54.5859 54.4059 54.2092 54.2151L33.8306 42.3797L32.8335 42.9697L53.5838 54.9349Z" fill="#FAFAFA"/>
<path d="M32.8335 42.952V84.5883L53.5838 96.5712C54.2112 96.8885 54.9044 97.0539 55.6075 97.0539C56.3106 97.0539 57.0038 96.8885 57.6312 96.5712L61.1712 94.5239C61.4026 94.4194 61.6018 94.2549 61.7481 94.0474C61.8943 93.8399 61.9824 93.597 62.0031 93.3439V51.7194C61.9824 51.9725 61.8943 52.2154 61.7481 52.4229C61.6018 52.6304 61.4026 52.7949 61.1712 52.8994L57.6312 54.9467C57.0046 55.2668 56.3111 55.4337 55.6075 55.4337C54.9039 55.4337 54.2104 55.2668 53.5838 54.9467L32.8335 42.952Z" fill="#EBEBEB"/>
<path d="M55.6075 55.4187C56.3123 55.4328 57.009 55.2663 57.6312 54.9349L61.1712 52.8876C61.4026 52.7831 61.6017 52.6186 61.748 52.4111C61.8943 52.2036 61.9824 51.9607 62.0031 51.7076V93.3439C61.9824 93.597 61.8943 93.8399 61.748 94.0474C61.6017 94.2549 61.4026 94.4194 61.1712 94.5239L57.6312 96.5712C57.008 96.9001 56.312 97.0665 55.6075 97.055V55.4187Z" fill="#F0F0F0"/>
<path d="M50.0202 198.718L51.5129 197.856L50.4332 197.373C50.4332 197.373 49.56 197.597 49.56 197.65C49.5659 197.848 49.5856 198.045 49.619 198.24L50.0202 198.718Z" fill="#33357D"/>
<path opacity="0.5" d="M50.0202 198.718L51.5129 197.856L50.4332 197.373C50.4332 197.373 49.56 197.597 49.56 197.65C49.5659 197.848 49.5856 198.045 49.619 198.24L50.0202 198.718Z" fill="black"/>
<path d="M106.89 227.368C106.214 227.711 105.466 227.89 104.707 227.89C103.949 227.89 103.201 227.711 102.524 227.368L53.5012 199.048L126.88 156.68L128.596 155.689L177.614 184.009C178.794 184.705 178.794 185.838 177.614 186.529L106.89 227.368Z" fill="#33357D"/>
<path d="M88.5 173.902L71.39 183.744L60.3216 177.354L47.4478 184.794V194.069C47.4478 195.196 48.7104 196.794 49.1706 196.535C50.0187 196.74 50.8432 197.033 51.6309 197.408C52.9109 198.14 54.0993 199.021 55.1709 200.034L94.4472 177.36L88.5 173.902Z" fill="#33357D"/>
<path opacity="0.15" d="M88.5 173.902L71.39 183.744L60.3216 177.354L47.4478 184.794V194.069C47.4478 195.196 48.7104 196.794 49.1706 196.535C50.0187 196.74 50.8432 197.033 51.6309 197.408C52.9109 198.14 54.0993 199.021 55.1709 200.034L94.4472 177.36L88.5 173.902Z" fill="black"/>
<path opacity="0.4" d="M47.4478 194.069C47.4478 195.125 48.5511 196.594 49.0703 196.559H49.1175H49.1706C49.206 196.559 50.7282 195.591 50.8934 195.567L52.3743 190.676C52.3743 190.676 52.2858 184.959 52.3743 184.959C52.0902 184.135 51.7613 183.328 51.389 182.54L47.4478 184.818V194.069Z" fill="black"/>
<path d="M102.518 227.368L99.5684 225.651L55.1827 200.01C55.1507 199.432 54.9451 198.877 54.5927 198.417C54.0654 197.725 53.4055 197.146 52.6516 196.712C52.0193 196.322 51.2991 196.096 50.5571 196.057C50.0594 196.052 49.5739 196.212 49.1765 196.511C48.6148 195.38 48.3412 194.128 48.38 192.865H46.669C46.669 195.184 47.436 197.508 48.3741 198.045L49.2237 198.541C49.7016 198.818 50.0851 198.836 50.0851 198.576V198.122C50.0851 197.62 50.8462 197.644 51.7961 198.193C52.746 198.742 53.5012 199.585 53.5012 200.093V200.541C53.5012 200.806 54.1561 201.385 54.9585 201.845L97.8751 226.625L102.518 229.303C103.19 229.653 103.938 229.829 104.696 229.817V227.876C103.938 227.895 103.189 227.721 102.518 227.368Z" fill="#33357D"/>
<path opacity="0.3" d="M102.518 227.368L99.5684 225.651L55.1827 200.01C55.1507 199.432 54.9451 198.877 54.5927 198.417C54.0654 197.725 53.4055 197.146 52.6516 196.712C52.0193 196.322 51.2991 196.096 50.5571 196.057C50.0594 196.052 49.5739 196.212 49.1765 196.511C48.6148 195.38 48.3412 194.128 48.38 192.865H46.669C46.669 195.184 47.436 197.508 48.3741 198.045L49.2237 198.541C49.7016 198.818 50.0851 198.836 50.0851 198.576V198.122C50.0851 197.62 50.8462 197.644 51.7961 198.193C52.746 198.742 53.5012 199.585 53.5012 200.093V200.541C53.5012 200.806 54.1561 201.385 54.9585 201.845L97.8751 226.625L102.518 229.303C103.19 229.653 103.938 229.829 104.696 229.817V227.876C103.938 227.895 103.189 227.721 102.518 227.368Z" fill="black"/>
<path d="M178.51 185.26V187.231C178.49 187.496 178.4 187.751 178.248 187.97C178.097 188.189 177.89 188.363 177.649 188.476H177.614L111.51 226.631L106.873 229.309C106.2 229.658 105.452 229.834 104.695 229.823V227.882C105.456 227.9 106.208 227.721 106.878 227.362L109.828 225.657L177.59 186.529C177.846 186.424 178.068 186.25 178.231 186.025C178.394 185.801 178.49 185.536 178.51 185.26Z" fill="#33357D"/>
<path opacity="0.2" d="M178.51 185.26V187.231C178.49 187.496 178.4 187.751 178.248 187.97C178.097 188.189 177.89 188.363 177.649 188.476H177.614L111.51 226.631L106.873 229.309C106.2 229.658 105.452 229.834 104.695 229.823V227.882C105.456 227.9 106.208 227.721 106.878 227.362L109.828 225.657L177.59 186.529C177.846 186.424 178.068 186.25 178.231 186.025C178.394 185.801 178.49 185.536 178.51 185.26Z" fill="black"/>
<path d="M104.707 214.807V226.135C104.2 226.148 103.697 226.028 103.25 225.787L97.8752 222.69L56.9174 199.037V187.207L104.707 214.807Z" fill="#EBEBEB"/>
<path opacity="0.15" d="M79.709 206.954L91.1786 213.58C91.1786 213.58 89.9986 212.341 85.4438 209.745C81.0306 207.226 79.709 206.954 79.709 206.954Z" fill="black"/>
<path d="M176.41 174.835V183.561C176.382 184.065 176.236 184.556 175.984 184.993C175.732 185.431 175.381 185.803 174.959 186.08L111.51 222.69L106.141 225.787C105.696 226.028 105.196 226.148 104.69 226.135V216.005L176.41 174.835Z" fill="#F5F5F5"/>
<path d="M54.516 185.85V195.88C54.4656 195.844 54.4123 195.813 54.3567 195.786C53.7287 195.39 53.0094 195.162 52.2681 195.125C51.7721 195.119 51.2882 195.279 50.8934 195.579V183.779L54.516 185.85Z" fill="#37474F"/>
<path d="M56.9114 199.042C56.8816 198.464 56.6758 197.908 56.3214 197.449C56.144 197.204 55.9466 196.973 55.7314 196.759L55.5249 196.564L55.2594 196.334L55.0352 196.169C54.8809 196.051 54.7193 195.942 54.5514 195.845V185.85L56.9114 187.236V199.042Z" fill="#E0E0E0"/>
<path d="M126.88 142.868L53.5012 185.26V186.239C53.5012 186.788 52.7401 186.989 51.7961 186.446C50.8521 185.903 50.0851 185.219 50.0851 184.275L49.9907 183.342L124.755 140.184L125.056 140.007C125.136 140.146 125.181 140.302 125.186 140.461V140.916C125.186 141.441 125.941 142.314 126.88 142.868Z" fill="#33357D"/>
<path opacity="0.1" d="M126.88 142.868L53.5012 185.26V186.239C53.5012 186.788 52.7401 186.989 51.7961 186.446C50.8521 185.903 50.0851 185.219 50.0851 184.275L49.9907 183.342L124.755 140.184L125.056 140.007C125.136 140.146 125.181 140.302 125.186 140.461V140.916C125.186 141.441 125.941 142.314 126.88 142.868Z" fill="black"/>
<path d="M102.524 213.545L54.5868 185.85C53.9968 185.531 53.4068 185.26 53.1885 185.396L53.5012 185.225L126.879 142.851L127.741 142.361C128.213 142.084 129.245 142.237 130.054 142.703L177.59 170.18C178.77 170.882 178.77 172.015 177.59 172.705L106.89 213.545C106.214 213.888 105.466 214.067 104.707 214.067C103.949 214.067 103.201 213.888 102.524 213.545Z" fill="#33357D"/>
<path d="M125.08 139.989L124.779 140.166L49.9907 183.325C49.9529 183.247 49.8985 183.179 49.8314 183.124L49.5777 182.983L49.0408 182.67L48.38 182.31C48.2519 182.224 48.0981 182.185 47.9445 182.199C47.7909 182.213 47.6468 182.279 47.5363 182.387C47.5014 182.405 47.4712 182.432 47.4478 182.463C47.3592 182.557 47.2837 182.662 47.2236 182.776C47.1435 182.908 47.0782 183.049 47.0289 183.195C46.9699 183.348 46.9227 183.514 46.8755 183.685C46.8283 183.856 46.8047 184.05 46.7693 184.275C46.7465 184.389 46.7327 184.506 46.728 184.623C46.728 184.711 46.728 184.8 46.728 184.9C46.728 185.107 46.6985 185.325 46.6985 185.555V183.455C46.6985 182.275 47.6838 180.788 48.8874 180.092L119.617 139.252C120.826 138.556 122.567 138.438 123.511 138.975L124.401 139.494C124.46 139.535 124.614 139.618 124.779 139.712C124.904 139.773 125.009 139.869 125.08 139.989Z" fill="#33357D"/>
<path d="M102.536 213.58L99.5861 211.863L65.49 192.157L54.5868 185.85C53.8139 185.396 53.1826 185.26 53.1413 185.466C53.1385 185.476 53.1385 185.486 53.1413 185.496V185.992C53.1413 186.534 52.3743 186.534 51.4303 185.992C50.4863 185.449 50.1028 184.812 50.091 184.275V183.738C50.0997 183.619 50.0814 183.5 50.0374 183.39C49.9935 183.28 49.9251 183.181 49.8373 183.101L49.5836 182.959L49.0467 182.646L48.38 182.31C48.2519 182.224 48.0981 182.185 47.9445 182.199C47.7909 182.213 47.6468 182.279 47.5363 182.387C47.5014 182.405 47.4712 182.432 47.4478 182.463C47.3889 182.523 47.3392 182.59 47.3003 182.664C47.2694 182.697 47.2436 182.735 47.2236 182.776C47.1435 182.908 47.0782 183.049 47.0289 183.195C46.9699 183.348 46.9227 183.514 46.8755 183.685C46.8283 183.856 46.8047 184.05 46.7693 184.275C46.7465 184.389 46.7327 184.506 46.728 184.623C46.728 184.711 46.728 184.8 46.728 184.9C46.728 185.107 46.6985 185.325 46.6985 185.555V192.918H48.38V185.502C48.38 185.325 48.38 185.148 48.38 184.983L48.4213 184.558C48.4168 184.544 48.4168 184.53 48.4213 184.517C48.5688 185.856 49.8491 187.048 50.9583 187.679C51.5741 188.065 52.2795 188.284 53.0056 188.316C53.5581 188.322 54.0935 188.125 54.5101 187.762L54.6635 187.844L54.9585 188.021L97.8751 212.801L102.518 215.48C102.518 215.48 102.518 215.48 102.548 215.48C103.212 215.818 103.95 215.988 104.695 215.975V214.034C103.949 214.065 103.207 213.909 102.536 213.58Z" fill="#33357D"/>
<path opacity="0.3" d="M102.536 213.58L99.5861 211.863L65.49 192.157L54.5868 185.85C53.8139 185.396 53.1826 185.26 53.1413 185.466C53.1385 185.476 53.1385 185.486 53.1413 185.496V185.992C53.1413 186.534 52.3743 186.534 51.4303 185.992C50.4863 185.449 50.1028 184.812 50.091 184.275V183.738C50.0997 183.619 50.0814 183.5 50.0374 183.39C49.9935 183.28 49.9251 183.181 49.8373 183.101L49.5836 182.959L49.0467 182.646L48.38 182.31C48.2519 182.224 48.0981 182.185 47.9445 182.199C47.7909 182.213 47.6468 182.279 47.5363 182.387C47.5014 182.405 47.4712 182.432 47.4478 182.463C47.3889 182.523 47.3392 182.59 47.3003 182.664C47.2694 182.697 47.2436 182.735 47.2236 182.776C47.1435 182.908 47.0782 183.049 47.0289 183.195C46.9699 183.348 46.9227 183.514 46.8755 183.685C46.8283 183.856 46.8047 184.05 46.7693 184.275C46.7465 184.389 46.7327 184.506 46.728 184.623C46.728 184.711 46.728 184.8 46.728 184.9C46.728 185.107 46.6985 185.325 46.6985 185.555V192.918H48.38V185.502C48.38 185.325 48.38 185.148 48.38 184.983L48.4213 184.558C48.4168 184.544 48.4168 184.53 48.4213 184.517C48.5688 185.856 49.8491 187.048 50.9583 187.679C51.5741 188.065 52.2795 188.284 53.0056 188.316C53.5581 188.322 54.0935 188.125 54.5101 187.762L54.6635 187.844L54.9585 188.021L97.8751 212.801L102.518 215.48C102.518 215.48 102.518 215.48 102.548 215.48C103.212 215.818 103.95 215.988 104.695 215.975V214.034C103.949 214.065 103.207 213.909 102.536 213.58Z" fill="black"/>
<path opacity="0.1" d="M130.054 142.721C129.245 142.255 128.213 142.101 127.741 142.379L126.885 142.868C125.941 142.314 125.186 141.441 125.186 140.898V140.42C125.181 140.26 125.136 140.104 125.056 139.966C124.999 139.842 124.907 139.737 124.791 139.665C124.626 139.57 124.472 139.488 124.413 139.446L123.522 138.927C122.578 138.39 120.838 138.508 119.628 139.205L48.8579 180.038L48.7812 180.092L98.7543 208.943C99.205 209.171 99.7032 209.29 100.209 209.29C100.714 209.29 101.212 209.171 101.663 208.943L172.87 167.436L130.054 142.721Z" fill="black"/>
<path d="M178.51 171.419V173.395C178.489 173.66 178.398 173.915 178.247 174.133C178.096 174.352 177.889 174.527 177.649 174.64H177.614L111.51 212.807L106.873 215.486C106.2 215.832 105.452 216.006 104.695 215.993V214.052C105.456 214.07 106.208 213.891 106.878 213.533L109.828 211.828L177.59 172.705C177.849 172.599 178.073 172.422 178.236 172.195C178.399 171.967 178.494 171.698 178.51 171.419Z" fill="#33357D"/>
<path opacity="0.2" d="M178.51 171.419V173.395C178.489 173.66 178.398 173.915 178.247 174.133C178.096 174.352 177.889 174.527 177.649 174.64H177.614L111.51 212.807L106.873 215.486C106.2 215.832 105.452 216.006 104.695 215.993V214.052C105.456 214.07 106.208 213.891 106.878 213.533L109.828 211.828L177.59 172.705C177.849 172.599 178.073 172.422 178.236 172.195C178.399 171.967 178.494 171.698 178.51 171.419Z" fill="black"/>
<path d="M94.7541 204.777L96.6479 203.686C96.1379 203.51 95.5906 203.471 95.0608 203.574C94.5594 203.81 94.7541 204.777 94.7541 204.777Z" fill="black"/>
<path d="M93.456 203.585C93.6699 203.352 93.9302 203.165 94.2202 203.037C94.5102 202.91 94.8236 202.844 95.1404 202.844C95.4573 202.844 95.7707 202.91 96.0607 203.037C96.3507 203.165 96.611 203.352 96.8249 203.585C98.6657 205.273 98.7601 206.948 99.5212 206.919C100.282 206.889 100.3 193.432 100.3 193.432L93.0489 200.175L93.456 203.585Z" fill="black"/>
<path d="M169.442 154.627L169.56 154.562L168.38 153.89L118.342 124.98L45.43 172.186C44.25 172.882 44.0081 173.885 44.9521 174.428L46.6572 175.407L93.4324 202.423L93.7628 202.187L169.442 154.627Z" fill="#455A64"/>
<path d="M99.71 187.059L96.0874 186.31V200.818C98.2704 201.745 99.6628 202.618 99.8929 204.447L99.71 187.059Z" fill="#33357D"/>
<path d="M94.459 201.007L48.1263 174.256C47.7023 173.979 47.3494 173.606 47.0963 173.168C46.8431 172.729 46.6967 172.237 46.669 171.731V157.436L93.456 184.67C93.456 184.67 94.0106 186.694 95.6685 187.331C97.3264 187.968 96.0638 188.611 96.0638 188.611V200.806C94.6301 200.647 94.459 201.007 94.459 201.007Z" fill="#EBEBEB"/>
<path d="M98.7365 186.564C98.2527 186.287 97.8751 186.269 97.8751 186.529V186.983C97.8751 187.484 97.114 187.461 96.1641 186.912C95.2142 186.363 94.4472 185.52 94.4472 185.018V184.564C94.4472 184.298 93.8041 183.72 93.0017 183.26L168.392 140.066L169.572 140.739C169.73 140.912 169.829 141.131 169.855 141.364V141.818C169.855 142.326 170.622 143.169 171.566 143.718C172.51 144.267 173.277 144.308 173.277 143.783V143.335C173.277 143.069 173.655 143.087 174.133 143.364L98.7365 186.564Z" fill="#37474F"/>
<path d="M169.442 140.809L169.56 140.739L168.38 140.066L118.342 111.156L45.43 153.282C44.25 153.978 44.0081 154.981 44.9521 155.524L46.6572 156.509L93.456 184.67L169.442 140.809Z" fill="#455A64"/>
<path d="M173.283 142.892L97.94 186.381L100.577 188.446L175.661 145.093C175.476 144.536 175.126 144.048 174.658 143.694L173.283 142.892Z" fill="#455A64"/>
<path d="M175.378 164.569C175.426 164.543 175.472 164.511 175.513 164.474C175.548 164.456 175.578 164.429 175.602 164.398C175.661 164.338 175.71 164.271 175.749 164.197C175.78 164.163 175.806 164.126 175.826 164.085C175.906 163.953 175.971 163.812 176.021 163.666C176.08 163.513 176.127 163.347 176.174 163.176C176.221 163.005 176.245 162.81 176.28 162.586C176.303 162.472 176.317 162.355 176.322 162.238C176.322 162.15 176.322 162.061 176.322 161.961C176.322 161.754 176.351 161.536 176.351 161.306V148.886C176.36 147.589 176.121 146.301 175.649 145.093L100.589 188.446L100.271 207.916L175.354 164.61L175.378 164.569Z" fill="#455A64"/>
<path opacity="0.1" d="M100.589 188.446C100.589 188.446 159.725 160.769 165.106 158.232C168.646 156.556 170.416 160.073 169.56 163.713C168.823 166.893 165.69 170.168 165.69 170.168L175.354 164.61C175.403 164.584 175.448 164.552 175.49 164.516C175.524 164.497 175.555 164.471 175.578 164.439C175.637 164.38 175.687 164.312 175.726 164.238C175.756 164.205 175.782 164.167 175.802 164.126C175.882 163.994 175.948 163.854 175.997 163.707C176.056 163.554 176.103 163.389 176.15 163.218C176.198 163.046 176.221 162.852 176.257 162.628C176.279 162.513 176.293 162.396 176.298 162.279C176.298 162.191 176.298 162.102 176.298 162.002C176.298 161.796 176.327 161.577 176.327 161.347V148.886C176.336 147.589 176.098 146.301 175.625 145.093L100.589 188.446Z" fill="black"/>
<path d="M101.285 192.24H99.6038C99.641 190.968 99.3612 189.707 98.7896 188.57C98.3922 188.87 97.9068 189.029 97.409 189.024C96.6687 188.986 95.9502 188.761 95.3204 188.369C94.5642 187.939 93.9038 187.359 93.3793 186.664C93.3431 186.615 93.3097 186.564 93.279 186.511C92.9771 186.089 92.8012 185.589 92.7716 185.071L48.38 159.453L46.8755 158.574L44.9521 157.465C44.785 157.389 44.6418 157.268 44.5378 157.116C44.4339 156.964 44.3732 156.787 44.3621 156.604V154.633C44.3705 154.821 44.4298 155.003 44.5337 155.16C44.6377 155.317 44.7823 155.443 44.9521 155.524L50.0497 158.474L92.9663 183.254C93.7628 183.714 94.4177 184.292 94.4177 184.552V185.006C94.4568 185.31 94.5959 185.593 94.813 185.809C95.1927 186.258 95.6529 186.632 96.17 186.912C97.1199 187.461 97.8869 187.502 97.8869 186.983V186.529C97.8869 186.269 98.2645 186.281 98.7424 186.558L99.592 187.054C100.518 187.62 101.285 189.921 101.285 192.24Z" fill="#37474F"/>
<path d="M99.6038 192.24V204.689C99.6038 204.866 99.6038 205.037 99.6038 205.208L99.5625 205.627C99.5654 205.64 99.5654 205.654 99.5625 205.668C99.4091 204.335 98.1347 203.143 97.0255 202.512C96.4081 202.124 95.7007 201.902 94.9723 201.868C94.42 201.864 93.8849 202.061 93.4678 202.423L93.3144 202.34L93.0253 202.163L50.1087 177.383L47.6425 175.962C47.4183 175.832 47.1705 175.696 46.9404 175.554L44.8636 174.374C44.7252 174.289 44.6102 174.17 44.5288 174.029C44.4475 173.888 44.4024 173.729 44.3975 173.566V175.531C44.4041 175.683 44.4465 175.831 44.5214 175.963C44.5962 176.095 44.7014 176.208 44.8282 176.292C45.0701 176.439 45.3297 176.581 45.5952 176.74L46.0731 177.018L46.8932 177.496C47.082 177.608 47.2472 177.708 47.4065 177.791L47.7664 178.003L48.3977 178.369L82.4938 198.045L93.3734 204.329C94.1463 204.783 94.7776 204.919 94.8189 204.706C94.8189 204.671 94.8189 204.636 94.8189 204.624V204.187C94.8189 203.638 95.58 203.638 96.524 204.187C97.468 204.736 97.8515 205.367 97.8692 205.898V206.435C97.8597 206.554 97.8771 206.673 97.92 206.785C97.9628 206.896 98.0302 206.996 98.117 207.078L98.3707 207.22C98.5241 207.302 98.707 207.414 98.9076 207.532L99.5743 207.916C99.7037 208.001 99.8582 208.04 100.013 208.026C100.167 208.012 100.312 207.946 100.424 207.839C100.455 207.821 100.483 207.797 100.507 207.768C100.566 207.706 100.617 207.637 100.66 207.562C100.687 207.531 100.711 207.497 100.731 207.462C100.811 207.33 100.876 207.189 100.925 207.043C100.986 206.883 101.037 206.719 101.079 206.553C101.12 206.37 101.156 206.181 101.185 205.963C101.211 205.851 101.225 205.736 101.226 205.621C101.226 205.526 101.226 205.444 101.226 205.344C101.226 205.131 101.226 204.913 101.226 204.689V192.24H99.6038Z" fill="#37474F"/>
<path opacity="0.1" d="M175.673 145.087L104.312 186.292L50.3683 155.17C49.56 154.71 49.56 153.955 50.3683 153.488L120.985 112.69L168.386 140.066L169.566 140.744C169.718 140.908 169.817 141.114 169.849 141.334V141.789C169.849 142.296 170.616 143.146 171.554 143.689C171.603 143.719 171.654 143.744 171.708 143.765L173.277 142.857L174.026 143.287L174.127 143.335L174.681 143.653C175.149 144.02 175.494 144.52 175.673 145.087Z" fill="black"/>
<path d="M54.3862 155.459L56.5338 154.315L54.575 153.843C54.3898 154.064 54.2733 154.336 54.2398 154.623C54.2062 154.91 54.2571 155.2 54.3862 155.459Z" fill="#33357D"/>
<path opacity="0.5" d="M54.3862 155.459L56.5338 154.315L54.575 153.843C54.3898 154.064 54.2733 154.336 54.2398 154.623C54.2062 154.91 54.2571 155.2 54.3862 155.459Z" fill="black"/>
<path d="M111.262 184.08C110.586 184.423 109.838 184.602 109.079 184.602C108.321 184.602 107.573 184.423 106.896 184.08L57.879 155.76L131.257 114.077L132.974 113.085L181.991 140.703C183.171 141.399 183.171 142.532 181.991 143.223L111.262 184.08Z" fill="#33357D"/>
<path d="M92.8601 131.328L75.7501 141.169L64.6876 134.78L51.8256 142.19V150.804C51.8256 151.931 53.0882 153.53 53.5425 153.27C54.3906 153.475 55.2151 153.768 56.0028 154.143C57.2833 154.874 58.4718 155.756 59.5428 156.769L98.8191 134.78L92.8601 131.328Z" fill="#33357D"/>
<path opacity="0.15" d="M92.8601 131.328L75.7501 141.169L64.6876 134.78L51.8256 142.19V150.804C51.8256 151.931 53.0882 153.53 53.5425 153.27C54.3906 153.475 55.2151 153.768 56.0028 154.143C57.2833 154.874 58.4718 155.756 59.5428 156.769L98.8191 134.78L92.8601 131.328Z" fill="black"/>
<path d="M58.8879 143.246V152.574C58.8406 152.54 58.7913 152.508 58.7404 152.48C58.1064 152.088 57.384 151.863 56.64 151.825C56.1564 151.775 55.6703 151.89 55.2594 152.149V141.157L58.8879 143.246Z" fill="#37474F"/>
<path d="M61.2951 155.76C61.2589 155.183 61.0537 154.629 60.7051 154.167C60.5279 153.921 60.3305 153.69 60.1151 153.477L59.9086 153.282L59.6372 153.052L59.413 152.887C59.2573 152.771 59.0958 152.662 58.9292 152.562V143.293L61.3246 144.68V144.633L61.2951 155.76Z" fill="#E0E0E0"/>
<path opacity="0.4" d="M51.8256 150.804C51.8256 151.931 53.0882 153.53 53.5425 153.27L55.2594 152.149V145.069L53.5366 142.119L52.5985 141.789L51.8197 142.237L51.8256 150.804Z" fill="black"/>
<path d="M109.079 172.227V182.847C108.574 182.861 108.074 182.743 107.628 182.505L102.247 179.401L61.2892 155.76V144.633L109.079 172.227Z" fill="#EBEBEB"/>
<path opacity="0.15" d="M64.3867 151.76L75.8504 158.38C75.8504 158.38 74.6704 157.141 70.1215 154.55C65.7024 152.031 64.3867 151.76 64.3867 151.76Z" fill="black"/>
<path d="M180.764 132.26V140.296C180.737 140.801 180.59 141.292 180.337 141.73C180.084 142.168 179.731 142.54 179.307 142.815L115.906 179.395L110.537 182.499C110.089 182.738 109.587 182.856 109.079 182.841V173.46L180.764 132.26Z" fill="#F5F5F5"/>
<path d="M131.257 100.3L57.879 142.662V143.647C57.879 144.196 57.112 144.397 56.1739 143.848C55.2358 143.299 54.457 142.621 54.457 141.683L54.3685 140.75L129.133 97.5861L129.434 97.4091C129.511 97.5486 129.553 97.7043 129.558 97.8634V98.3177C129.558 98.8664 130.319 99.7396 131.257 100.3Z" fill="#33357D"/>
<path opacity="0.1" d="M131.257 100.3L57.879 142.662V143.647C57.879 144.196 57.112 144.397 56.1739 143.848C55.2358 143.299 54.457 142.621 54.457 141.683L54.3685 140.75L129.133 97.5861L129.434 97.4091C129.511 97.5486 129.553 97.7043 129.558 97.8634V98.3177C129.558 98.8664 130.319 99.7396 131.257 100.3Z" fill="black"/>
<path d="M106.896 170.964L58.9646 143.293C58.3746 142.975 57.7846 142.703 57.5663 142.839L57.879 142.662L131.257 100.3L132.113 99.8045C132.591 99.5331 133.623 99.6865 134.426 100.147L181.991 127.611C183.171 128.307 183.171 129.44 181.991 130.13L111.262 170.964C110.586 171.307 109.838 171.486 109.079 171.486C108.321 171.486 107.573 171.307 106.896 170.964Z" fill="#33357D"/>
<path d="M133.305 112.1L159.807 127.44C160.928 128.089 160.928 129.145 159.807 129.8L156.238 131.859C155.606 132.179 154.908 132.346 154.199 132.346C153.491 132.346 152.793 132.179 152.161 131.859L125.67 116.531C124.543 115.882 124.543 114.826 125.67 114.171L129.21 112.112C129.843 111.786 130.544 111.615 131.256 111.613C131.968 111.611 132.67 111.778 133.305 112.1Z" fill="white"/>
<path d="M105.085 166.05C105.002 166.051 104.921 166.031 104.849 165.991L68.8589 145.264C68.7865 145.223 68.7264 145.163 68.6845 145.091C68.6427 145.019 68.6207 144.937 68.6207 144.854C68.6207 144.771 68.6427 144.689 68.6845 144.617C68.7264 144.545 68.7865 144.485 68.8589 144.444C69.192 144.25 69.4684 143.973 69.6606 143.639C69.8528 143.305 69.9539 142.926 69.9539 142.541C69.9539 142.156 69.8528 141.777 69.6606 141.443C69.4684 141.109 69.192 140.832 68.8589 140.638C68.7866 140.598 68.7265 140.539 68.6849 140.467C68.6434 140.396 68.622 140.314 68.6229 140.231C68.6226 140.149 68.6443 140.067 68.6858 139.996C68.7272 139.924 68.787 139.865 68.8589 139.824L128.968 105.12C129.04 105.079 129.121 105.058 129.204 105.058C129.287 105.058 129.368 105.079 129.44 105.12C130.585 105.78 131.883 106.127 133.204 106.127C134.526 106.127 135.824 105.78 136.968 105.12C137.04 105.079 137.122 105.058 137.204 105.058C137.287 105.058 137.369 105.079 137.44 105.12L173.389 125.877C173.46 125.919 173.519 125.978 173.56 126.049C173.601 126.121 173.624 126.201 173.625 126.284C173.625 126.366 173.603 126.447 173.562 126.519C173.52 126.59 173.461 126.649 173.389 126.691C173.056 126.884 172.78 127.162 172.588 127.496C172.395 127.83 172.294 128.208 172.294 128.593C172.294 128.979 172.395 129.357 172.588 129.691C172.78 130.025 173.056 130.303 173.389 130.496C173.461 130.537 173.52 130.597 173.562 130.668C173.603 130.74 173.625 130.821 173.625 130.903C173.624 130.986 173.601 131.066 173.56 131.137C173.519 131.209 173.46 131.268 173.389 131.31L113.31 165.985C113.238 166.026 113.156 166.047 113.073 166.047C112.991 166.047 112.909 166.026 112.838 165.985C111.694 165.327 110.398 164.98 109.079 164.98C107.76 164.98 106.464 165.327 105.321 165.985C105.249 166.026 105.168 166.049 105.085 166.05ZM69.9209 144.81L105.091 165.053C106.319 164.399 107.688 164.057 109.079 164.057C110.47 164.057 111.84 164.399 113.068 165.053L172.28 130.85C171.978 130.557 171.738 130.206 171.574 129.819C171.41 129.431 171.325 129.014 171.325 128.593C171.325 128.173 171.41 127.756 171.574 127.368C171.738 126.981 171.978 126.63 172.28 126.337L137.175 106.07C135.944 106.724 134.572 107.066 133.178 107.066C131.784 107.066 130.411 106.724 129.181 106.07L69.9209 140.29C70.223 140.583 70.4631 140.934 70.6271 141.322C70.7911 141.709 70.8756 142.126 70.8756 142.547C70.8756 142.968 70.7911 143.384 70.6271 143.772C70.4631 144.16 70.223 144.511 69.9209 144.804V144.81Z" fill="white"/>
<path d="M129.434 97.409L129.133 97.586L54.3685 140.75C54.3298 140.67 54.2733 140.599 54.2033 140.544L53.9555 140.402L53.4186 140.09C53.2121 139.978 52.9879 139.842 52.7519 139.706C52.6225 139.621 52.468 139.582 52.3137 139.596C52.1594 139.61 52.0143 139.676 51.9023 139.783C51.8694 139.802 51.8411 139.828 51.8197 139.86C51.7311 139.951 51.6557 140.054 51.5955 140.166C51.5142 140.3 51.4488 140.442 51.4008 140.591C51.3391 140.749 51.2879 140.91 51.2474 141.075C51.2061 141.258 51.1707 141.447 51.1412 141.665C51.1155 141.777 51.1017 141.892 51.0999 142.007C51.0999 142.102 51.0999 142.184 51.0999 142.284C51.0999 142.497 51.0999 142.715 51.0999 142.939V140.839C51.0999 139.659 52.0852 138.178 53.2829 137.482L124.018 96.6361C125.198 95.9399 126.968 95.8219 127.906 96.3588L128.797 96.8839H128.832C128.891 96.9252 129.045 97.0078 129.21 97.1022C129.311 97.1823 129.389 97.2884 129.434 97.409Z" fill="#33357D"/>
<path d="M106.896 184.08L103.946 182.363L59.59 156.763C59.5572 156.187 59.3516 155.634 59 155.176C58.4756 154.482 57.8151 153.901 57.0589 153.471C56.4155 153.071 55.68 152.843 54.9231 152.81C54.4252 152.804 53.9395 152.964 53.5425 153.264C52.9709 152.127 52.6911 150.866 52.7283 149.594H51.0468C51.0468 151.913 51.8138 154.238 52.7519 154.775L53.6015 155.27C54.0794 155.548 54.457 155.565 54.457 155.306V154.851C54.457 154.35 55.224 154.373 56.1739 154.922C57.1238 155.471 57.879 156.35 57.879 156.822V157.276C57.879 157.542 58.5339 158.12 59.3304 158.58L102.247 183.36L106.896 186.045C107.568 186.393 108.316 186.57 109.073 186.558V184.617C108.313 184.629 107.563 184.444 106.896 184.08Z" fill="#33357D"/>
<path opacity="0.3" d="M106.896 184.08L103.946 182.363L59.59 156.763C59.5572 156.187 59.3516 155.634 59 155.176C58.4756 154.482 57.8151 153.901 57.0589 153.471C56.4155 153.071 55.68 152.843 54.9231 152.81C54.4252 152.804 53.9395 152.964 53.5425 153.264C52.9709 152.127 52.6911 150.866 52.7283 149.594H51.0468C51.0468 151.913 51.8138 154.238 52.7519 154.775L53.6015 155.27C54.0794 155.548 54.457 155.565 54.457 155.306V154.851C54.457 154.35 55.224 154.373 56.1739 154.922C57.1238 155.471 57.879 156.35 57.879 156.822V157.276C57.879 157.542 58.5339 158.12 59.3304 158.58L102.247 183.36L106.896 186.045C107.568 186.393 108.316 186.57 109.073 186.558V184.617C108.313 184.629 107.563 184.444 106.896 184.08Z" fill="black"/>
<path d="M106.914 170.976L103.964 169.265L69.8678 149.595L58.9646 143.293C58.1917 142.839 57.5604 142.703 57.5191 142.916V143.411C57.5191 143.96 56.758 143.96 55.814 143.411C54.87 142.863 54.4865 142.231 54.4688 141.7V141.163C54.4789 141.044 54.4612 140.924 54.4172 140.812C54.3732 140.701 54.304 140.601 54.2151 140.52L53.9673 140.379C53.8139 140.296 53.631 140.184 53.4304 140.066C53.2298 139.948 52.9997 139.818 52.7637 139.683C52.6343 139.597 52.4798 139.558 52.3255 139.572C52.1712 139.586 52.0261 139.652 51.9141 139.759C51.8812 139.778 51.8529 139.805 51.8315 139.836C51.7708 139.895 51.7191 139.963 51.6781 140.037C51.6499 140.069 51.626 140.104 51.6073 140.143C51.526 140.276 51.4606 140.419 51.4126 140.568C51.3509 140.725 51.2997 140.887 51.2592 141.051C51.2179 141.234 51.1825 141.423 51.153 141.641C51.1273 141.754 51.1134 141.868 51.1117 141.984C51.1117 142.078 51.1117 142.161 51.1117 142.261C51.1117 142.473 51.1117 142.692 51.1117 142.916V149.595H52.7932V142.922C52.7932 142.751 52.7932 142.574 52.7932 142.402L52.8345 141.984C52.8316 141.97 52.8316 141.956 52.8345 141.942C52.9879 143.276 54.2623 144.473 55.3715 145.099C55.978 145.476 56.6702 145.693 57.3834 145.73C57.9357 145.735 58.4708 145.538 58.8879 145.175L59.0354 145.258L59.3304 145.435L102.247 170.215L106.896 172.894H106.932C107.595 173.23 108.33 173.4 109.073 173.389V171.448C108.325 171.472 107.583 171.31 106.914 170.976Z" fill="#33357D"/>
<path opacity="0.3" d="M106.914 170.976L103.964 169.265L69.8678 149.595L58.9646 143.293C58.1917 142.839 57.5604 142.703 57.5191 142.916V143.411C57.5191 143.96 56.758 143.96 55.814 143.411C54.87 142.863 54.4865 142.231 54.4688 141.7V141.163C54.4789 141.044 54.4612 140.924 54.4172 140.812C54.3732 140.701 54.304 140.601 54.2151 140.52L53.9673 140.379C53.8139 140.296 53.631 140.184 53.4304 140.066C53.2298 139.948 52.9997 139.818 52.7637 139.683C52.6343 139.597 52.4798 139.558 52.3255 139.572C52.1712 139.586 52.0261 139.652 51.9141 139.759C51.8812 139.778 51.8529 139.805 51.8315 139.836C51.7708 139.895 51.7191 139.963 51.6781 140.037C51.6499 140.069 51.626 140.104 51.6073 140.143C51.526 140.276 51.4606 140.419 51.4126 140.568C51.3509 140.725 51.2997 140.887 51.2592 141.051C51.2179 141.234 51.1825 141.423 51.153 141.641C51.1273 141.754 51.1134 141.868 51.1117 141.984C51.1117 142.078 51.1117 142.161 51.1117 142.261C51.1117 142.473 51.1117 142.692 51.1117 142.916V149.595H52.7932V142.922C52.7932 142.751 52.7932 142.574 52.7932 142.402L52.8345 141.984C52.8316 141.97 52.8316 141.956 52.8345 141.942C52.9879 143.276 54.2623 144.473 55.3715 145.099C55.978 145.476 56.6702 145.693 57.3834 145.73C57.9357 145.735 58.4708 145.538 58.8879 145.175L59.0354 145.258L59.3304 145.435L102.247 170.215L106.896 172.894H106.932C107.595 173.23 108.33 173.4 109.073 173.389V171.448C108.325 171.472 107.583 171.31 106.914 170.976Z" fill="black"/>
<path d="M182.9 128.844V130.815C182.879 131.081 182.788 131.336 182.636 131.555C182.483 131.774 182.275 131.948 182.033 132.06H182.003L115.923 170.209L111.286 172.894C110.614 173.243 109.866 173.419 109.109 173.407V171.466C109.871 171.484 110.625 171.305 111.298 170.947L114.248 169.242L182.015 130.101C182.263 129.991 182.476 129.817 182.632 129.595C182.788 129.374 182.88 129.114 182.9 128.844Z" fill="#33357D"/>
<path opacity="0.2" d="M182.9 128.844V130.815C182.879 131.081 182.788 131.336 182.636 131.555C182.483 131.774 182.275 131.948 182.033 132.06H182.003L115.923 170.209L111.286 172.894C110.614 173.243 109.866 173.419 109.109 173.407V171.466C109.871 171.484 110.625 171.305 111.298 170.947L114.248 169.242L182.015 130.101C182.263 129.991 182.476 129.817 182.632 129.595C182.788 129.374 182.88 129.114 182.9 128.844Z" fill="black"/>
<path d="M182.9 141.978V143.96C182.879 144.226 182.788 144.481 182.636 144.7C182.483 144.919 182.275 145.093 182.033 145.205H182.003L115.923 183.354L111.286 186.039C110.614 186.388 109.866 186.564 109.109 186.552V184.611C109.871 184.629 110.625 184.45 111.298 184.092L114.248 182.387L182.015 143.252C182.265 143.14 182.479 142.963 182.635 142.738C182.791 142.514 182.883 142.25 182.9 141.978Z" fill="#33357D"/>
<path opacity="0.2" d="M182.9 141.978V143.96C182.879 144.226 182.788 144.481 182.636 144.7C182.483 144.919 182.275 145.093 182.033 145.205H182.003L115.923 183.354L111.286 186.039C110.614 186.388 109.866 186.564 109.109 186.552V184.611C109.871 184.629 110.625 184.45 111.298 184.092L114.248 182.387L182.015 143.252C182.265 143.14 182.479 142.963 182.635 142.738C182.791 142.514 182.883 142.25 182.9 141.978Z" fill="black"/>
<path d="M66.2983 152.863V179.342L70.1215 174.929L73.9447 183.756V157.276L66.2983 152.863Z" fill="#33357D"/>
<path opacity="0.5" d="M66.2983 152.863V179.342L70.1215 174.929L73.9447 183.756V157.276L66.2983 152.863Z" fill="black"/>
<path d="M81.5852 208.028V215.214C81.5852 216.384 81.2771 217.533 80.6919 218.546C80.1067 219.559 79.2651 220.4 78.2517 220.984L68.2217 226.784L77.7738 225.681L75.8622 231.197L85.8922 225.398C86.9048 224.812 87.7458 223.971 88.3308 222.958C88.9159 221.946 89.2245 220.797 89.2257 219.627V212.441L81.5852 208.028Z" fill="#33357D"/>
<path opacity="0.5" d="M81.5852 208.028V215.214C81.5852 216.384 81.2771 217.533 80.6919 218.546C80.1067 219.559 79.2651 220.4 78.2517 220.984L68.2217 226.784L77.7738 225.681L75.8622 231.197L85.8922 225.398C86.9048 224.812 87.7458 223.971 88.3308 222.958C88.9159 221.946 89.2245 220.797 89.2257 219.627V212.441L81.5852 208.028Z" fill="black"/>
<path d="M225.746 85.9394V79.4847L220.294 79.0068C220.217 79.0008 220.139 79.0172 220.07 79.054L214.63 82.1633C214.583 82.1943 214.543 82.2349 214.513 82.2823C214.483 82.3297 214.463 82.383 214.455 82.4386C214.446 82.4943 214.45 82.551 214.465 82.6053C214.48 82.6595 214.506 82.7099 214.542 82.7533L220.324 89.0192L225.746 85.9394Z" fill="#33357D"/>
<path d="M220.324 89.0428L214.542 82.777C214.485 82.7183 214.448 82.6436 214.436 82.5632C214.423 82.4827 214.436 82.4004 214.472 82.3274C214.509 82.2545 214.566 82.1945 214.638 82.1556C214.709 82.1168 214.791 82.1009 214.872 82.1103L220.324 82.5823V89.0428Z" fill="#33357D"/>
<path d="M225.746 79.4848L220.324 82.6L214.872 82.1221C214.808 82.1161 214.743 82.1263 214.683 82.1516C215.12 81.892 219.869 79.1721 220.07 79.0659C220.14 79.0283 220.22 79.0119 220.3 79.0187L225.746 79.4848Z" fill="#33357D"/>
<path opacity="0.5" d="M225.746 79.4848L220.324 82.6L214.872 82.1221C214.808 82.1161 214.743 82.1263 214.683 82.1516C215.12 81.892 219.869 79.1721 220.07 79.0659C220.14 79.0283 220.22 79.0119 220.3 79.0187L225.746 79.4848Z" fill="white"/>
<path d="M220.33 75.3017C220.366 74.6198 220.563 73.9561 220.905 73.3646C221.246 72.773 221.722 72.2704 222.294 71.8974L223.893 70.977C224.501 70.6658 225.175 70.5035 225.858 70.5035C226.541 70.5035 227.214 70.6658 227.823 70.977L244.85 80.83C245.422 81.2026 245.899 81.7052 246.24 82.2968C246.582 82.8884 246.778 83.5523 246.815 84.2343V103.929C246.775 104.608 246.577 105.269 246.236 105.858C245.895 106.448 245.42 106.949 244.85 107.321L243.251 108.241C242.642 108.55 241.969 108.711 241.286 108.711C240.604 108.711 239.931 108.55 239.322 108.241L234.289 105.339L227.746 101.557L222.271 98.4002C221.699 98.0273 221.222 97.5246 220.881 96.9331C220.54 96.3416 220.343 95.6779 220.306 94.9959L220.33 75.3017Z" fill="#33357D"/>
<path d="M237.386 92.6832C237.375 91.3878 237.105 90.1078 236.59 88.919C236.12 87.6744 235.282 86.6023 234.189 85.8451C232.548 84.8775 231.174 86.8422 230.961 89.1609C230.767 86.6003 229.421 83.0367 227.775 82.0809C227.418 81.8047 226.968 81.6758 226.518 81.7208C226.068 81.7658 225.652 81.9812 225.356 82.3228C224.756 83.1311 224.461 84.1261 224.524 85.1312C224.524 89.0488 226.884 92.6065 228.837 96.3412L230.914 100.271L233.02 98.8015C234.997 97.3796 237.369 96.6067 237.386 92.6832Z" fill="#FAFAFA"/>
<path opacity="0.2" d="M246.838 103.917C246.798 104.601 246.597 105.265 246.251 105.857C245.906 106.448 245.426 106.95 244.85 107.321L243.251 108.241C242.697 108.52 242.091 108.677 241.472 108.705C240.852 108.732 240.234 108.629 239.658 108.401C240.578 108.749 241.286 108.23 241.286 107.109V87.4145C241.26 86.7292 241.057 86.0624 240.696 85.4793L246.225 82.2874C246.585 82.8705 246.789 83.5373 246.815 84.2226L246.838 103.917Z" fill="black"/>
<path opacity="0.5" d="M220.394 74.7412C220.625 73.9093 221.386 73.6438 222.294 74.1512L239.345 83.9983C239.929 84.357 240.407 84.8639 240.732 85.4674L246.254 82.2755C245.918 81.6814 245.434 81.1837 244.85 80.83L227.828 70.977C227.219 70.6685 226.546 70.5078 225.864 70.5078C225.181 70.5078 224.508 70.6685 223.899 70.977L222.294 71.9033C221.802 72.2234 221.38 72.6399 221.054 73.1276C220.727 73.6154 220.503 74.1643 220.394 74.7412Z" fill="white"/>
<path d="M177.85 117.587C186.151 117.31 190.269 121.575 195.296 128.832C200.323 136.089 214.176 156.208 214.176 156.208L203.397 162.433L179.797 130.06L177.85 117.587Z" fill="#FFA8A7"/>
<path d="M170.351 64.6463C152.326 65.5431 145.034 79.8624 147.535 92.9663C149.707 104.33 158.25 110.477 169.89 110.477H171.348C184.015 110.477 192.446 97.4975 194.004 90.5001C197.65 74.2515 186.328 63.8557 170.351 64.6463Z" fill="#37474F"/>
<path d="M214.801 233.917C215.244 244.815 197.39 246.95 181.708 239.469C169.879 233.829 164.598 229.758 153.831 221.722C140.491 211.745 136.491 196.635 146.007 178.687L191.384 176.327C199.284 185.484 227.74 197.65 237.18 219.291C241.764 230.731 226.017 236.755 214.76 233.917H214.801Z" fill="#455A64"/>
<path d="M214.801 233.917C213.621 223.645 205.804 218.577 199.096 213.604C192.387 208.63 178.292 200.01 178.292 200.01C178.292 200.01 185.301 201.644 191.732 195.03C191.536 196.451 191.029 197.81 190.248 199.012C189.467 200.214 188.431 201.23 187.213 201.987C187.213 201.987 206.724 213.143 212.583 222.601C214.716 225.961 215.508 230 214.801 233.917Z" fill="#37474F"/>
<path d="M166.858 117.587H161.66C156.627 117.941 151.63 118.33 151.63 118.33C143.571 121.239 143.606 127.593 143.205 130.927C142.615 135.647 143.948 138.337 145.5 142.821L152.934 164.321C152.934 164.321 150.055 170.74 146.013 178.687C164.669 189.095 187.354 185.62 192.959 178.021C193.195 176.41 192.369 159.359 191.461 151.129C194.061 149.059 195.755 146.061 196.185 142.766C196.616 139.471 195.749 136.138 193.768 133.47C186.753 123.882 180.369 118.1 177.838 117.587H166.858Z" fill="#33357D"/>
<path opacity="0.3" d="M166.858 117.587H161.66C156.627 117.941 151.63 118.33 151.63 118.33C143.571 121.239 143.606 127.593 143.205 130.927C142.615 135.647 143.948 138.337 145.5 142.821L152.934 164.321C152.934 164.321 150.055 170.74 146.013 178.687C164.669 189.095 187.354 185.62 192.959 178.021C193.195 176.41 192.369 159.359 191.461 151.129C194.061 149.059 195.755 146.061 196.185 142.766C196.616 139.471 195.749 136.138 193.768 133.47C186.753 123.882 180.369 118.1 177.838 117.587H166.858Z" fill="black"/>
<path opacity="0.15" d="M151.418 167.595C150.78 168.964 149.954 170.705 148.993 172.675C148.827 173.023 148.656 173.377 148.479 173.731C148.261 174.18 148.037 174.64 147.801 175.106C147.211 176.251 146.621 177.466 146.031 178.687C146.721 179.071 147.417 179.425 148.114 179.773C160.598 185.98 174.498 186.292 183.755 183.519C177.463 184.356 171.072 184.078 164.875 182.699C163.415 182.363 162.036 181.738 160.819 180.861C159.603 179.985 158.574 178.875 157.792 177.596C157.01 176.316 156.491 174.894 156.266 173.412C156.041 171.93 156.113 170.418 156.48 168.964C156.528 168.763 156.591 168.566 156.669 168.374C157.849 165.489 160.45 165.867 160.45 165.867C159.249 165.078 158.216 164.058 157.41 162.867C156.605 161.676 156.044 160.337 155.76 158.928L154.781 155.937C152.531 149.141 152.416 141.82 154.45 134.957L154.503 134.762L146.574 130.242L145.187 131.204C144.754 132.6 144.5 134.045 144.432 135.505C144.432 135.877 144.432 136.255 144.432 136.632C144.432 136.809 144.432 136.986 144.432 137.157C144.432 137.476 144.467 137.789 144.497 138.101C144.526 138.414 144.544 138.603 144.579 138.851C144.615 139.098 144.65 139.382 144.697 139.647C144.745 139.913 144.821 140.29 144.892 140.609C144.939 140.809 144.975 141.016 145.028 141.199C145.164 141.724 145.317 142.249 145.494 142.762L152.928 164.262C152.928 164.262 152.379 165.548 151.418 167.595Z" fill="black"/>
<path d="M185.555 75.7914C186.735 76.3814 189.927 82.4879 189.62 95.7806C189.36 107.05 185.708 109.828 183.873 110.631C182.039 111.433 178.504 110.944 175.065 110.371V117.133C175.065 117.133 179.82 122.655 179.519 125.753C179.218 128.85 172.658 129.588 168.215 126.561C165.332 124.486 162.857 121.895 160.917 118.92V102.577C160.917 102.577 159.04 104.636 155.241 102.117C151.441 99.5979 150.857 94.3941 153.064 92.1521C155.27 89.9101 160.032 90.624 160.917 93.7156C160.917 93.7156 166.486 94.7009 173.956 89.8924C182.021 84.7004 184.505 80.5704 185.555 75.7914Z" fill="#FFA8A7"/>
<path d="M187.396 88.3879L184.245 86.8834C184.333 86.6739 184.463 86.4844 184.626 86.3266C184.79 86.1687 184.984 86.0458 185.196 85.9652C185.409 85.8846 185.635 85.8481 185.862 85.8579C186.089 85.8676 186.312 85.9235 186.517 86.022C186.939 86.2279 187.266 86.5885 187.43 87.029C187.593 87.4695 187.581 87.9561 187.396 88.3879Z" fill="#263238"/>
<path d="M173.342 86.5884L170.392 88.4469C170.264 88.2616 170.175 88.0525 170.13 87.832C170.086 87.6115 170.086 87.3842 170.131 87.1638C170.176 86.9433 170.265 86.7343 170.393 86.5493C170.521 86.3642 170.685 86.2069 170.876 86.0869C171.273 85.8375 171.75 85.7504 172.209 85.8438C172.669 85.9372 173.074 86.2038 173.342 86.5884Z" fill="#263238"/>
<path d="M160.787 90.6122L160.981 97.5034C161.434 97.5139 161.884 97.4324 162.305 97.2638C162.725 97.0952 163.107 96.8429 163.427 96.5224C163.747 96.2019 163.998 95.8198 164.166 95.3992C164.334 94.9786 164.415 94.5282 164.403 94.0755C164.362 93.1436 163.964 92.2635 163.29 91.6183C162.616 90.9732 161.72 90.6128 160.787 90.6122Z" fill="#37474F"/>
<path d="M175.779 92.5179C175.781 92.7954 175.701 93.0673 175.55 93.2999C175.399 93.5325 175.182 93.7155 174.928 93.8263C174.673 93.937 174.392 93.9706 174.119 93.9228C173.845 93.8749 173.592 93.7479 173.39 93.5574C173.189 93.3669 173.047 93.1213 172.984 92.8511C172.921 92.581 172.938 92.2982 173.034 92.0379C173.13 91.7776 173.301 91.5512 173.524 91.3869C173.748 91.2226 174.015 91.1276 174.292 91.1137C174.482 91.1074 174.671 91.1388 174.849 91.2062C175.027 91.2735 175.19 91.3754 175.328 91.5059C175.466 91.6365 175.577 91.7931 175.655 91.9668C175.732 92.1405 175.774 92.3278 175.779 92.5179Z" fill="#263238"/>
<path d="M177 102.489L180.735 103.669C180.668 103.919 180.551 104.154 180.391 104.358C180.231 104.562 180.032 104.732 179.805 104.857C179.578 104.982 179.328 105.06 179.07 105.086C178.812 105.112 178.551 105.085 178.304 105.008C177.803 104.838 177.388 104.481 177.145 104.011C176.902 103.541 176.85 102.996 177 102.489Z" fill="#F28F8F"/>
<path d="M186.735 91.9279C186.737 92.2054 186.657 92.4773 186.506 92.7099C186.355 92.9426 186.139 93.1256 185.884 93.2363C185.63 93.3471 185.348 93.3806 185.075 93.3328C184.802 93.285 184.548 93.1579 184.347 92.9674C184.145 92.7769 184.004 92.5313 183.94 92.2612C183.877 91.991 183.894 91.7082 183.991 91.4479C184.087 91.1876 184.257 90.9612 184.481 90.7969C184.704 90.6326 184.971 90.5376 185.248 90.5237C185.438 90.5174 185.628 90.5489 185.805 90.6162C185.983 90.6835 186.146 90.7854 186.284 90.9159C186.422 91.0465 186.534 91.2032 186.611 91.3769C186.688 91.5506 186.73 91.7379 186.735 91.9279Z" fill="#263238"/>
<path d="M179.814 91.1136L180.044 99.645L184.528 98.2526L179.814 91.1136Z" fill="#F28F8F"/>
<path d="M175.065 110.371C171.442 109.899 163.99 107.758 162.828 104.808C162.828 104.808 163.218 106.66 165.442 108.572C167.666 110.483 175.065 112.631 175.065 112.631V110.371Z" fill="#F28F8F"/>
<path d="M227.911 141.452C227.911 141.452 227.769 139.376 230.507 137.352C233.245 135.328 236.82 133.706 237.988 128.679L241.758 130.856L235.41 141.535L227.911 141.452Z" fill="#33357D"/>
<path opacity="0.75" d="M227.911 141.452C227.911 141.452 227.769 139.376 230.507 137.352C233.245 135.328 236.82 133.706 237.988 128.679L241.758 130.856L235.41 141.535L227.911 141.452Z" fill="white"/>
<path d="M227.911 141.452C227.911 141.452 223.781 139.387 214.76 141.252C205.739 143.116 198.352 145.529 181.006 145.146L185.508 147.748L230.542 145.14L227.911 141.452Z" fill="#33357D"/>
<path opacity="0.75" d="M227.911 141.452C227.911 141.452 223.781 139.387 214.76 141.252C205.739 143.116 198.352 145.529 181.006 145.146L185.508 147.748L230.542 145.14L227.911 141.452Z" fill="white"/>
<path d="M181.006 145.146L164.905 196.966L169.407 199.567L185.508 147.748L181.006 145.146Z" fill="#33357D"/>
<path opacity="0.8" d="M181.006 145.146L164.905 196.966L169.407 199.567L185.508 147.748L181.006 145.146Z" fill="white"/>
<path opacity="0.1" d="M181.006 145.146L164.905 196.966L169.407 199.567L185.508 147.748L181.006 145.146Z" fill="black"/>
<g opacity="0.1">
<path opacity="0.1" d="M237.982 131.464C237.561 132.547 236.931 133.537 236.13 134.378C235.321 135.22 234.458 136.009 233.546 136.738C232.628 137.424 231.778 138.197 231.009 139.045C230.647 139.462 230.342 139.924 230.1 140.42C229.872 140.896 229.761 141.42 229.776 141.948L229.227 142.031C229.217 141.398 229.367 140.773 229.663 140.213C229.935 139.679 230.276 139.183 230.678 138.738C231.497 137.905 232.394 137.152 233.357 136.491C234.286 135.808 235.173 135.069 236.012 134.278C236.845 133.476 237.514 132.521 237.982 131.464Z" fill="black"/>
<path opacity="0.1" d="M237.263 134.384C236.878 135.031 236.412 135.626 235.876 136.154C235.357 136.703 234.826 137.228 234.319 137.783C233.811 138.328 233.356 138.921 232.962 139.553C232.574 140.156 232.332 140.84 232.254 141.553L231.699 141.482C231.838 140.703 232.15 139.965 232.613 139.323C233.061 138.705 233.567 138.132 234.124 137.612C234.667 137.086 235.233 136.591 235.776 136.078C236.342 135.58 236.842 135.01 237.263 134.384Z" fill="black"/>
<path opacity="0.1" d="M198.352 145.529C200.817 145.305 203.267 144.945 205.692 144.45C208.123 143.96 210.524 143.358 212.937 142.798C215.356 142.207 217.834 141.884 220.324 141.836C221.574 141.797 222.826 141.846 224.07 141.983C224.698 142.052 225.319 142.171 225.929 142.337C226.575 142.498 227.178 142.795 227.699 143.211L227.315 143.612C226.865 143.249 226.345 142.984 225.787 142.833C225.207 142.666 224.615 142.542 224.017 142.461C222.8 142.305 221.574 142.234 220.347 142.249C217.872 142.249 215.404 142.524 212.99 143.069C210.571 143.582 208.152 144.143 205.715 144.585C203.28 145.035 200.822 145.35 198.352 145.529Z" fill="black"/>
<path opacity="0.1" d="M210.258 145.305C211.657 145.116 213.031 144.827 214.418 144.562C215.804 144.296 217.191 144.043 218.589 143.86C219.993 143.653 221.412 143.558 222.831 143.576C224.275 143.574 225.707 143.838 227.056 144.355L226.831 144.863C225.557 144.328 224.195 144.032 222.813 143.989C221.416 143.928 220.015 143.975 218.624 144.131C217.226 144.273 215.834 144.479 214.441 144.721C213.049 144.963 211.662 145.14 210.258 145.305Z" fill="black"/>
</g>
<path d="M241.77 128.266L234.348 140.921L217.073 196.488L219.327 197.786L226.737 182.269L244.012 129.558L241.77 128.266Z" fill="#33357D"/>
<path opacity="0.2" d="M236.596 142.225L244.012 129.558L226.737 182.269L219.327 197.786L236.596 142.225Z" fill="black"/>
<path d="M226.943 145.199L182.528 148.049L165.253 203.609L167.507 204.907L211.922 202.057L229.191 146.497L226.943 145.199Z" fill="#33357D"/>
<path opacity="0.2" d="M184.776 149.347L167.507 204.907L211.922 202.057L229.191 146.497L184.776 149.347Z" fill="black"/>
<path d="M175.324 202.323C175.282 202.322 175.241 202.312 175.204 202.294C175.166 202.275 175.133 202.249 175.106 202.217C175.079 202.181 175.061 202.139 175.053 202.095C175.045 202.051 175.047 202.006 175.059 201.963C175.197 201.52 175.225 201.05 175.14 200.594C175.056 200.138 174.862 199.709 174.575 199.344C174.289 198.98 173.917 198.69 173.494 198.501C173.07 198.312 172.607 198.228 172.144 198.258C172.099 198.26 172.055 198.251 172.014 198.232C171.973 198.214 171.937 198.186 171.908 198.151C171.879 198.117 171.86 198.075 171.852 198.031C171.844 197.986 171.847 197.941 171.861 197.898L185 155.636C185.017 155.583 185.048 155.536 185.092 155.502C185.135 155.467 185.187 155.446 185.242 155.441C186.454 155.361 187.613 154.916 188.568 154.165C189.523 153.415 190.229 152.393 190.594 151.235C190.61 151.181 190.643 151.133 190.687 151.099C190.731 151.064 190.785 151.043 190.841 151.04L221.356 149.081C221.401 149.079 221.446 149.088 221.487 149.106C221.528 149.125 221.564 149.153 221.592 149.187C221.62 149.223 221.639 149.264 221.647 149.308C221.655 149.353 221.653 149.398 221.639 149.441C221.498 149.884 221.469 150.355 221.553 150.811C221.638 151.268 221.833 151.697 222.123 152.061C222.406 152.43 222.776 152.722 223.201 152.912C223.625 153.102 224.09 153.182 224.554 153.146C224.599 153.143 224.644 153.151 224.685 153.169C224.727 153.188 224.763 153.217 224.79 153.252C224.819 153.287 224.838 153.329 224.846 153.373C224.855 153.418 224.852 153.463 224.837 153.506L211.704 195.768C211.686 195.821 211.654 195.868 211.609 195.903C211.565 195.938 211.512 195.958 211.456 195.963C210.245 196.045 209.086 196.49 208.132 197.241C207.177 197.991 206.471 199.012 206.105 200.169C206.089 200.223 206.056 200.271 206.012 200.306C205.967 200.341 205.913 200.361 205.857 200.364L175.342 202.323H175.324ZM172.504 197.697C172.991 197.723 173.466 197.853 173.899 198.078C174.331 198.302 174.711 198.617 175.012 199C175.313 199.383 175.528 199.826 175.644 200.3C175.76 200.773 175.774 201.266 175.684 201.745L205.639 199.821C206.052 198.63 206.799 197.582 207.79 196.803C208.782 196.024 209.976 195.546 211.232 195.426L224.212 153.707C223.725 153.681 223.249 153.552 222.815 153.328C222.382 153.104 222.002 152.789 221.7 152.406C221.399 152.023 221.182 151.579 221.066 151.106C220.95 150.632 220.936 150.139 221.026 149.659L191.077 151.583C190.663 152.773 189.915 153.82 188.924 154.599C187.933 155.378 186.739 155.857 185.484 155.978L172.504 197.697Z" fill="#FAFAFA"/>
<path opacity="0.3" d="M182.528 148.049L184.776 149.347L167.507 204.907L165.253 203.609L182.528 148.049Z" fill="black"/>
<path d="M229.191 146.497L236.59 142.225L219.321 197.786C218.17 200.783 215.627 202.122 211.916 202.057L229.191 146.497Z" fill="#33357D"/>
<path opacity="0.3" d="M229.191 146.497L236.59 142.225L219.321 197.786C218.029 200.954 215.415 202.163 211.916 202.057L229.191 146.497Z" fill="black"/>
<path d="M234.094 140.78C232.72 139.972 229.964 140.272 227.911 141.452C225.858 142.632 225.327 144.237 226.702 145.046L229.191 146.497L236.59 142.225L234.342 140.921L234.094 140.78Z" fill="#455A64"/>
<path d="M225.244 159.182C227.911 159.235 230.808 158.899 232.1 156.692L233.817 151.193C232.194 153.412 230.07 154.568 226.737 154.474L225.244 159.182Z" fill="#E0E0E0"/>
<path d="M234.348 140.922C233.911 143.057 231.186 144.391 226.943 145.199L229.191 146.497C232.838 146.078 235.245 144.603 236.596 142.225L234.348 140.922Z" fill="#33357D"/>
<path d="M151.63 118.33C147.016 118.608 142.113 120.142 140.013 128.49C137.912 136.839 132.195 164.846 131.753 168.61C131.31 172.374 131.222 175.413 140.267 178.31C150.474 181.573 166.97 182.853 171.631 183.101C180.227 183.567 185.956 181.036 188.7 176.097C191.443 171.159 192.24 164.586 184.522 167.772C176.333 171.159 172.899 171.242 172.899 171.242L174.469 166.191C171.902 167.306 169.749 170.817 167.182 171.242C164.905 171.625 147.565 165.625 147.565 165.625L153.465 140.45C153.465 140.45 158.852 124.584 151.63 118.33Z" fill="#FFA8A7"/>
<path d="M152.485 109.014C151.52 110.079 150.496 111.09 149.417 112.041C147.347 114.059 145.877 115.823 144.916 118.531C143.954 121.239 144.078 124.496 145.824 126.791C147.571 129.086 150.544 130.154 151.777 132.691C152.367 133.906 152.485 135.299 152.68 136.644C153.093 139.553 153.99 142.467 155.778 144.804C158.675 148.603 164.87 150.521 168.828 147.057C170.07 145.856 170.956 144.335 171.389 142.662C172.517 139.283 172.44 135.618 171.171 132.29C169.991 129.375 167.731 127.039 165.648 124.673C163.79 122.561 161.335 119.817 160.928 116.903C160.928 116.903 160.852 111.48 160.893 108.908C160.893 107.651 160.893 106.383 159.678 105.722C158.742 105.165 157.702 104.807 156.621 104.672C154.958 104.589 154.674 104.796 154.674 104.796C154.216 106.327 153.474 107.758 152.485 109.014Z" fill="#37474F"/>
<path d="M235.375 155.76C234.838 153.99 232.849 157.312 231.976 162.38C231.144 167.23 230 172.298 230 172.298L228.66 176.428C228.66 176.428 231.864 174.445 234.478 169.011C237.092 163.577 236.897 160.757 235.375 155.76Z" fill="#FFA8A7"/>
</svg>
