<svg width="24" height="24" viewBox="0 0 24 24" fill="none" xmlns="http://www.w3.org/2000/svg">
<path d="M17.7998 11.9998C19.12 11.9995 20.4031 11.5638 21.4505 10.7603C22.498 9.95674 23.2511 8.83018 23.5933 7.55517C23.9355 6.28016 23.8476 4.92788 23.3433 3.70787C22.839 2.48786 21.9464 1.46823 20.8038 0.806972C19.6613 0.145715 18.3325 -0.120254 17.0234 0.0502797C15.7144 0.220813 14.4981 0.818327 13.563 1.75024C12.628 2.68215 12.0264 3.89642 11.8515 5.20492C11.6766 6.51341 11.9381 7.84306 12.5955 8.98785L9.33877 11.1574C8.67296 10.4308 7.79964 9.92678 6.83742 9.71376C5.8752 9.50074 4.87074 9.58907 3.96046 9.96675C3.05019 10.3444 2.27823 10.9931 1.74944 11.8248C1.22066 12.6564 0.960678 13.6307 1.00482 14.6152C1.04896 15.5997 1.39508 16.5468 1.99617 17.3278C2.59725 18.1088 3.42417 18.6858 4.36459 18.9805C5.30501 19.2752 6.31335 19.2733 7.25264 18.975C8.19193 18.6767 9.01665 18.0966 9.61477 17.3133L14.2791 19.6449C14.0953 20.5016 14.2302 21.396 14.6587 22.1603C15.0871 22.9246 15.7796 23.5065 16.6064 23.7967C17.4331 24.087 18.3374 24.0658 19.1496 23.737C19.9618 23.4083 20.6262 22.7946 21.0183 22.011C21.4104 21.2274 21.5032 20.3277 21.2794 19.4805C21.0556 18.6333 20.5305 17.8969 19.8025 17.4092C19.0745 16.9215 18.1937 16.7161 17.3251 16.8314C16.4565 16.9468 15.6598 17.3749 15.0843 18.0357L10.4212 15.7041C10.7011 14.7105 10.6535 13.6531 10.2856 12.6886L13.7211 10.4002C14.8293 11.4303 16.2868 12.0019 17.7998 11.9998V11.9998ZM17.7998 10.1998C16.6859 10.1998 15.6177 9.75734 14.83 8.9697C14.0424 8.18206 13.5999 7.11379 13.5999 5.9999C13.5999 4.88601 14.0424 3.81775 14.83 3.03011C15.6177 2.24247 16.6859 1.79998 17.7998 1.79998C18.9137 1.79998 19.982 2.24247 20.7696 3.03011C21.5573 3.81775 21.9998 4.88601 21.9998 5.9999C21.9998 7.11379 21.5573 8.18206 20.7696 8.9697C19.982 9.75734 18.9137 10.1998 17.7998 10.1998V10.1998ZM5.80003 17.3997C5.0044 17.3997 4.24135 17.0836 3.67875 16.521C3.11615 15.9584 2.80008 15.1954 2.80008 14.3998C2.80008 13.6041 3.11615 12.8411 3.67875 12.2785C4.24135 11.7159 5.0044 11.3998 5.80003 11.3998C6.59567 11.3998 7.35872 11.7159 7.92132 12.2785C8.48392 12.8411 8.79998 13.6041 8.79998 14.3998C8.79998 15.1954 8.48392 15.9584 7.92132 16.521C7.35872 17.0836 6.59567 17.3997 5.80003 17.3997V17.3997ZM19.5998 20.3997C19.5998 20.877 19.4102 21.3349 19.0726 21.6724C18.735 22.01 18.2772 22.1996 17.7998 22.1996C17.3224 22.1996 16.8646 22.01 16.5271 21.6724C16.1895 21.3349 15.9999 20.877 15.9999 20.3997C15.9999 19.9223 16.1895 19.4644 16.5271 19.1269C16.8646 18.7893 17.3224 18.5997 17.7998 18.5997C18.2772 18.5997 18.735 18.7893 19.0726 19.1269C19.4102 19.4644 19.5998 19.9223 19.5998 20.3997Z" fill="#AAB4CF"/>
</svg>
