<svg width="26" height="26" viewBox="0 0 26 26" fill="none" xmlns="http://www.w3.org/2000/svg">
<path d="M15.4 2.5228C15.4 1.6816 14.7184 1 13.8772 1H12.124C11.2816 1 10.6 1.6816 10.6 2.5228C10.6 3.2164 10.1248 3.8116 9.478 4.066C9.376 4.1068 9.274 4.15 9.1744 4.1932C8.5372 4.4692 7.78 4.3852 7.288 3.8944C7.00245 3.60905 6.61528 3.44876 6.2116 3.44876C5.80792 3.44876 5.42075 3.60905 5.1352 3.8944L3.8944 5.1352C3.60905 5.42075 3.44876 5.80792 3.44876 6.2116C3.44876 6.61528 3.60905 7.00245 3.8944 7.288V7.288C4.3864 7.78 4.4704 8.536 4.192 9.1744C4.14826 9.27487 4.10625 9.37608 4.066 9.478C3.8116 10.1248 3.2164 10.6 2.5228 10.6C1.6816 10.6 1 11.2816 1 12.1228V13.8772C1 14.7184 1.6816 15.4 2.5228 15.4C3.2164 15.4 3.8116 15.8752 4.066 16.522C4.1068 16.624 4.15 16.726 4.192 16.8256C4.4692 17.4628 4.3852 18.22 3.8944 18.712C3.60905 18.9976 3.44876 19.3847 3.44876 19.7884C3.44876 20.1921 3.60905 20.5793 3.8944 20.8648L5.1352 22.1056C5.42075 22.3909 5.80792 22.5512 6.2116 22.5512C6.61528 22.5512 7.00245 22.3909 7.288 22.1056C7.78 21.6136 8.536 21.5296 9.1744 21.8068C9.274 21.8512 9.376 21.8932 9.478 21.934C10.1248 22.1884 10.6 22.7836 10.6 23.4772C10.6 24.3184 11.2816 25 12.1228 25H13.8772C14.7184 25 15.4 24.3184 15.4 23.4772C15.4 22.7836 15.8752 22.1884 16.522 21.9328C16.624 21.8932 16.726 21.8512 16.8256 21.808C17.4628 21.5296 18.22 21.6148 18.7108 22.1056C18.8522 22.2471 19.0201 22.3593 19.2049 22.4359C19.3897 22.5124 19.5878 22.5518 19.7878 22.5518C19.9878 22.5518 20.1859 22.5124 20.3707 22.4359C20.5555 22.3593 20.7234 22.2471 20.8648 22.1056L22.1056 20.8648C22.3909 20.5793 22.5512 20.1921 22.5512 19.7884C22.5512 19.3847 22.3909 18.9976 22.1056 18.712V18.712C21.6136 18.22 21.5296 17.464 21.8068 16.8256C21.8512 16.726 21.8932 16.624 21.934 16.522C22.1884 15.8752 22.7836 15.4 23.4772 15.4C24.3184 15.4 25 14.7184 25 13.8772V12.124C25 11.2828 24.3184 10.6012 23.4772 10.6012C22.7836 10.6012 22.1884 10.126 21.9328 9.4792C21.8926 9.37727 21.8506 9.27605 21.8068 9.1756C21.5308 8.5384 21.6148 7.7812 22.1056 7.2892C22.3909 7.00365 22.5512 6.61648 22.5512 6.2128C22.5512 5.80912 22.3909 5.42195 22.1056 5.1364L20.8648 3.8956C20.5793 3.61025 20.1921 3.44996 19.7884 3.44996C19.3847 3.44996 18.9976 3.61025 18.712 3.8956V3.8956C18.22 4.3876 17.464 4.4716 16.8256 4.1944C16.7251 4.15025 16.6239 4.10784 16.522 4.0672C15.8752 3.8116 15.4 3.2164 15.4 2.524V2.5228Z" stroke="#AAB4CF" stroke-width="2"/>
<path d="M17.8 13C17.8 14.2731 17.2942 15.494 16.3941 16.3941C15.4939 17.2943 14.273 17.8 13 17.8C11.7269 17.8 10.506 17.2943 9.60584 16.3941C8.70566 15.494 8.19995 14.2731 8.19995 13C8.19995 11.727 8.70566 10.5061 9.60584 9.6059C10.506 8.70572 11.7269 8.20001 13 8.20001C14.273 8.20001 15.4939 8.70572 16.3941 9.6059C17.2942 10.5061 17.8 11.727 17.8 13Z" stroke="#AAB4CF" stroke-width="2"/>
</svg>
