<svg width="327" height="327" viewBox="0 0 327 327" fill="none" xmlns="http://www.w3.org/2000/svg">
<path d="M259.926 43.4452C204.578 -0.0457802 103.888 0.653999 68.9446 70.0172C60.6061 86.57 52.1434 103.371 38.8018 116.556C27.4679 127.752 14.6888 138.903 9.50257 154.488C-2.01437 189.15 26.9905 215.362 50.4691 235.329C72.764 254.295 85.3731 282.862 109.264 299.728C124.031 310.159 142.238 314.267 160.099 312.481C178.411 310.656 192.145 299.29 208.292 291.684C220.535 285.909 233.439 284.536 246.146 280.566C257.009 277.152 267.676 270.331 276.544 263.176C295.928 247.532 309.898 225.578 316.726 201.7C333.108 144.161 306.451 80.0104 259.926 43.4452Z" fill="#33357D"/>
<path opacity="0.7" d="M259.926 43.4452C204.578 -0.0457802 103.888 0.653999 68.9446 70.0172C60.6061 86.57 52.1434 103.371 38.8018 116.556C27.4679 127.752 14.6888 138.903 9.50257 154.488C-2.01437 189.15 26.9905 215.362 50.4691 235.329C72.764 254.295 85.3731 282.862 109.264 299.728C124.031 310.159 142.238 314.267 160.099 312.481C178.411 310.656 192.145 299.29 208.292 291.684C220.535 285.909 233.439 284.536 246.146 280.566C257.009 277.152 267.676 270.331 276.544 263.176C295.928 247.532 309.898 225.578 316.726 201.7C333.108 144.161 306.451 80.0104 259.926 43.4452Z" fill="white"/>
<g opacity="0.3">
<path opacity="0.3" d="M304.923 124.922C315.275 114.57 315.275 97.7873 304.923 87.4359C294.572 77.0844 277.789 77.0844 267.437 87.4359C257.086 97.7873 257.086 114.57 267.437 124.922C277.789 135.273 294.572 135.273 304.923 124.922Z" stroke="black" stroke-miterlimit="10"/>
<path opacity="0.3" d="M302.963 122.961C312.231 113.693 312.231 98.6652 302.963 89.3966C293.694 80.1281 278.667 80.1281 269.398 89.3966C260.13 98.6652 260.13 113.693 269.398 122.961C278.667 132.23 293.694 132.23 302.963 122.961Z" stroke="black" stroke-miterlimit="10"/>
<path opacity="0.3" d="M290.448 112.017L286.177 106.177L271.861 119.322" stroke="black" stroke-miterlimit="10"/>
</g>
<g opacity="0.3">
<path opacity="0.3" d="M114.032 189.673H102.103V226.042H114.032V189.673Z" fill="white" stroke="black" stroke-miterlimit="10"/>
<path opacity="0.3" d="M135.849 171.93H80.2786V217.9H135.849V171.93Z" fill="white" stroke="black" stroke-miterlimit="10"/>
<path opacity="0.3" d="M131.984 175.128H84.1501V214.695H131.984V175.128Z" fill="white" stroke="black" stroke-miterlimit="10"/>
<path opacity="0.3" d="M228.893 224.584H45.7212V297.21H228.893V224.584Z" fill="white" stroke="black" stroke-miterlimit="10"/>
<path opacity="0.3" d="M45.6624 262.404H228.076" stroke="black" stroke-miterlimit="10"/>
<path opacity="0.3" d="M228.887 224.584H171.924V297.21H228.887V224.584Z" fill="white" stroke="black" stroke-miterlimit="10"/>
<path opacity="0.3" d="M232.438 224.584H42.1699V231.568H232.438V224.584Z" fill="white" stroke="black" stroke-miterlimit="10"/>
<path opacity="0.3" d="M135.267 231.634L138.144 236.938H154.488L157.379 231.634H135.267Z" fill="white" stroke="black" stroke-miterlimit="10"/>
<path opacity="0.3" d="M135.267 262.182L138.144 267.486H154.488L157.379 262.182H135.267Z" fill="white" stroke="black" stroke-miterlimit="10"/>
<path opacity="0.3" d="M73.8823 231.634L76.7599 236.938H93.1034L95.9941 231.634H73.8823Z" fill="white" stroke="black" stroke-miterlimit="10"/>
<path opacity="0.3" d="M73.8823 262.182L76.7599 267.486H93.1034L95.9941 262.182H73.8823Z" fill="white" stroke="black" stroke-miterlimit="10"/>
</g>
<g opacity="0.3">
<path opacity="0.3" d="M292.357 221.366H297.753V215.264H292.357V221.366Z" fill="#263238" stroke="black" stroke-miterlimit="10"/>
<path opacity="0.3" d="M290.239 216.67H300.565V212.916H290.239V216.67Z" fill="#263238" stroke="black" stroke-miterlimit="10"/>
<path opacity="0.3" d="M283.666 281.455H306.903V219.489H283.666V281.455Z" fill="white" stroke="black" stroke-miterlimit="10"/>
<path opacity="0.3" d="M297.864 243.896C301.169 243.896 303.848 241.217 303.848 237.912C303.848 234.607 301.169 231.928 297.864 231.928C294.559 231.928 291.88 234.607 291.88 237.912C291.88 241.217 294.559 243.896 297.864 243.896Z" fill="#263238" stroke="black" stroke-miterlimit="10"/>
<path opacity="0.3" d="M249.069 297.23L259.723 283.856H290.474L301.049 297.23H249.069Z" fill="white" stroke="black" stroke-miterlimit="10"/>
<path opacity="0.3" d="M291.468 284.032H249.35C248.367 284.032 247.424 283.642 246.728 282.946C246.033 282.251 245.642 281.307 245.642 280.324V280.043H295.17V280.324C295.17 281.306 294.78 282.249 294.086 282.944C293.392 283.639 292.45 284.03 291.468 284.032Z" fill="white" stroke="black" stroke-miterlimit="10"/>
<path opacity="0.3" d="M264.418 200.263L273.75 206.343L274.967 204.475L265.636 198.394L264.418 200.263Z" fill="white" stroke="black" stroke-miterlimit="10"/>
<path opacity="0.3" d="M256.913 196.088L265.642 201.804L269.318 196.19L260.589 190.474L256.913 196.088Z" fill="#263238" stroke="black" stroke-width="1.00404" stroke-miterlimit="10"/>
<path opacity="0.3" d="M294.228 190.386H296.34V183.578H294.228V190.386Z" fill="#263238" stroke="black" stroke-miterlimit="10"/>
<path opacity="0.3" d="M293.286 203.289H297.511V189.909H293.286V203.289Z" fill="white" stroke="black" stroke-miterlimit="10"/>
<path opacity="0.3" d="M290.474 209.627H300.33V201.883H290.474V209.627Z" fill="white" stroke="black" stroke-miterlimit="10"/>
<path opacity="0.3" d="M274.543 198.175L285.772 207.665L310.702 209.862L310.133 216.271L280.056 213.616L269.893 206.036L274.543 198.175Z" fill="white" stroke="black" stroke-miterlimit="10"/>
</g>
<path d="M122.102 70.1481C124.937 70.1481 127.236 67.8495 127.236 65.0142C127.236 62.1788 124.937 59.8802 122.102 59.8802C119.266 59.8802 116.968 62.1788 116.968 65.0142C116.968 67.8495 119.266 70.1481 122.102 70.1481Z" fill="white" stroke="#263238" stroke-linecap="round" stroke-linejoin="round"/>
<path d="M165.717 38.3963C165.718 37.6973 165.512 37.0136 165.125 36.4318C164.737 35.8501 164.185 35.3964 163.54 35.1283C162.894 34.8602 162.184 34.7897 161.498 34.9258C160.812 35.0618 160.182 35.3983 159.688 35.8926C159.194 36.3869 158.857 37.0168 158.721 37.7024C158.585 38.3881 158.656 39.0987 158.924 39.7443C159.192 40.3899 159.646 40.9414 160.227 41.3289C160.809 41.7165 161.493 41.9227 162.192 41.9214C163.126 41.9197 164.022 41.5477 164.683 40.887C165.343 40.2263 165.715 39.3307 165.717 38.3963Z" fill="white" stroke="#263238" stroke-linecap="round" stroke-linejoin="round"/>
<path d="M124.025 30.6988C124.025 30.5086 123.968 30.3227 123.863 30.1646C123.757 30.0065 123.607 29.8833 123.431 29.8106C123.255 29.7378 123.062 29.7188 122.876 29.7559C122.689 29.7929 122.518 29.8845 122.383 30.019C122.249 30.1534 122.157 30.3247 122.12 30.5112C122.083 30.6977 122.102 30.891 122.175 31.0667C122.248 31.2423 122.371 31.3925 122.529 31.4981C122.687 31.6038 122.873 31.6601 123.063 31.6601C123.318 31.6601 123.563 31.5588 123.743 31.3786C123.923 31.1983 124.025 30.9537 124.025 30.6988Z" fill="white" stroke="#263238" stroke-linecap="round" stroke-linejoin="round"/>
<path d="M24.6035 24.9239C24.6048 24.4784 24.4738 24.0426 24.2271 23.6716C23.9804 23.3006 23.6291 23.0112 23.2177 22.8402C22.8064 22.6691 22.3535 22.624 21.9165 22.7106C21.4794 22.7972 21.078 23.0116 20.7629 23.3266C20.4479 23.6416 20.2335 24.0431 20.1469 24.4801C20.0603 24.9171 20.1054 25.37 20.2765 25.7814C20.4476 26.1927 20.737 26.544 21.1079 26.7907C21.4789 27.0374 21.9148 27.1685 22.3603 27.1672C22.9552 27.1672 23.5258 26.9308 23.9465 26.5101C24.3672 26.0895 24.6035 25.5189 24.6035 24.9239Z" fill="white" stroke="#263238" stroke-linecap="round" stroke-linejoin="round"/>
<path d="M23.001 95.157C24.2399 95.157 25.2443 94.1527 25.2443 92.9138C25.2443 91.6749 24.2399 90.6706 23.001 90.6706C21.7621 90.6706 20.7578 91.6749 20.7578 92.9138C20.7578 94.1527 21.7621 95.157 23.001 95.157Z" fill="white" stroke="#263238" stroke-linecap="round" stroke-linejoin="round"/>
<path d="M123.384 140.061C126.219 140.061 128.518 137.762 128.518 134.927C128.518 132.091 126.219 129.793 123.384 129.793C120.548 129.793 118.25 132.091 118.25 134.927C118.25 137.762 120.548 140.061 123.384 140.061Z" fill="white" stroke="#263238" stroke-linecap="round" stroke-linejoin="round"/>
<path d="M23.9624 248.782C23.9637 248.336 23.8327 247.9 23.586 247.529C23.3393 247.158 22.988 246.869 22.5766 246.698C22.1653 246.527 21.7124 246.482 21.2753 246.568C20.8383 246.655 20.4369 246.869 20.1218 247.184C19.8068 247.499 19.5924 247.901 19.5058 248.338C19.4192 248.775 19.4643 249.228 19.6354 249.639C19.8065 250.05 20.0959 250.402 20.4668 250.648C20.8378 250.895 21.2737 251.026 21.7192 251.025C22.3141 251.025 22.8847 250.788 23.3054 250.368C23.7261 249.947 23.9624 249.377 23.9624 248.782Z" fill="white" stroke="#263238" stroke-linecap="round" stroke-linejoin="round"/>
<path d="M68.1164 263.045C71.7437 262.218 74.0139 258.608 73.1872 254.98C72.3604 251.353 68.7497 249.083 65.1224 249.91C61.4952 250.736 59.2249 254.347 60.0517 257.974C60.8784 261.602 64.4891 263.872 68.1164 263.045Z" fill="white" stroke="#263238" stroke-linecap="round" stroke-linejoin="round"/>
<path d="M122.102 235.63C123.518 235.63 124.665 234.482 124.665 233.066C124.665 231.65 123.518 230.502 122.102 230.502C120.686 230.502 119.538 231.65 119.538 233.066C119.538 234.482 120.686 235.63 122.102 235.63Z" fill="white" stroke="#263238" stroke-linecap="round" stroke-linejoin="round"/>
<path d="M18.8286 168.601C18.8273 168.285 18.7322 167.975 18.5554 167.713C18.3786 167.45 18.1279 167.246 17.835 167.126C17.5421 167.005 17.2201 166.974 16.9097 167.037C16.5993 167.1 16.3145 167.253 16.091 167.477C15.8676 167.701 15.7156 167.987 15.6543 168.298C15.593 168.608 15.6251 168.93 15.7466 169.222C15.8681 169.515 16.0735 169.765 16.3368 169.94C16.6002 170.116 16.9097 170.21 17.2263 170.21C17.4373 170.21 17.6462 170.168 17.841 170.087C18.0358 170.007 18.2128 169.888 18.3616 169.738C18.5105 169.589 18.6284 169.412 18.7085 169.216C18.7887 169.021 18.8295 168.812 18.8286 168.601Z" fill="white" stroke="#263238" stroke-linecap="round" stroke-linejoin="round"/>
<path d="M234.989 57.3166C234.989 56.6828 234.801 56.0632 234.449 55.5362C234.097 55.0092 233.596 54.5985 233.011 54.3559C232.425 54.1134 231.781 54.0499 231.159 54.1735C230.537 54.2972 229.966 54.6024 229.518 55.0506C229.07 55.4987 228.765 56.0698 228.641 56.6914C228.518 57.313 228.581 57.9574 228.824 58.5429C229.066 59.1285 229.477 59.629 230.004 59.9811C230.531 60.3332 231.15 60.5212 231.784 60.5212C232.205 60.5212 232.622 60.4383 233.011 60.2772C233.399 60.1162 233.753 59.8801 234.05 59.5826C234.348 59.285 234.584 58.9317 234.745 58.5429C234.906 58.1541 234.989 57.7374 234.989 57.3166Z" fill="white" stroke="#263238" stroke-linecap="round" stroke-linejoin="round"/>
<path d="M205.166 65.6551C206.759 65.6551 208.051 64.3638 208.051 62.7709C208.051 61.1781 206.759 59.8868 205.166 59.8868C203.574 59.8868 202.282 61.1781 202.282 62.7709C202.282 64.3638 203.574 65.6551 205.166 65.6551Z" fill="white" stroke="#263238" stroke-linecap="round" stroke-linejoin="round"/>
<path d="M269.631 190.092C271.047 190.092 272.195 188.944 272.195 187.528C272.195 186.112 271.047 184.964 269.631 184.964C268.215 184.964 267.067 186.112 267.067 187.528C267.067 188.944 268.215 190.092 269.631 190.092Z" fill="white" stroke="#263238" stroke-linecap="round" stroke-linejoin="round"/>
<path d="M139.721 141.199L148.497 116.517C148.497 116.517 153.429 98.1458 158.366 92.384C163.304 86.6223 172.656 88.5451 172.656 88.5451C172.656 88.5451 182.25 77.5775 184.428 80.8671C186.606 84.1567 178.941 90.4678 177.293 93.7574C175.645 97.0471 173.173 105.294 170.694 109.937C168.215 114.581 162.192 119.263 162.192 119.263L161.1 147.228L141.356 154.913L139.721 141.199Z" fill="white" stroke="#263238" stroke-linecap="round" stroke-linejoin="round"/>
<path d="M172.656 88.5451C172.656 88.5451 163.33 86.6288 158.392 92.384C153.455 98.1392 148.524 116.517 148.524 116.517L143.292 131.147C145.296 133.15 147.887 134.463 150.688 134.894C154.795 135.437 158.759 133.802 161.708 132.023L162.205 119.263C162.205 119.263 168.242 114.6 170.707 109.937C173.173 105.274 175.645 97.0471 177.286 93.7574C178.928 90.4678 186.612 84.1567 184.422 80.8671C182.231 77.5775 172.656 88.5451 172.656 88.5451Z" fill="#33357D" stroke="#263238" stroke-linecap="round" stroke-linejoin="round"/>
<path d="M174.546 91.0172H183.048V116.726C183.048 117.095 182.975 117.461 182.834 117.802C182.693 118.143 182.486 118.453 182.224 118.714C181.963 118.976 181.653 119.183 181.312 119.324C180.971 119.465 180.605 119.538 180.236 119.538H177.352C176.982 119.538 176.617 119.465 176.276 119.324C175.934 119.183 175.624 118.976 175.363 118.714C175.102 118.453 174.895 118.143 174.754 117.802C174.612 117.461 174.54 117.095 174.54 116.726V91.0172H174.546Z" stroke="#263238" stroke-linecap="round" stroke-linejoin="round"/>
<path d="M178.797 117.334C178.428 117.334 178.062 117.261 177.721 117.12C177.38 116.979 177.07 116.772 176.809 116.51C176.547 116.249 176.34 115.939 176.199 115.598C176.058 115.257 175.985 114.891 175.985 114.522V93.8032H181.609V114.522C181.609 114.891 181.537 115.257 181.395 115.598C181.254 115.939 181.047 116.249 180.786 116.51C180.524 116.772 180.214 116.979 179.873 117.12C179.532 117.261 179.166 117.334 178.797 117.334Z" fill="#33357D"/>
<path d="M150.688 113.796C150.688 113.796 151.238 99.5388 152.336 95.1505C153.435 90.7621 165.227 82.2601 166.868 82.2601C168.51 82.2601 186.063 86.6485 186.887 89.114C187.711 91.5796 184.964 95.1505 180.857 96.5173C176.75 97.8842 161.93 100.062 161.93 100.062C161.93 100.062 163.853 109.663 161.381 113.227" fill="#33357D"/>
<path d="M150.688 113.796C150.688 113.796 151.238 99.5388 152.336 95.1505C153.435 90.7621 165.227 82.2601 166.868 82.2601C168.51 82.2601 186.063 86.6485 186.887 89.114C187.711 91.5796 184.964 95.1505 180.857 96.5173C176.75 97.8842 161.93 100.062 161.93 100.062C161.93 100.062 163.853 109.663 161.381 113.227" stroke="#263238" stroke-linecap="round" stroke-linejoin="round"/>
<path d="M182.773 95.9483C182.773 95.9483 183.872 93.4828 182.499 93.2081C181.125 92.9334 169.608 92.9334 167.143 92.9334C164.677 92.9334 158.091 95.1308 158.091 95.1308" stroke="#263238" stroke-linecap="round" stroke-linejoin="round"/>
<path d="M185.788 92.384C185.099 91.2378 184.033 90.3664 182.773 89.9185C180.857 89.3691 169.608 88.8197 165.769 88.8197C161.93 88.8197 157.542 90.4678 157.542 90.4678" stroke="#263238" stroke-linecap="round" stroke-linejoin="round"/>
<path d="M234.328 152.166C236.444 158.819 239 165.323 241.98 171.636C246.918 182.061 246.368 192.204 244.72 194.401C243.072 196.599 237.317 197.142 237.317 197.142C237.317 197.142 222.785 190.013 219.77 182.603C216.755 175.194 220.862 155.456 225.251 153.827C228.169 152.796 231.234 152.235 234.328 152.166Z" fill="#263238" stroke="#263238" stroke-linecap="round" stroke-linejoin="round"/>
<path d="M190.177 173.833L178.66 175.749C178.66 175.749 174.821 170.812 170.982 170.517C167.143 170.223 160.014 169.968 160.014 169.968L161.381 145.011C161.381 145.011 146.3 149.151 145.188 149.701C144.076 150.25 139.956 139.551 139.956 139.551C139.956 139.551 119.113 195.219 118.014 199.882C116.916 204.545 119.388 210.3 123.246 214.689C127.105 219.077 141.637 219.09 142.736 219.09C143.834 219.09 150.413 221.562 153.703 221.837C156.993 222.111 165.475 219.09 165.475 219.09C165.475 219.09 154.508 283.836 153.141 288.748C151.774 293.659 150.943 297.25 150.943 297.25H273.241C273.241 297.25 268.304 269.827 265.289 257.761C262.274 245.695 256.787 215.807 256.512 212.243C256.237 208.678 255.963 199.352 252.673 195.788C249.383 192.224 234.878 185.35 234.054 185.082C233.229 184.814 204.702 172.46 204.702 172.46L190.177 173.833Z" fill="white" stroke="#263238" stroke-linecap="round" stroke-linejoin="round"/>
<path d="M159.295 205.918L159.19 211.124" stroke="#263238" stroke-linecap="round" stroke-linejoin="round"/>
<path d="M160.014 170.812L159.347 203.446" stroke="#263238" stroke-linecap="round" stroke-linejoin="round"/>
<path d="M160.014 178.222L164.128 208.109" stroke="#263238" stroke-linecap="round" stroke-linejoin="round"/>
<path d="M138.576 185.788L138.118 190.752" stroke="#263238" stroke-linecap="round" stroke-linejoin="round"/>
<path d="M141.172 157.522L138.969 181.557" stroke="#263238" stroke-linecap="round" stroke-linejoin="round"/>
<path d="M182.917 183.342L184.696 186.174" stroke="#263238" stroke-linecap="round" stroke-linejoin="round"/>
<path d="M178.66 176.573L182.106 182.061" stroke="#263238" stroke-linecap="round" stroke-linejoin="round"/>
<path d="M225.885 268.689C225.002 276.537 225.002 293.391 225.002 293.391" stroke="#263238" stroke-linecap="round" stroke-linejoin="round"/>
<path d="M226.336 225.63C226.454 226.984 226.565 228.364 226.65 229.77C227.35 241.006 227.252 255.276 226.526 263.438" stroke="#263238" stroke-linecap="round" stroke-linejoin="round"/>
<path d="M223.361 205.356C223.361 205.356 224.989 212.785 226.042 222.635" stroke="#263238" stroke-linecap="round" stroke-linejoin="round"/>
<path d="M251.869 263.811C251.071 277.296 251.607 297.23 251.607 297.23" stroke="#263238" stroke-linecap="round" stroke-linejoin="round"/>
<path d="M247.768 219.901C247.768 219.901 254.622 244.583 252.699 255.551C252.451 256.989 252.241 258.768 252.078 260.783" stroke="#263238" stroke-linecap="round" stroke-linejoin="round"/>
<path d="M167.731 252.228C168.207 250.927 168.604 249.6 168.922 248.252" stroke="#263238" stroke-linecap="round" stroke-linejoin="round"/>
<path d="M155.194 278.46C155.194 278.46 162.63 265.145 166.692 254.988" stroke="#263238" stroke-linecap="round" stroke-linejoin="round"/>
<path d="M202.518 162.042C202.518 162.042 199.503 158.203 198.404 160.393C197.305 162.584 187.436 170.812 187.436 170.812C187.436 170.812 186.338 179.588 187.711 184.546C189.084 189.503 189.902 193.048 190.451 193.872C191.001 194.696 197.58 185.37 200.87 185.095C204.159 184.82 206.357 185.644 208.822 187.286C211.288 188.928 220.843 203.943 220.843 203.943C220.843 203.943 227.2 194.689 227.474 193.048C227.749 191.406 229.39 190.033 230.215 189.483C231.039 188.934 240.358 192.498 241.987 193.322C243.615 194.146 245.001 200.176 245.551 197.985C246.1 195.795 237.873 187.561 235.133 183.447C232.392 179.333 228.279 170.831 224.165 168.64C220.051 166.45 202.518 162.042 202.518 162.042Z" fill="white" stroke="#263238" stroke-linecap="round" stroke-linejoin="round"/>
<path d="M201.968 146.686L200.052 166.43C200.052 166.43 212.661 187.816 214.309 189.464C215.957 191.112 219.796 204.27 221.987 201.236C224.178 198.201 225.826 186.972 225.826 182.584C225.826 178.195 226.65 157.634 226.65 157.634C226.65 157.634 214.878 156.535 210.745 154.069C206.612 151.604 201.968 146.686 201.968 146.686Z" fill="white" stroke="#263238" stroke-linecap="round" stroke-linejoin="round"/>
<path d="M201.968 146.686L201.739 149.066L225.937 176.842C226.166 169.209 226.631 157.653 226.631 157.653C226.631 157.653 214.859 156.555 210.725 154.089C206.592 151.623 201.968 146.686 201.968 146.686Z" fill="#263238" stroke="#263238" stroke-linecap="round" stroke-linejoin="round"/>
<path d="M227.2 212.772L230.215 231.693L251.875 234.158L248.036 216.611L227.2 212.772Z" fill="white" stroke="#263238" stroke-linecap="round" stroke-linejoin="round"/>
<path d="M224.185 98.6951C224.185 98.6951 221.438 91.8412 211.02 97.047C200.601 102.253 197.031 118.714 197.031 122.553C197.031 126.392 195.664 130.8 198.162 130.8C200.66 130.8 203.649 123.665 205.565 120.925C207.482 118.184 222.844 111.056 226.134 111.33C229.423 111.605 240.94 126.137 240.94 126.137L241.215 134.914C241.215 134.914 250.816 130.8 252.732 123.397C254.648 115.993 244.779 102.004 236.277 97.616C227.775 93.2277 224.185 98.6951 224.185 98.6951Z" fill="#263238" stroke="#263238" stroke-linecap="round" stroke-linejoin="round"/>
<path d="M201.144 125.843C201.144 125.843 200.052 119.806 197.031 122.573C194.009 125.339 195.389 136.307 197.305 137.379C199.221 138.452 200.575 133.54 200.575 133.54L201.144 125.843Z" fill="white" stroke="#263238" stroke-linecap="round" stroke-linejoin="round"/>
<path d="M200.601 119.806C200.601 119.806 200.052 137.909 200.052 142.572C200.052 147.235 200.869 150.25 208.279 155.73C215.689 161.211 220.614 162.591 225.551 160.668C230.489 158.745 237.323 154.089 238.442 150.525C239.56 146.96 242.83 126.667 243.674 124.195C244.517 121.722 228.024 108.564 226.938 107.472C226.276 106.816 225.396 106.425 224.466 106.373C224.466 106.373 220.084 109.113 212.406 112.952C204.728 116.791 202.805 118.184 202.805 118.184C202.805 118.184 201.144 125.843 200.601 119.806Z" fill="white" stroke="#263238" stroke-linecap="round" stroke-linejoin="round"/>
<path d="M216.474 121.716C216.343 123.024 215.689 123.979 215.009 123.913C214.329 123.848 213.884 122.749 214.015 121.467C214.146 120.186 214.8 119.205 215.48 119.27C216.16 119.335 216.624 120.434 216.474 121.716Z" fill="#263238"/>
<path d="M234.328 125.019C234.198 126.327 233.544 127.281 232.87 127.216C232.196 127.151 231.745 126.052 231.876 124.77C232.007 123.488 232.654 122.507 233.334 122.579C234.014 122.651 234.459 123.737 234.328 125.019Z" fill="#263238"/>
<path d="M210.47 116.791C211.751 115.732 213.298 115.045 214.942 114.804C216.586 114.563 218.265 114.777 219.796 115.424" stroke="#263238" stroke-linecap="round" stroke-linejoin="round"/>
<path d="M240.633 123.645C237.618 118.989 231.588 119.806 231.588 119.806C231.588 119.806 229.665 123.076 229.391 125.293" stroke="#263238" stroke-linecap="round" stroke-linejoin="round"/>
<path d="M226.101 125.293C220.673 123.331 203.701 127.34 200.359 128.164C200.209 133.566 200.052 140.041 200.052 142.552C200.052 147.209 200.869 150.23 208.279 155.711C215.689 161.191 220.614 162.571 225.551 160.649C230.489 158.726 237.323 154.069 238.442 150.505C239.043 148.543 240.312 141.532 241.463 135.201C238.18 132.631 230.705 126.968 226.101 125.293Z" fill="white" stroke="#263238" stroke-linecap="round" stroke-linejoin="round"/>
<path d="M202.518 132.697C202.518 132.697 212.118 130.231 220.346 130.78" stroke="#263238" stroke-linecap="round" stroke-linejoin="round"/>
<path d="M211.301 139.636L215.408 139.551" stroke="#263238" stroke-linecap="round" stroke-linejoin="round"/>
<path d="M201.694 139.825L208.835 139.688" stroke="#263238" stroke-linecap="round" stroke-linejoin="round"/>
<path d="M238.167 145.312L232.406 143.664" stroke="#263238" stroke-linecap="round" stroke-linejoin="round"/>
<path d="M235.152 133.795L239.815 135.986" stroke="#263238" stroke-linecap="round" stroke-linejoin="round"/>
<path d="M201.968 145.587C201.968 145.587 207.455 147.503 210.47 147.503" stroke="#263238" stroke-linecap="round" stroke-linejoin="round"/>
<path d="M241.463 135.221C241.463 135.221 244.472 131.873 244.472 135.986C244.472 140.1 239.541 144.488 239.541 144.488L241.463 135.221Z" fill="white" stroke="#263238" stroke-linecap="round" stroke-linejoin="round"/>
<path d="M83.712 173.925C83.5037 173.924 83.2974 173.884 83.1038 173.807L48.8604 160.165C48.4571 160.004 48.1341 159.69 47.9624 159.292C47.7907 158.893 47.7843 158.442 47.9448 158.039C48.1052 157.636 48.4193 157.313 48.8179 157.141C49.2165 156.969 49.667 156.963 50.0703 157.124L84.3072 170.773C84.659 170.914 84.9509 171.173 85.1327 171.506C85.3146 171.838 85.3751 172.224 85.304 172.596C85.2329 172.969 85.0346 173.305 84.743 173.547C84.4514 173.79 84.0846 173.923 83.7055 173.925H83.712Z" fill="white" stroke="#263238" stroke-linecap="round" stroke-linejoin="round"/>
<path d="M50.0703 157.124C49.667 156.963 49.2165 156.969 48.8179 157.141C48.4193 157.313 48.1052 157.636 47.9448 158.039C47.7843 158.442 47.7907 158.893 47.9624 159.292C48.1341 159.69 48.4571 160.004 48.8604 160.165L62.784 165.711C63.0042 165.144 63.3359 164.628 63.7594 164.192C64.1829 163.756 64.6897 163.409 65.2496 163.173L50.0703 157.124Z" fill="white" stroke="#263238" stroke-linecap="round" stroke-linejoin="round"/>
<path d="M98.8522 52.1565C100.852 49.187 101.692 45.5869 101.213 42.0391C99.5205 39.5752 97.4035 37.4316 94.9609 35.7084C95.4645 36.0746 94.8955 41.4701 94.8955 42.2484C94.8955 43.1509 94.2415 48.239 94.9609 48.7884C96.3535 49.7957 97.6556 50.9227 98.8522 52.1565Z" fill="#263238" stroke="#263238" stroke-linecap="round" stroke-linejoin="round"/>
<path d="M99.6042 147.418C96.4127 140.911 88.4862 136.405 82.6787 132.612C74.4252 127.229 65.8382 122.363 57.7024 116.804C53.4907 113.927 47.5196 110.264 44.5112 105.458C44.5112 105.458 42.6866 111.808 43.3602 115.169C43.4714 115.725 43.5956 116.294 43.7199 116.844C44.2249 117.89 44.8575 118.87 45.6034 119.76C51.0578 126.405 59.2066 131.029 66.3941 135.522C74.6999 140.708 83.3065 145.567 91.0695 151.558C93.3481 153.229 95.4516 155.127 97.3479 157.222C98.3276 156.18 99.1336 154.987 99.735 153.69C99.9786 153.066 100.177 152.426 100.33 151.774C100.382 151.604 100.428 151.466 100.474 151.355C100.52 151.244 100.474 151.015 100.474 150.852C100.424 149.659 100.128 148.49 99.6042 147.418Z" fill="#263238" stroke="#263238" stroke-linecap="round" stroke-linejoin="round"/>
<path d="M97.3545 155.319H97.2107L57.2643 151.846C57.0496 151.827 56.8407 151.767 56.6494 151.667C56.4581 151.568 56.2882 151.432 56.1494 151.267C56.0106 151.103 55.9057 150.912 55.8406 150.707C55.7755 150.501 55.7515 150.285 55.77 150.07C55.7884 149.855 55.849 149.646 55.9482 149.455C56.0474 149.264 56.1834 149.094 56.3483 148.955C56.5131 148.816 56.7037 148.711 56.9092 148.646C57.1146 148.581 57.3308 148.557 57.5456 148.576L97.4919 152.055C97.9255 152.073 98.3341 152.263 98.6279 152.582C98.9216 152.902 99.0764 153.325 99.0582 153.759C99.04 154.192 98.8503 154.601 98.5308 154.895C98.2113 155.188 97.7882 155.343 97.3545 155.325V155.319Z" fill="white" stroke="#263238" stroke-linecap="round" stroke-linejoin="round"/>
<path d="M57.5522 148.576C57.1185 148.538 56.6878 148.675 56.3548 148.955C56.0219 149.235 55.8138 149.637 55.7765 150.07C55.7393 150.504 55.8757 150.934 56.156 151.267C56.4363 151.6 56.8373 151.808 57.2709 151.846L74.8112 153.37C74.8591 152.26 75.1119 151.169 75.5568 150.152L57.5522 148.576Z" fill="white" stroke="#263238" stroke-linecap="round" stroke-linejoin="round"/>
<path d="M87.6753 144.403C87.5316 144.403 87.3886 144.383 87.2502 144.344L74.3468 140.872C73.9279 140.759 73.5709 140.484 73.3545 140.108C73.138 139.733 73.0797 139.286 73.1924 138.867C73.3052 138.448 73.5797 138.091 73.9556 137.875C74.3316 137.658 74.7781 137.6 75.197 137.713L88.1004 141.186C88.4868 141.286 88.8232 141.524 89.0462 141.855C89.2693 142.186 89.3635 142.587 89.3113 142.982C89.259 143.378 89.0638 143.741 88.7624 144.003C88.4611 144.264 88.0744 144.407 87.6753 144.403Z" fill="white" stroke="#263238" stroke-linecap="round" stroke-linejoin="round"/>
<path d="M76.2631 135.967C76.0211 135.966 75.7823 135.913 75.5633 135.81L66.6296 131.591C66.2376 131.406 65.9354 131.072 65.7895 130.664C65.6435 130.255 65.6658 129.806 65.8514 129.414C66.037 129.022 66.3707 128.719 66.7791 128.573C67.1875 128.427 67.6372 128.45 68.0292 128.635L76.9628 132.854C77.2986 133.012 77.5703 133.281 77.7332 133.615C77.8961 133.948 77.9405 134.328 77.859 134.69C77.7776 135.053 77.5751 135.376 77.285 135.608C76.995 135.84 76.6345 135.967 76.2631 135.967Z" fill="white" stroke="#263238" stroke-linecap="round" stroke-linejoin="round"/>
<path d="M96.7529 220.797C96.7529 220.797 99.0877 217.488 99.0877 214.669C99.0845 214.634 99.0845 214.599 99.0877 214.564C97.4527 206.16 90.7034 200.261 83.6402 195.454C74.2815 189.084 63.8306 184.448 54.6484 177.796C51.3784 175.442 47.9841 172.682 46.081 169.059C46.0156 168.948 45.9567 168.83 45.8979 168.712C45.5531 167.962 45.2624 167.189 45.0281 166.397C44.9038 166.011 44.9234 165.58 44.8057 165.2C44.7468 165.03 44.7011 165.854 44.6618 167.09C44.6226 168.327 44.6095 169.857 44.6029 171.315C44.5245 173.931 44.4198 176.6 44.9365 179.085C45.6821 182.675 48.285 185.592 50.9598 187.96C59.403 195.435 70.2136 200.032 79.7358 205.958C85.4583 209.568 92.8682 214.427 96.7529 220.797Z" fill="#263238" stroke="#263238" stroke-linecap="round" stroke-linejoin="round"/>
<path d="M67.5779 193.028H67.4536L57.7744 192.276C57.5597 192.259 57.3504 192.2 57.1584 192.103C56.9665 192.005 56.7956 191.871 56.6556 191.707C56.3729 191.376 56.2331 190.947 56.2669 190.513C56.3008 190.08 56.5055 189.677 56.836 189.395C57.1665 189.112 57.5958 188.972 58.0295 189.006L67.7021 189.752C67.9168 189.76 68.1278 189.81 68.3231 189.9C68.5183 189.989 68.694 190.117 68.84 190.274C68.9861 190.432 69.0997 190.617 69.1743 190.818C69.2489 191.02 69.2831 191.234 69.275 191.449C69.2668 191.663 69.2165 191.874 69.1267 192.07C69.037 192.265 68.9098 192.441 68.7522 192.587C68.5946 192.733 68.4098 192.846 68.2083 192.921C68.0068 192.995 67.7926 193.03 67.5779 193.022V193.028Z" fill="white" stroke="#263238" stroke-linecap="round" stroke-linejoin="round"/>
<path d="M62.372 181.864H62.215L48.8211 180.622C48.3875 180.582 47.9874 180.371 47.709 180.036C47.4306 179.702 47.2966 179.27 47.3365 178.836C47.3764 178.403 47.5869 178.003 47.9217 177.724C48.2566 177.446 48.6883 177.312 49.1219 177.352L62.5158 178.594C62.9495 178.613 63.3578 178.804 63.6509 179.124C63.944 179.444 64.098 179.868 64.0789 180.301C64.0598 180.735 63.8693 181.143 63.5491 181.436C63.229 181.729 62.8056 181.883 62.372 181.864Z" fill="white" stroke="#263238" stroke-linecap="round" stroke-linejoin="round"/>
<path d="M100.945 112.527C100.859 111.299 100.499 110.106 99.8922 109.035C98.0086 105.582 94.9021 102.724 92.0442 100.095C87.9763 96.3473 83.6468 92.9007 79.2911 89.4868C70.3771 82.5152 61.0773 75.9621 52.5883 68.4673C50.5479 66.708 48.2196 64.746 46.5454 62.4636C46.5454 62.4636 44.7011 69.6576 46.493 75.0465C46.5846 75.3147 46.6631 75.5697 46.735 75.8248C47.6369 76.8643 48.593 77.8554 49.5995 78.7939C52.7415 81.795 56.0354 84.6327 59.4684 87.2959C68.1404 94.1891 77.1264 100.67 85.6873 107.707C89.402 110.768 93.7315 114.058 96.9753 117.988C97.08 117.916 97.1781 117.838 97.2762 117.759C98.3457 116.977 99.2801 116.025 100.043 114.94C100.307 114.481 100.541 114.005 100.742 113.515C100.811 113.363 100.892 113.216 100.984 113.077L100.945 112.527Z" fill="#263238" stroke="#263238" stroke-linecap="round" stroke-linejoin="round"/>
<path d="M45.0018 101.972C44.6292 101.968 44.269 101.837 43.9809 101.601C43.6929 101.364 43.4943 101.036 43.4179 100.672C43.3416 100.307 43.3922 99.9269 43.5613 99.5948C43.7305 99.2628 44.0079 98.9984 44.3478 98.8456L69.4091 87.6818C69.6078 87.5782 69.8257 87.5166 70.0491 87.5008C70.2726 87.485 70.497 87.5152 70.7083 87.5897C70.9196 87.6642 71.1134 87.7813 71.2775 87.9338C71.4417 88.0863 71.5727 88.2709 71.6626 88.4762C71.7524 88.6815 71.7991 88.903 71.7997 89.127C71.8004 89.3511 71.7549 89.5729 71.6663 89.7787C71.5776 89.9844 71.4476 90.1698 71.2843 90.3232C71.1211 90.4766 70.928 90.5949 70.7171 90.6706L45.6689 101.834C45.4578 101.924 45.2311 101.97 45.0018 101.972Z" fill="white" stroke="#263238" stroke-linecap="round" stroke-linejoin="round"/>
<path d="M57.9444 92.783L44.3346 98.8456C43.9948 98.9984 43.7173 99.2627 43.5482 99.5948C43.379 99.9269 43.3285 100.307 43.4048 100.672C43.4811 101.036 43.6797 101.364 43.9678 101.601C44.2558 101.837 44.616 101.968 44.9886 101.972C45.2135 101.969 45.4356 101.922 45.6426 101.834L60.168 95.3663L57.9444 92.783Z" fill="white" stroke="#263238" stroke-linecap="round" stroke-linejoin="round"/>
<path d="M95.6148 125.293H95.5363L57.8267 123.56C57.393 123.54 56.9851 123.349 56.6926 123.028C56.4 122.707 56.2469 122.284 56.2669 121.85C56.2868 121.416 56.4782 121.008 56.7989 120.716C57.1197 120.423 57.5434 120.27 57.9771 120.29L95.6867 122.03C96.1203 122.039 96.5324 122.221 96.8323 122.534C97.1322 122.848 97.2953 123.267 97.2858 123.701C97.2762 124.134 97.0948 124.547 96.7814 124.846C96.4681 125.146 96.0484 125.309 95.6148 125.3V125.293Z" fill="white" stroke="#263238" stroke-linecap="round" stroke-linejoin="round"/>
<path d="M56.2442 121.847C56.2336 122.062 56.2655 122.276 56.3381 122.479C56.4106 122.681 56.5224 122.867 56.667 123.026C56.8116 123.186 56.9861 123.315 57.1806 123.406C57.3752 123.498 57.5859 123.55 57.8007 123.56L76.1846 124.404C76.4413 123.334 76.523 122.23 76.4266 121.134L57.9511 120.284C57.7363 120.274 57.5218 120.307 57.3197 120.38C57.1176 120.454 56.932 120.566 56.7735 120.711C56.6149 120.856 56.4866 121.031 56.3957 121.226C56.3049 121.421 56.2534 121.632 56.2442 121.847Z" fill="white" stroke="#263238" stroke-linecap="round" stroke-linejoin="round"/>
<path d="M100.984 113.05C100.892 113.19 100.811 113.336 100.742 113.489C100.541 113.979 100.307 114.455 100.042 114.914C99.2799 115.998 98.3455 116.95 97.2759 117.733C97.1778 117.812 97.0797 117.89 96.9751 117.962C94.0909 120.199 90.7555 121.886 87.5248 123.554C78.7939 128.06 69.8014 132.147 61.7179 137.791C53.9353 143.226 46.4797 150.564 45.0017 160.367C44.8513 161.381 44.8055 160.367 44.7597 161.407L44.5831 163.5C44.5831 163.5 44.0534 172.846 44.4066 176.9C44.6339 179.364 45.4847 181.73 46.8787 183.774C46.8787 183.774 46.5255 182.538 45.8192 178.836C45.1129 175.135 46.0873 169.066 46.0873 169.066C46.3942 168.188 46.7478 167.328 47.1468 166.489C51.7248 156.908 61.319 150.577 70.2723 145.561C78.6435 140.845 87.9303 137.353 95.8306 131.879C98.0019 130.381 100.467 128.511 100.912 125.738C100.958 125.45 100.997 125.156 101.036 124.862C101.501 121.108 101.265 116.785 100.984 113.05Z" fill="#33357D" stroke="#263238" stroke-linecap="round" stroke-linejoin="round"/>
<path d="M44.7532 205.186C44.3196 205.195 43.9003 205.031 43.5875 204.73C43.2748 204.43 43.0942 204.017 43.0855 203.584C43.0769 203.15 43.2408 202.731 43.5413 202.418C43.8418 202.105 44.2542 201.925 44.6878 201.916L82.6198 200.425C82.8345 200.416 83.0488 200.45 83.2505 200.524C83.4521 200.598 83.6372 200.712 83.7951 200.857C83.953 201.003 84.0806 201.179 84.1707 201.374C84.2608 201.569 84.3116 201.78 84.3202 201.994C84.3288 202.209 84.295 202.423 84.2208 202.625C84.1466 202.827 84.0333 203.012 83.8876 203.17C83.7418 203.328 83.5664 203.455 83.3713 203.545C83.1763 203.635 82.9653 203.686 82.7506 203.695L44.8186 205.186H44.7532Z" fill="white" stroke="#263238" stroke-linecap="round" stroke-linejoin="round"/>
<path d="M63.595 201.177L44.6878 201.916C44.2542 201.925 43.8418 202.105 43.5413 202.418C43.2408 202.731 43.0769 203.15 43.0855 203.584C43.0942 204.017 43.2748 204.43 43.5875 204.73C43.9003 205.031 44.3196 205.195 44.7532 205.186H44.8186L64.9422 204.395C64.8372 203.208 64.3665 202.084 63.595 201.177Z" fill="white" stroke="#263238" stroke-linecap="round" stroke-linejoin="round"/>
<path d="M100.474 151.323C100.428 151.434 100.383 151.571 100.33 151.741C100.178 152.393 99.9788 153.033 99.7352 153.657C99.1368 154.966 98.3307 156.17 97.3481 157.222C93.8034 161.106 88.1201 163.716 83.8822 165.913C75.6484 170.19 67.1202 173.951 59.2918 178.993C51.8689 183.754 43.9817 190.301 42.8699 199.64C42.399 203.564 42.6606 207.71 42.6868 211.674C42.6508 212.776 42.688 213.879 42.7979 214.976C43.1626 212.16 43.762 209.38 44.5899 206.664C46.8854 201.923 51.0449 197.959 55.1585 194.892C62.4441 189.457 70.7695 185.559 78.8726 181.524C85.2687 178.339 92.7635 175.18 97.6555 169.785C99.3196 168.068 100.311 165.809 100.448 163.422C100.448 163.186 100.448 162.957 100.448 162.722C100.659 158.925 100.668 155.12 100.474 151.323Z" fill="#33357D" stroke="#263238" stroke-linecap="round" stroke-linejoin="round"/>
<path d="M43.0791 216.219C44.8841 221.981 50.0965 226.029 55.1781 228.808C54.7922 228.599 55.2435 222.922 55.2435 222.268C55.2435 221.614 55.7994 216.069 55.1781 215.728C51.4568 213.708 47.0881 210.627 44.5898 206.664C43.7633 209.372 43.164 212.143 42.7979 214.95C42.854 215.381 42.9481 215.805 43.0791 216.219Z" fill="#263238" stroke="#263238" stroke-linecap="round" stroke-linejoin="round"/>
<path d="M54.2167 79.3171L61.2537 79.9711C61.2652 78.8651 61.4236 77.7655 61.7246 76.7011L54.5306 76.0471C54.3159 76.0274 54.0994 76.0501 53.8935 76.114C53.6875 76.1779 53.4962 76.2818 53.3304 76.4196C53.1646 76.5575 53.0276 76.7267 52.9272 76.9175C52.8268 77.1083 52.7649 77.317 52.7452 77.5317C52.7254 77.7464 52.7482 77.9629 52.8121 78.1689C52.876 78.3748 52.9798 78.5661 53.1177 78.7319C53.2556 78.8977 53.4247 79.0347 53.6155 79.1351C53.8063 79.2355 54.0151 79.2974 54.2298 79.3171H54.2167Z" fill="white" stroke="#263238" stroke-linecap="round" stroke-linejoin="round"/>
<path d="M96.3604 64.746H96.138L46.0416 58.5461C45.8269 58.5199 45.6195 58.4517 45.4311 58.3453C45.2428 58.2389 45.0773 58.0965 44.944 57.9262C44.8106 57.7558 44.7122 57.5609 44.6542 57.3525C44.5963 57.1441 44.5799 56.9263 44.6061 56.7116C44.6323 56.4969 44.7005 56.2895 44.8069 56.1011C44.9133 55.9128 45.0557 55.7472 45.226 55.6139C45.3964 55.4806 45.5913 55.3822 45.7997 55.3242C46.0081 55.2662 46.2259 55.2499 46.4406 55.2761L96.5566 61.476C96.7713 61.4889 96.9814 61.5439 97.1748 61.638C97.3683 61.7321 97.5413 61.8633 97.684 62.0243C97.8267 62.1852 97.9363 62.3727 98.0066 62.576C98.0768 62.7793 98.1064 62.9944 98.0935 63.2091C98.0806 63.4238 98.0256 63.6339 97.9315 63.8273C97.8374 64.0208 97.7062 64.1938 97.5452 64.3365C97.3843 64.4792 97.1968 64.5888 96.9935 64.6591C96.7902 64.7294 96.5751 64.7589 96.3604 64.746Z" fill="white" stroke="#263238" stroke-linecap="round" stroke-linejoin="round"/>
<path d="M96.5566 61.476L73.5489 58.6246C73.3494 59.7292 72.9763 60.7953 72.4436 61.7834L96.138 64.746H96.3407C96.5555 64.7589 96.7706 64.7294 96.9739 64.6591C97.1772 64.5888 97.3647 64.4792 97.5256 64.3365C97.6865 64.1938 97.8178 64.0208 97.9119 63.8273C98.0059 63.6339 98.061 63.4238 98.0739 63.2091C98.0867 62.9944 98.0572 62.7793 97.9869 62.576C97.9167 62.3727 97.8071 62.1852 97.6643 62.0243C97.5216 61.8633 97.3486 61.7321 97.1552 61.638C96.9617 61.5439 96.7517 61.4889 96.537 61.476H96.5566Z" fill="white" stroke="#263238" stroke-linecap="round" stroke-linejoin="round"/>
<path d="M49.4622 49.6255C49.0286 49.6429 48.6058 49.4872 48.2869 49.1929C47.968 48.8985 47.7792 48.4896 47.7618 48.0559C47.7445 47.6223 47.9001 47.1995 48.1944 46.8806C48.4888 46.5618 48.8978 46.3729 49.3314 46.3555L97.7274 42.3857C98.161 42.3502 98.591 42.4883 98.9228 42.7698C99.2546 43.0513 99.4609 43.453 99.4965 43.8867C99.532 44.3203 99.3939 44.7503 99.1124 45.0821C98.8309 45.4138 98.4292 45.6202 97.9956 45.6557L49.5995 49.6255H49.4622Z" fill="white" stroke="#263238" stroke-linecap="round" stroke-linejoin="round"/>
<path d="M97.7142 42.3923L75.5305 44.2104C75.8682 44.6672 76.1081 45.1886 76.2352 45.7423C76.3624 46.2959 76.3741 46.8698 76.2695 47.4281L97.9823 45.6492C98.1971 45.6316 98.4062 45.5719 98.5978 45.4734C98.7895 45.375 98.9598 45.2398 99.0992 45.0755C99.2386 44.9113 99.3442 44.7211 99.4101 44.516C99.476 44.3109 99.5009 44.0949 99.4833 43.8801C99.4657 43.6654 99.4059 43.4563 99.3075 43.2647C99.2091 43.073 99.0739 42.9027 98.9096 42.7633C98.7453 42.6239 98.5552 42.5183 98.3501 42.4524C98.145 42.3865 97.9289 42.3616 97.7142 42.3792V42.3923Z" fill="white" stroke="#263238" stroke-linecap="round" stroke-linejoin="round"/>
<path d="M77.5055 73.9413C77.4164 73.9509 77.3265 73.9509 77.2374 73.9413L46.7218 68.9839C46.2933 68.9146 45.91 68.6778 45.6561 68.3258C45.4022 67.9738 45.2986 67.5354 45.368 67.1069C45.4374 66.6785 45.6741 66.2952 46.0261 66.0413C46.3781 65.7874 46.8165 65.6838 47.245 65.7532L77.7671 70.717C78.2008 70.7517 78.6029 70.9573 78.8849 71.2884C79.167 71.6196 79.306 72.0492 79.2713 72.4828C79.2366 72.9165 79.0311 73.3186 78.7 73.6006C78.3688 73.8827 77.9392 74.0217 77.5055 73.987V73.9413Z" fill="white" stroke="#263238" stroke-linecap="round" stroke-linejoin="round"/>
<path d="M77.7674 70.6909L61.4173 68.0356C61.0175 68.4478 60.7053 68.9367 60.4996 69.4729C60.2939 70.0091 60.199 70.5813 60.2205 71.1552L77.2245 73.9151C77.3137 73.9248 77.4036 73.9248 77.4927 73.9151C77.9263 73.9498 78.356 73.8108 78.6871 73.5287C79.0183 73.2466 79.2238 72.8445 79.2585 72.4109C79.2932 71.9773 79.1542 71.5476 78.8721 71.2164C78.59 70.8853 78.1879 70.6798 77.7543 70.6451L77.7674 70.6909Z" fill="white" stroke="#263238" stroke-linecap="round" stroke-linejoin="round"/>
<path d="M50.2862 55.7012C51.1496 54.4722 52.1214 53.3231 53.19 52.2677C53.8898 51.6137 53.2554 46.7348 53.2554 45.7277C53.2554 44.1842 53.2554 42.6473 53.2554 41.1039C53.2554 40.8096 53.0527 39.3381 53.2096 39.1877C50.1071 42.2532 47.7374 45.98 46.2772 50.0899C45.3104 52.8908 44.7875 55.8256 44.7272 58.7881C44.5376 57.8659 44.5245 58.6769 44.6749 61.2275C44.5637 64.7852 44.0209 68.8466 44.7992 72.2605C45.1661 73.5854 45.838 74.806 46.7612 75.8248C46.6892 75.5697 46.6108 75.3146 46.5192 75.0465C44.7272 69.6641 46.5715 62.4635 46.5715 62.4635C47.5208 60.0624 48.7689 57.7903 50.2862 55.7012Z" fill="#33357D" stroke="#263238" stroke-linecap="round" stroke-linejoin="round"/>
<path d="M45.9959 115.372C45.6115 115.372 45.2396 115.236 44.9455 114.988C44.6513 114.741 44.4537 114.398 44.3873 114.019C44.321 113.641 44.3901 113.251 44.5826 112.918C44.7751 112.586 45.0787 112.331 45.44 112.2L83.8952 98.3027C84.2968 98.1746 84.7324 98.2065 85.111 98.3919C85.4896 98.5772 85.782 98.9016 85.9272 99.2974C86.0723 99.6932 86.059 100.13 85.89 100.516C85.721 100.902 85.4093 101.208 85.0201 101.37L46.5649 115.261C46.383 115.331 46.1905 115.368 45.9959 115.372Z" fill="white" stroke="#263238" stroke-linecap="round" stroke-linejoin="round"/>
<path d="M64.491 105.294L45.44 112.2C45.0787 112.331 44.7751 112.586 44.5826 112.918C44.3901 113.251 44.321 113.641 44.3873 114.019C44.4537 114.398 44.6513 114.741 44.9455 114.988C45.2396 115.236 45.6115 115.372 45.9959 115.372C46.1854 115.371 46.3733 115.338 46.5518 115.274L65.7205 108.348C65.303 107.961 64.9762 107.487 64.7637 106.959C64.5511 106.431 64.458 105.862 64.491 105.294Z" fill="white" stroke="#263238" stroke-linecap="round" stroke-linejoin="round"/>
<path d="M91.3965 233.72C91.2348 233.718 91.0742 233.694 90.9191 233.648L52.4639 221.987C52.0485 221.861 51.7 221.576 51.4952 221.193C51.2904 220.811 51.246 220.362 51.3717 219.947C51.4975 219.531 51.7831 219.183 52.1657 218.978C52.5484 218.773 52.9968 218.729 53.4122 218.855L91.8674 230.515C92.2463 230.626 92.5725 230.87 92.7857 231.202C92.999 231.534 93.0848 231.932 93.0274 232.323C92.97 232.713 92.7733 233.07 92.4735 233.327C92.1738 233.584 91.7912 233.723 91.3965 233.72Z" fill="white" stroke="#263238" stroke-linecap="round" stroke-linejoin="round"/>
<path d="M68.5523 223.446L53.4122 218.868C52.9968 218.742 52.5484 218.786 52.1657 218.991C51.7831 219.196 51.4975 219.544 51.3717 219.96C51.246 220.375 51.2904 220.824 51.4952 221.206C51.7 221.589 52.0485 221.875 52.4639 222L66.9696 226.395C67.2424 225.295 67.7866 224.281 68.5523 223.446Z" fill="white" stroke="#263238" stroke-linecap="round" stroke-linejoin="round"/>
<path d="M46.2379 216.847C45.8042 216.858 45.3839 216.697 45.0693 216.398C44.7547 216.099 44.5716 215.688 44.5604 215.254C44.5491 214.821 44.7105 214.4 45.0092 214.086C45.3078 213.771 45.7192 213.588 46.1529 213.577L95.2748 210.85C95.7084 210.825 96.1339 210.974 96.4577 211.264C96.7815 211.553 96.9771 211.959 97.0013 212.393C97.0256 212.827 96.8767 213.252 96.5872 213.576C96.2978 213.9 95.8915 214.095 95.4579 214.12L46.3294 216.853L46.2379 216.847Z" fill="white" stroke="#263238" stroke-linecap="round" stroke-linejoin="round"/>
<path d="M72.1559 212.131L46.1529 213.577C45.7192 213.588 45.3078 213.771 45.0092 214.086C44.7105 214.4 44.5491 214.821 44.5604 215.254C44.5716 215.688 44.7547 216.099 45.0693 216.398C45.3839 216.697 45.8042 216.858 46.2379 216.847H46.3294L72.6333 215.382C72.7127 214.277 72.5497 213.167 72.1559 212.131Z" fill="white" stroke="#263238" stroke-linecap="round" stroke-linejoin="round"/>
<path d="M48.8211 180.615L55.8516 181.269C55.8675 180.163 56.0258 179.064 56.3225 177.999L49.1285 177.345C48.6949 177.305 48.2632 177.439 47.9283 177.718C47.5935 177.996 47.383 178.396 47.3431 178.83C47.3032 179.263 47.4372 179.695 47.7156 180.03C47.994 180.365 48.394 180.575 48.8277 180.615H48.8211Z" fill="white" stroke="#263238" stroke-linecap="round" stroke-linejoin="round"/>
<path d="M99.467 218.116C99.467 217.847 99.467 217.579 99.4343 217.311V217.22C99.378 216.326 99.2666 215.437 99.1007 214.558C99.0975 214.593 99.0975 214.628 99.1007 214.662C99.1007 217.481 96.766 220.79 96.766 220.79C92.0703 225.951 85.0201 229.554 79.0491 232.17C78.5979 232.366 78.9837 238.056 78.9837 238.71C78.9837 239.364 79.4415 245.08 79.0491 245.25C85.6414 242.418 92.0899 238.71 97.0079 233.4C97.7535 232.589 98.9699 231.49 99.3754 230.43C99.6632 229.665 99.4801 228.567 99.4866 227.756C99.5128 224.525 99.5324 221.314 99.467 218.116Z" fill="#33357D" stroke="#263238" stroke-linecap="round" stroke-linejoin="round"/>
<path d="M103.587 48.2129C103.411 47.3509 103.179 46.5011 102.894 45.6688C102.456 44.4197 101.396 42.5427 101.213 42.0391C101.692 45.5869 100.852 49.187 98.8522 52.1565C91.8902 58.071 84.4334 63.3769 76.5639 68.016C70.4163 71.6326 64.0528 74.8765 58.0818 78.7743C52.9021 82.1555 47.6178 86.2037 44.7664 91.8543C41.6468 98.0281 42.5166 105.889 42.7128 112.54C42.7423 114.03 43.0855 115.496 43.72 116.844C43.5957 116.294 43.4715 115.725 43.3603 115.169C42.7063 111.808 44.5113 105.458 44.5113 105.458C45.5273 103.359 46.8497 101.424 48.4353 99.7154C52.7648 94.9346 58.435 91.4946 63.9613 88.2769C70.3966 84.523 76.8516 80.7886 83.1366 76.7861C86.2758 74.7849 89.3757 72.7248 92.4037 70.5666C95.2486 68.5392 98.3878 66.5314 100.847 64.0266C105.111 59.6775 104.732 53.8111 103.587 48.2129Z" fill="#33357D" stroke="#263238" stroke-linecap="round" stroke-linejoin="round"/>
<path d="M115.758 266.165H112.488V294.614H115.758V266.165Z" fill="white" stroke="#263238" stroke-linecap="round" stroke-linejoin="round"/>
<path d="M117.72 257.99H125.241V287.106C125.241 287.892 124.929 288.645 124.373 289.201C123.818 289.756 123.064 290.069 122.279 290.069H120.676C119.892 290.067 119.14 289.754 118.586 289.199C118.031 288.643 117.72 287.891 117.72 287.106V257.99Z" fill="white" stroke="#263238" stroke-linecap="round" stroke-linejoin="round"/>
<path d="M118.518 262.332V285.798C118.518 286.187 118.594 286.572 118.743 286.931C118.892 287.29 119.111 287.616 119.386 287.891C119.661 288.165 119.988 288.383 120.347 288.531C120.707 288.679 121.092 288.755 121.48 288.754C121.869 288.755 122.254 288.679 122.614 288.531C122.973 288.383 123.3 288.165 123.575 287.891C123.85 287.616 124.068 287.29 124.217 286.931C124.366 286.572 124.443 286.187 124.443 285.798V262.332H118.518Z" fill="#33357D"/>
<path d="M125.058 259.082H117.864C117.581 259.082 117.31 258.97 117.11 258.77C116.91 258.57 116.798 258.299 116.798 258.016C116.798 257.733 116.91 257.462 117.11 257.262C117.31 257.062 117.581 256.95 117.864 256.95H125.058C125.341 256.95 125.612 257.062 125.812 257.262C126.012 257.462 126.124 257.733 126.124 258.016C126.124 258.299 126.012 258.57 125.812 258.77C125.612 258.97 125.341 259.082 125.058 259.082Z" fill="white" stroke="#263238" stroke-linecap="round" stroke-linejoin="round"/>
<path d="M129.263 257.99H136.784V287.106C136.784 287.892 136.472 288.645 135.916 289.201C135.361 289.756 134.607 290.069 133.822 290.069H132.219C131.433 290.069 130.68 289.756 130.124 289.201C129.569 288.645 129.257 287.892 129.257 287.106V257.99H129.263Z" fill="white" stroke="#263238" stroke-linecap="round" stroke-linejoin="round"/>
<path d="M130.068 262.332V285.798C130.068 286.582 130.379 287.334 130.933 287.888C131.488 288.443 132.24 288.754 133.024 288.754C133.412 288.755 133.798 288.679 134.157 288.531C134.516 288.383 134.843 288.165 135.118 287.891C135.393 287.616 135.612 287.29 135.761 286.931C135.91 286.572 135.986 286.187 135.986 285.798V262.332H130.068Z" fill="#33357D"/>
<path d="M136.601 259.082H129.407C129.267 259.082 129.129 259.054 129 259.001C128.871 258.947 128.754 258.869 128.656 258.769C128.557 258.67 128.479 258.553 128.426 258.424C128.374 258.294 128.347 258.156 128.348 258.016C128.347 257.876 128.374 257.738 128.426 257.609C128.479 257.479 128.557 257.362 128.656 257.263C128.754 257.164 128.871 257.085 129 257.031C129.129 256.978 129.267 256.95 129.407 256.95H136.601C136.884 256.95 137.155 257.062 137.355 257.262C137.555 257.462 137.667 257.733 137.667 258.016C137.667 258.299 137.555 258.57 137.355 258.77C137.155 258.97 136.884 259.082 136.601 259.082Z" fill="white" stroke="#263238" stroke-linecap="round" stroke-linejoin="round"/>
<path d="M140.806 257.99H148.327V287.106C148.327 287.892 148.015 288.645 147.459 289.201C146.904 289.756 146.15 290.069 145.365 290.069H143.762C142.978 290.067 142.226 289.754 141.672 289.199C141.117 288.643 140.806 287.891 140.806 287.106V257.99Z" fill="white" stroke="#263238" stroke-linecap="round" stroke-linejoin="round"/>
<path d="M141.611 262.332V285.798C141.611 286.582 141.922 287.334 142.476 287.888C143.031 288.443 143.783 288.754 144.567 288.754C144.955 288.755 145.341 288.679 145.7 288.531C146.059 288.383 146.386 288.165 146.661 287.891C146.936 287.616 147.155 287.29 147.304 286.931C147.453 286.572 147.529 286.187 147.529 285.798V262.332H141.611Z" fill="#33357D"/>
<path d="M148.144 259.082H140.95C140.667 259.082 140.396 258.97 140.196 258.77C139.996 258.57 139.884 258.299 139.884 258.016C139.884 257.733 139.996 257.462 140.196 257.262C140.396 257.062 140.667 256.95 140.95 256.95H148.144C148.427 256.95 148.698 257.062 148.898 257.262C149.098 257.462 149.21 257.733 149.21 258.016C149.21 258.299 149.098 258.57 148.898 258.77C148.698 258.97 148.427 259.082 148.144 259.082Z" fill="white" stroke="#263238" stroke-linecap="round" stroke-linejoin="round"/>
<path d="M150.747 263.222H109.872V268.127H150.747V263.222Z" fill="white" stroke="#263238" stroke-linecap="round" stroke-linejoin="round"/>
<path d="M150.747 292.325H109.872V297.23H150.747V292.325Z" fill="white" stroke="#263238" stroke-linecap="round" stroke-linejoin="round"/>
<path d="M197.148 261.894L197.103 247.382H181.923V262.202L171.884 293.28C171.743 293.732 171.71 294.211 171.787 294.678C171.865 295.145 172.051 295.587 172.331 295.969C172.611 296.351 172.977 296.662 173.399 296.876C173.822 297.091 174.288 297.203 174.762 297.204H204.192C204.665 297.203 205.132 297.091 205.554 296.876C205.977 296.662 206.342 296.351 206.623 295.969C206.903 295.587 207.089 295.145 207.167 294.678C207.244 294.211 207.211 293.732 207.07 293.28L197.148 261.894Z" fill="white" stroke="#263238" stroke-linecap="round" stroke-linejoin="round"/>
<path d="M196.73 267.761H182.375L174.899 291.586C174.772 291.967 174.736 292.373 174.795 292.771C174.853 293.168 175.005 293.547 175.236 293.875C175.468 294.204 175.774 294.473 176.129 294.662C176.484 294.85 176.878 294.953 177.28 294.961H201.648C202.05 294.952 202.444 294.85 202.799 294.661C203.154 294.473 203.46 294.203 203.693 293.875C203.925 293.547 204.077 293.169 204.136 292.771C204.196 292.374 204.161 291.968 204.035 291.586L196.73 267.761Z" fill="#33357D"/>
<path d="M198.208 244.688H180.36C179.685 244.688 179.137 245.235 179.137 245.911V247.055C179.137 247.73 179.685 248.278 180.36 248.278H198.208C198.883 248.278 199.431 247.73 199.431 247.055V245.911C199.431 245.235 198.883 244.688 198.208 244.688Z" fill="white" stroke="#263238" stroke-linecap="round" stroke-linejoin="round"/>
<path d="M36.1467 297.23H318.374" stroke="#263238" stroke-linecap="round" stroke-linejoin="round"/>
<path d="M13.7014 297.23H31.0193" stroke="#263238" stroke-linecap="round" stroke-linejoin="round"/>
</svg>
