<?xml version="1.0" encoding="utf-8"?>
<!-- Generator: Adobe Illustrator 26.3.0, SVG Export Plug-In . SVG Version: 6.00 Build 0)  -->
<svg version="1.1" id="Layer_1" xmlns="http://www.w3.org/2000/svg" xmlns:xlink="http://www.w3.org/1999/xlink" x="0px" y="0px"
	 viewBox="0 0 100 27" style="enable-background:new 0 0 100 27;" xml:space="preserve">
<style type="text/css">
	.st0{fill:#1273EB;}
</style>
<g>
	<g>
		<g>
			<g>
				<g>
					<g>
						<path id="_x31_s3ua_00000150088265628036672460000008431413491267580574_" class="st0" d="M4.4,6.8C3.7,7.5,3.2,8.3,2.7,9.1
							L2,8.7C1.9,8.3,1.4,8,1,8C0.4,8.1,0.1,8.5,0.1,9.1c0,0.5,0.5,0.9,1,0.8c0,0,0,0,0,0c0.1,0,0.2,0,0.3-0.1l0.7,0.4
							c-0.4,0.9-0.7,1.8-0.8,2.8l1.2,0.2c0.4-2.1,1.3-4,2.8-5.5L4.4,6.8z"/>
					</g>
				</g>
				<g>
					<g>
						<path id="_x31_s3ub_00000049208975976254360640000015691272854101119383_" class="st0" d="M12.9,3.2c-0.3,0-0.5,0-0.8,0
							l-0.1-1c0.3-0.2,0.5-0.6,0.4-1c-0.1-0.6-0.6-1.1-1.2-1c0,0,0,0,0,0c-0.6,0.1-1,0.6-1,1.3c0.1,0.4,0.3,0.7,0.6,0.9l0.1,1
							c-1.1,0.2-2.2,0.5-3.2,1l0.5,1.1c1.4-0.7,3-1.1,4.6-1.1c0.8,0,1.5,0.1,2.3,0.3l0.2-1.2C14.6,3.3,13.8,3.2,12.9,3.2L12.9,3.2z"
							/>
					</g>
				</g>
				<g>
					<g>
						<path id="_x31_s3uc_00000041276758888048024050000013944584815353475471_" class="st0" d="M23.2,7.2c0.5-0.1,0.9-0.5,0.8-1.1
							c-0.1-0.5-0.5-0.9-1-0.8c-0.5,0.1-0.8,0.5-0.8,1l-0.7,0.6c-0.7-0.7-1.4-1.3-2.2-1.8l-0.6,1c1.7,1.1,3.1,2.7,4,4.6l1.1-0.5
							c-0.4-0.9-0.9-1.7-1.5-2.5l0.6-0.6C23,7.2,23.1,7.2,23.2,7.2z"/>
					</g>
				</g>
				<g>
					<g>
						<path id="_x31_s3ud_00000111889253573674211100000013033356470712298625_" class="st0" d="M12.1,19.3c-0.6,0-1.2,0.1-1.8,0.1
							c-1.4,0-2.7-0.1-3.9-0.3c-0.6-0.1-1.3-0.3-2-0.5c1.6,2.9,4.8,4.9,8.4,4.9c4.4,0,8.2-3,9.2-7.1c-1.1,0.7-2.3,1.3-3.8,1.8
							C16.4,18.8,14.3,19.2,12.1,19.3z"/>
					</g>
				</g>
				<g>
					<g>
						<path id="_x31_s3ue_00000012435601153676195100000011115441213282646403_" class="st0" d="M16.9,14.4c-1.2,0-2.1-1-2.1-2.1
							c0-1.2,1-2.1,2.1-2.1c1.2,0,2.1,1,2.1,2.1C19,13.5,18.1,14.4,16.9,14.4z M9.6,15.9c-1.6,0-2.9-1.3-2.9-2.9
							C6.7,11.3,8,10,9.6,10c1.6,0,2.9,1.3,2.9,2.9S11.2,15.9,9.6,15.9z M12.9,5.6c-5.2,0-9.4,4.2-9.4,9.4c0,0.7,0.1,1.3,0.2,2
							c1,0.8,4.2,1.4,8.3,1.2c4.5-0.3,8.2-1.5,10.4-3.4c0-0.3,0-0.6-0.1-0.9C21.7,9.1,17.7,5.6,12.9,5.6L12.9,5.6z"/>
					</g>
				</g>
			</g>
		</g>
		<g>
			<g>
				<g>
					<g>
						<path id="_x31_s3um_00000023991057656012130980000017302415088932234632_" class="st0" d="M38.3,8.3C37.8,8.2,37,7.9,36.1,8
							c-0.9,0.1-1.3,0.5-1.3,1.6v1.4h3.5v2.7h-3.5v8.6h-3v-8.6h-2.1v-2.7h2.1V9.5c0-2.7,1.4-4.4,4-4.4c1,0,1.8,0.2,2.5,0.5L38.3,8.3
							z"/>
					</g>
				</g>
				<g>
					<g>
						<path id="_x31_s3un_00000088853924490809864990000003418314773217799329_" class="st0" d="M45.6,13.6c-0.3,0-0.5-0.1-0.8-0.1
							c-1.4,0-2.4,0.9-2.4,2.6v6.2h-3V10.9h2.9v1.2c0.7-1.1,1.8-1.5,3.1-1.5c0.6,0,1.3,0.2,1.7,0.5L45.6,13.6z"/>
					</g>
				</g>
				<g>
					<g>
						<path id="_x31_s3uo_00000137825164215735436960000014745662165522437812_" class="st0" d="M49.6,15.5h5
							c-0.3-1.5-1.1-2.3-2.4-2.3C50.7,13.3,49.9,14.1,49.6,15.5L49.6,15.5z M57.6,16.6c0,0.3,0,0.8-0.1,1h-7.9
							c0.3,1.6,1.5,2.4,2.9,2.4c1,0,2-0.4,2.8-1.1l1.8,2c-1.3,1.2-2.9,1.7-4.8,1.7c-3.4,0-5.8-2.4-5.8-5.9c0-3.6,2.3-6,5.7-6
							C55.4,10.6,57.6,13,57.6,16.6L57.6,16.6z"/>
					</g>
				</g>
				<g>
					<g>
						<path id="_x31_s3up_00000155135418014166529220000009403665545298049206_" class="st0" d="M61.5,15.5h5
							c-0.3-1.5-1.1-2.3-2.4-2.3C62.6,13.3,61.8,14.1,61.5,15.5L61.5,15.5z M69.5,16.6c0,0.3,0,0.8-0.1,1h-7.9
							c0.3,1.6,1.5,2.4,2.9,2.4c1,0,2-0.4,2.8-1.1l1.8,2c-1.3,1.2-2.9,1.7-4.8,1.7c-3.4,0-5.8-2.4-5.8-5.9c0-3.6,2.3-6,5.7-6
							C67.3,10.6,69.5,13,69.5,16.6L69.5,16.6z"/>
					</g>
				</g>
				<g>
					<g>
						<path id="_x31_s3uq_00000010305115634801040870000017694111497403785623_" class="st0" d="M73.7,16.6c0,1.8,1.2,3.1,2.9,3.1
							c1.8,0,2.9-1.4,2.9-3.1c0-1.7-1.1-3.1-2.9-3.1C74.9,13.5,73.7,14.8,73.7,16.6z M82.6,16.6c0,3.4-2.3,6-5.4,6
							c-1.5,0-2.6-0.6-3.3-1.5v5.9h-3v-16h3v1.3c0.7-0.9,1.8-1.5,3.3-1.5C80.2,10.6,82.6,13.2,82.6,16.6L82.6,16.6z"/>
					</g>
				</g>
				<g>
					<g>
						<path id="_x31_s3ur_00000036936117217691159930000013934743298741421962_" class="st0" d="M87,22.2h-3V10.9h3L87,22.2z
							 M87.4,7.2c0,1.1-0.8,1.9-1.9,1.9c-1.1,0-1.9-0.8-1.9-1.9s0.8-2,1.9-2C86.6,5.3,87.4,6.1,87.4,7.2L87.4,7.2z"/>
					</g>
				</g>
				<g>
					<g>
						<path id="_x31_s3us_00000160157001622101146650000015758042296468737936_" class="st0" d="M92,15l4.2-4h3.7l-5.4,5.3l5.5,6
							h-3.7L92,17.6v4.6h-3V5.4h3L92,15L92,15z"/>
					</g>
				</g>
			</g>
		</g>
	</g>
</g>
</svg>
